if (_typeface_js && _typeface_js.loadFace) _typeface_js.loadFace({"glyphs":{"S":{"x_min":34.046875,"x_max":718,"ha":781,"o":"m 542 522 q 598 488 567 508 q 655 440 628 469 q 699 372 681 412 q 718 277 718 333 q 691 160 718 215 q 616 65 665 106 q 499 1 567 24 q 348 -21 431 -21 q 187 -2 266 -21 q 34 48 109 16 l 142 170 l 179 178 l 156 131 q 152 120 152 124 q 159 105 152 115 q 190 82 167 95 q 243 57 213 69 q 310 36 274 44 q 380 28 345 28 q 464 42 426 28 q 531 82 502 57 q 575 140 559 107 q 592 212 592 173 q 586 254 592 234 q 573 288 580 273 q 504 372 548 343 q 412 426 459 402 l 316 472 q 228 521 272 494 q 155 594 184 548 q 127 657 135 624 q 119 717 119 690 q 137 809 119 759 q 194 901 155 859 q 295 972 234 944 q 444 1001 357 1001 q 565 987 497 1001 q 703 934 632 974 l 598 821 l 561 813 l 584 855 q 591 874 591 872 q 579 895 591 881 q 547 922 568 909 q 496 946 526 936 q 426 957 465 957 q 353 944 387 957 q 293 909 318 932 q 252 854 267 886 q 238 786 238 823 q 256 709 238 741 q 301 652 274 676 q 361 611 328 629 q 421 580 393 594 l 542 522 "},"¦":{"x_min":118,"x_max":201,"ha":318,"o":"m 201 243 l 201 -243 l 118 -243 l 118 243 l 201 243 m 201 938 l 201 451 l 118 451 l 118 938 l 201 938 "},"/":{"x_min":4.171875,"x_max":572.265625,"ha":579,"o":"m 302 470 l 198 245 q 165 174 181 209 q 136 110 150 140 q 111 58 122 81 q 95 24 101 35 l 4 -17 q 228 466 113 222 q 473 957 343 711 l 572 1003 q 561 981 566 991 q 550 959 555 971 q 495 855 516 894 q 456 781 473 815 q 420 710 438 747 q 373 615 402 673 l 302 470 "},"y":{"x_min":-63.890625,"x_max":627.828125,"ha":607,"o":"m 288 -367 l 122 -367 q 137 -351 130 -358 q 150 -333 144 -343 q 163 -310 156 -323 q 181 -275 170 -296 l 270 -87 q 285 -57 279 -69 q 295 -35 291 -44 q 304 -17 300 -26 q 312 2 308 -8 l 243 -19 q 200 96 223 30 q 156 222 177 161 q 120 329 136 283 q 100 388 104 376 q 73 470 83 440 q 56 520 63 501 q 45 553 50 540 q 34 583 40 566 l -63 583 l 22 629 l 191 629 q 178 600 180 606 q 176 587 176 594 q 184 549 176 574 q 197 509 191 524 q 217 447 208 477 q 236 385 226 416 l 312 158 q 327 115 320 133 q 341 76 333 98 l 398 212 q 436 308 418 260 q 475 405 455 356 q 508 496 494 456 q 531 583 522 537 l 402 583 l 484 629 l 627 629 q 613 611 619 617 q 604 599 608 605 q 596 584 600 592 q 587 562 593 576 q 544 448 562 495 q 511 362 526 401 q 481 287 495 323 q 449 206 468 251 q 406 103 430 162 q 347 -37 381 45 q 295 -161 320 -100 q 244 -285 270 -222 q 241 -295 243 -290 q 240 -306 240 -300 q 255 -325 240 -318 q 281 -331 263 -328 q 344 -338 298 -333 l 288 -367 "},"Á":{"x_min":19.453125,"x_max":1093.140625,"ha":1042,"o":"m 370 971 l 565 985 q 586 937 570 972 q 620 864 602 903 q 654 792 638 826 q 675 748 670 758 q 699 692 686 723 q 727 627 712 661 q 754 563 741 594 q 779 507 768 532 l 833 383 q 908 229 876 290 q 968 126 940 168 q 1025 56 995 84 q 1093 0 1054 27 q 1045 -10 1066 -7 q 1001 -14 1025 -14 q 947 -6 973 -14 q 890 20 922 1 q 841 61 862 38 q 802 110 819 84 q 772 165 786 137 q 744 225 758 193 l 662 417 q 628 407 643 411 q 602 399 613 403 q 578 391 590 395 q 552 381 566 386 l 331 381 q 298 376 308 381 q 277 360 288 372 l 156 136 q 150 120 154 129 q 147 104 147 112 q 166 77 147 86 q 238 51 194 61 q 315 36 281 41 l 198 0 q 82 11 120 -2 q 19 41 44 26 q 70 109 45 76 q 119 182 94 141 q 173 276 144 222 q 240 408 202 331 l 291 517 q 326 586 313 560 q 350 636 338 613 q 372 688 361 660 q 405 763 384 716 q 421 799 415 784 q 432 825 427 813 q 441 848 437 837 q 450 874 445 859 q 422 910 440 897 q 381 929 404 923 q 332 936 358 936 q 281 936 306 937 l 370 971 m 569 430 q 619 433 602 433 q 655 436 636 434 q 618 525 643 469 q 568 639 594 581 q 519 745 543 697 q 486 815 495 794 q 441 711 459 754 q 404 626 423 669 q 367 551 386 588 q 330 475 348 513 q 320 453 325 464 q 311 431 315 442 l 569 430 m 718 1115 l 422 1048 l 516 1118 l 815 1186 l 718 1115 "},"g":{"x_min":-33,"x_max":660.578125,"ha":666,"o":"m 485 580 q 514 554 498 570 q 546 515 531 538 q 572 461 561 492 q 584 392 584 431 q 574 324 584 353 q 547 272 564 295 q 510 230 531 249 q 467 195 489 211 q 440 165 453 181 q 428 126 428 150 q 440 90 428 103 q 464 67 453 76 l 514 28 q 558 -10 536 8 q 595 -52 579 -30 q 621 -102 611 -74 q 631 -166 631 -130 q 607 -262 631 -214 q 537 -346 583 -309 q 423 -406 492 -383 q 265 -429 354 -429 q 134 -412 190 -429 q 40 -367 78 -395 q -14 -304 3 -340 q -33 -230 -33 -269 q -10 -144 -33 -192 q 73 -60 12 -97 q 142 -29 105 -41 q 215 -10 179 -17 q 283 -1 251 -3 q 338 3 315 1 q 310 44 323 22 q 297 97 297 65 q 301 127 297 115 q 310 152 305 139 q 288 149 299 150 q 266 149 277 149 q 167 167 210 149 q 95 216 124 186 q 51 287 66 247 q 36 366 36 326 q 58 464 36 415 q 125 552 80 513 q 251 615 184 601 q 374 629 317 629 l 660 629 l 571 580 l 485 580 m 332 188 q 384 199 358 188 q 427 226 410 210 q 456 279 450 250 q 462 328 462 308 q 450 410 462 365 q 417 493 439 454 q 362 558 395 532 q 286 584 329 584 q 231 571 258 584 q 188 538 205 559 q 164 489 170 516 q 158 435 158 463 q 168 357 158 400 q 200 276 178 314 q 254 213 222 239 q 332 188 287 188 m 538 -221 q 528 -173 538 -194 q 501 -130 519 -151 q 454 -87 483 -110 q 386 -38 425 -65 q 371 -36 378 -36 q 354 -36 365 -36 q 335 -36 350 -36 q 298 -39 319 -37 q 254 -46 278 -41 q 208 -58 230 -51 q 177 -71 197 -62 q 137 -97 157 -80 q 103 -138 118 -113 q 89 -201 89 -163 q 155 -323 89 -276 q 333 -371 221 -371 q 485 -328 433 -371 q 538 -221 538 -286 "},"²":{"x_min":14.484375,"x_max":429.34375,"ha":463,"o":"m 14 842 q 60 887 39 867 q 101 923 81 906 q 141 954 121 939 q 186 983 161 969 q 215 987 203 985 q 246 990 227 990 q 316 978 288 990 q 362 946 344 966 q 388 902 380 927 q 396 851 396 877 q 348 706 396 781 q 208 525 301 631 q 195 510 204 521 q 174 486 185 499 q 154 463 164 474 q 140 448 145 452 q 181 443 160 445 q 223 439 203 441 q 259 438 243 438 q 283 438 275 438 q 345 440 321 438 q 384 446 369 442 q 410 454 400 449 q 429 465 421 459 l 416 429 l 349 350 l 306 341 l 325 371 q 256 366 293 368 q 195 365 218 365 q 117 367 163 365 q 25 377 71 370 q 79 436 53 405 q 131 499 106 467 q 188 573 158 534 q 243 653 218 612 q 285 734 268 693 q 302 811 302 774 q 295 852 302 832 q 277 887 289 871 q 247 913 265 903 q 206 923 229 923 q 141 903 165 923 q 103 869 117 884 l 14 842 "},"–":{"x_min":16.671875,"x_max":707,"ha":665,"o":"m 607 334 l 16 334 l 122 392 l 707 392 l 607 334 "},"ë":{"x_min":45,"x_max":625.59375,"ha":607,"o":"m 551 30 q 529 17 540 23 q 506 5 517 10 q 437 -15 471 -9 q 371 -21 403 -21 q 333 -19 354 -21 q 288 -13 313 -18 q 238 2 264 -8 q 186 33 213 13 q 122 93 149 59 q 79 166 96 127 q 53 246 61 205 q 45 326 45 287 q 74 467 45 406 q 150 567 104 527 q 252 626 196 606 q 363 647 308 647 q 437 637 400 647 q 506 608 474 627 q 549 571 532 591 q 576 533 565 552 q 593 499 588 515 q 603 470 599 483 l 276 338 l 170 330 q 210 212 182 263 q 276 124 238 160 q 360 69 314 88 q 456 51 406 51 q 549 66 508 51 q 625 99 589 81 l 551 30 m 420 444 q 450 458 440 451 q 461 481 461 466 q 449 523 461 502 q 420 562 438 545 q 376 589 401 578 q 323 601 351 601 q 274 591 302 601 q 222 560 247 582 q 181 501 198 538 q 164 408 164 463 q 165 372 164 390 q 168 334 166 353 l 420 444 m 480 734 q 457 759 466 748 q 440 779 448 769 q 424 802 433 790 q 403 833 416 815 q 433 856 422 847 q 455 873 445 865 q 475 891 465 882 q 501 914 485 900 q 522 886 513 897 q 538 866 530 875 q 554 845 545 857 q 579 818 563 834 q 552 793 563 802 q 531 775 541 783 q 508 757 520 766 q 480 734 497 747 m 185 733 q 160 757 170 746 q 142 777 150 767 q 125 798 134 787 q 105 828 117 810 q 132 851 121 841 q 154 869 143 860 q 175 888 164 878 q 200 912 185 898 q 223 884 214 895 q 241 863 232 873 q 259 843 249 853 q 281 819 268 833 q 255 793 266 803 q 234 773 245 783 q 213 755 224 764 q 185 733 202 745 "},"ƒ":{"x_min":1.3125,"x_max":673.09375,"ha":579,"o":"m 1 -364 q 61 -284 38 -327 q 99 -179 83 -241 q 126 -30 115 -118 q 151 182 137 57 q 172 365 162 272 q 193 542 181 458 l 63 536 l 154 589 l 200 589 q 216 688 208 648 q 243 774 223 729 q 302 876 268 837 q 376 937 336 915 q 459 967 416 959 q 548 979 503 976 q 563 980 556 979 q 583 981 570 981 q 617 981 596 981 q 673 981 638 981 l 573 920 q 545 926 561 923 q 506 930 528 930 q 437 914 464 930 q 393 875 410 899 q 368 821 377 850 q 355 763 360 791 q 341 677 346 722 q 330 589 335 633 l 578 589 l 470 542 l 324 542 q 321 521 324 539 q 315 480 318 503 q 310 438 312 458 q 307 411 308 418 q 303 375 305 400 q 296 321 300 351 q 289 256 293 290 q 281 191 284 222 q 274 134 278 159 q 269 97 271 109 q 247 -59 258 8 q 215 -180 236 -127 q 161 -273 194 -233 q 72 -344 127 -313 l 1 -364 "},"Î":{"x_min":6.9375,"x_max":443.96875,"ha":435,"o":"m 384 0 l 91 0 q 119 35 109 22 q 134 59 128 48 q 141 79 139 69 q 144 105 142 90 q 144 345 144 227 q 146 568 145 462 q 150 766 148 675 q 157 932 153 858 l 17 932 l 109 981 l 360 981 l 325 951 q 315 942 320 946 q 308 930 311 937 q 306 921 306 928 q 304 892 306 915 q 301 829 303 864 q 299 757 300 794 q 297 685 297 721 q 295 622 296 650 l 289 416 q 287 325 288 370 q 287 234 287 280 l 287 145 q 288 94 287 113 q 294 64 289 74 q 310 49 299 53 q 341 44 321 45 l 443 33 l 384 0 m 431 1097 l 361 1065 l 222 1130 l 6 1052 l 130 1145 l 241 1186 l 431 1097 "},"e":{"x_min":45,"x_max":625.59375,"ha":607,"o":"m 551 30 q 529 17 540 23 q 506 5 517 10 q 437 -15 471 -9 q 371 -21 403 -21 q 333 -19 354 -21 q 288 -13 313 -18 q 238 2 264 -8 q 186 33 213 13 q 122 93 149 59 q 79 166 96 127 q 53 246 61 205 q 45 326 45 287 q 74 467 45 406 q 150 567 104 527 q 252 626 196 606 q 363 647 308 647 q 437 637 400 647 q 506 608 474 627 q 549 571 532 591 q 576 533 565 552 q 593 499 588 515 q 603 470 599 483 l 276 338 l 170 330 q 210 212 182 263 q 276 124 238 160 q 360 69 314 88 q 456 51 406 51 q 549 66 508 51 q 625 99 589 81 l 551 30 m 420 444 q 450 458 440 451 q 461 481 461 466 q 449 523 461 502 q 420 562 438 545 q 376 589 401 578 q 323 601 351 601 q 274 591 302 601 q 222 560 247 582 q 181 501 198 538 q 164 408 164 463 q 165 372 164 390 q 168 334 166 353 l 420 444 "},"Ã":{"x_min":19.453125,"x_max":1093.140625,"ha":1042,"o":"m 370 971 l 565 985 q 586 937 570 972 q 620 864 602 903 q 654 792 638 826 q 675 748 670 758 q 699 692 686 723 q 727 627 712 661 q 754 563 741 594 q 779 507 768 532 l 833 383 q 908 229 876 290 q 968 126 940 168 q 1025 56 995 84 q 1093 0 1054 27 q 1045 -10 1066 -7 q 1001 -14 1025 -14 q 947 -6 973 -14 q 890 20 922 1 q 841 61 862 38 q 802 110 819 84 q 772 165 786 137 q 744 225 758 193 l 662 417 q 628 407 643 411 q 602 399 613 403 q 578 391 590 395 q 552 381 566 386 l 331 381 q 298 376 308 381 q 277 360 288 372 l 156 136 q 150 120 154 129 q 147 104 147 112 q 166 77 147 86 q 238 51 194 61 q 315 36 281 41 l 198 0 q 82 11 120 -2 q 19 41 44 26 q 70 109 45 76 q 119 182 94 141 q 173 276 144 222 q 240 408 202 331 l 291 517 q 326 586 313 560 q 350 636 338 613 q 372 688 361 660 q 405 763 384 716 q 421 799 415 784 q 432 825 427 813 q 441 848 437 837 q 450 874 445 859 q 422 910 440 897 q 381 929 404 923 q 332 936 358 936 q 281 936 306 937 l 370 971 m 569 430 q 619 433 602 433 q 655 436 636 434 q 618 525 643 469 q 568 639 594 581 q 519 745 543 697 q 486 815 495 794 q 441 711 459 754 q 404 626 423 669 q 367 551 386 588 q 330 475 348 513 q 320 453 325 464 q 311 431 315 442 l 569 430 m 638 1088 q 627 1086 636 1087 q 609 1084 619 1084 q 588 1082 598 1083 q 575 1082 579 1082 q 545 1084 558 1082 q 516 1088 531 1086 q 455 1098 477 1096 q 418 1101 433 1101 q 350 1090 375 1101 q 294 1062 325 1080 l 409 1145 q 450 1150 430 1150 q 483 1147 463 1150 q 519 1141 502 1144 q 611 1133 575 1133 q 677 1140 650 1133 q 734 1159 704 1148 l 638 1088 "},"J":{"x_min":-50,"x_max":358.359375,"ha":406,"o":"m 8 -357 q 45 -293 27 -325 q 77 -227 63 -261 q 106 -147 95 -185 q 122 -65 116 -109 q 131 32 129 -21 q 138 161 134 86 l 147 475 q 147 585 147 530 q 150 695 148 640 q 154 799 152 748 q 156 902 155 851 l 156 932 l -50 926 l 38 981 l 358 981 l 323 951 q 307 930 311 939 q 301 893 304 922 q 300 833 301 876 q 296 742 298 790 q 293 649 294 693 q 291 587 291 605 l 280 123 q 273 26 277 76 q 251 -76 269 -23 q 197 -186 233 -129 q 100 -302 162 -243 l 8 -357 "},"»":{"x_min":31.953125,"x_max":577.828125,"ha":607,"o":"m 33 592 l 70 629 l 354 356 l 72 90 l 31 126 l 275 356 l 33 592 m 255 591 l 297 628 l 577 356 l 293 87 l 255 125 l 498 356 l 255 591 "},"©":{"x_min":85,"x_max":1072,"ha":1157,"o":"m 824 367 l 824 189 l 719 179 q 641 171 683 175 q 575 167 598 167 q 524 169 551 167 q 465 182 497 172 q 422 197 444 187 q 378 223 399 206 q 338 266 358 240 q 305 327 319 291 q 282 418 288 369 q 276 499 276 466 q 286 602 276 558 q 309 670 296 647 q 410 772 341 740 q 565 804 479 804 q 589 803 577 804 q 615 801 600 802 q 652 799 630 801 q 707 794 673 796 l 803 788 l 820 605 l 786 605 q 772 657 781 629 q 750 706 764 686 q 738 723 747 712 q 713 745 729 734 q 673 765 697 756 q 615 775 648 775 q 557 768 586 775 q 502 744 528 761 q 459 700 476 726 q 432 644 441 675 q 418 581 422 613 q 414 516 414 548 q 418 440 414 477 q 426 374 419 415 q 453 293 433 333 q 511 225 473 254 q 615 196 550 196 q 704 213 671 196 q 754 256 736 230 q 779 312 772 282 q 791 367 786 341 l 824 367 m 1072 490 q 1034 297 1072 387 q 930 140 997 207 q 773 34 863 73 q 577 -4 683 -4 q 390 32 479 -4 q 233 134 301 68 q 125 291 165 200 q 85 490 85 382 q 123 686 85 596 q 230 843 162 776 q 386 947 297 909 q 579 985 476 985 q 776 946 686 985 q 932 839 866 907 q 1035 682 998 772 q 1072 490 1072 591 m 1028 489 q 993 665 1028 582 q 900 808 959 747 q 759 905 841 870 q 581 941 677 941 q 402 905 486 941 q 258 808 319 870 q 163 665 198 746 q 129 491 129 583 q 165 311 129 394 q 262 168 201 229 q 405 74 323 108 q 579 40 487 40 q 729 65 657 40 q 862 138 801 90 q 941 220 909 176 q 991 312 972 265 q 1019 404 1011 359 q 1028 489 1028 450 "},"ò":{"x_min":44,"x_max":737,"ha":781,"o":"m 737 319 q 713 197 737 258 q 645 89 689 137 q 534 11 600 41 q 383 -18 468 -18 q 236 11 300 -18 q 130 87 173 40 q 66 193 88 134 q 44 309 44 251 q 70 438 44 377 q 144 546 96 499 q 258 619 192 592 q 404 647 325 647 q 542 619 480 647 q 647 545 604 591 q 714 440 691 499 q 737 319 737 381 m 415 24 q 494 42 455 24 q 557 94 533 61 q 590 168 582 128 q 599 248 599 208 q 587 355 599 294 q 548 472 575 416 q 476 565 521 527 q 368 604 432 604 q 300 591 333 604 q 242 556 268 579 q 190 476 202 520 q 179 387 179 431 q 192 273 179 336 q 233 154 205 209 q 307 61 262 98 q 415 24 352 24 m 504 729 l 202 795 l 108 867 l 406 798 l 504 729 "},"^":{"x_min":217,"x_max":796,"ha":1013,"o":"m 796 486 l 690 486 l 508 865 l 322 486 l 217 486 l 466 981 l 554 981 l 796 486 "},"\f":{"x_min":-24,"x_max":400,"ha":376,"o":"m -24 824 l 46 855 l 184 791 l 400 868 l 276 776 l 166 736 l -24 824 "},"«":{"x_min":30.5625,"x_max":575.046875,"ha":607,"o":"m 575 123 l 536 87 l 254 361 l 537 626 l 575 589 l 333 361 l 575 123 m 351 124 l 309 88 l 30 361 l 315 629 l 352 591 l 109 361 l 351 124 "},"D":{"x_min":31.546875,"x_max":1018,"ha":1071,"o":"m 109 981 l 387 981 q 509 978 444 981 q 640 961 574 975 q 769 919 706 947 q 884 840 831 890 q 978 704 938 789 q 1018 504 1018 619 q 1003 379 1018 440 q 961 262 988 318 q 892 159 933 207 q 797 77 851 112 q 693 26 747 45 q 583 -2 640 7 q 469 -15 527 -12 q 351 -18 410 -18 q 199 -12 255 -18 q 109 -1 144 -6 l 130 39 q 141 64 138 54 q 144 97 144 75 q 144 329 144 236 q 144 489 144 422 q 144 606 144 556 q 147 711 145 657 q 149 803 148 768 q 150 861 149 838 q 151 899 151 883 q 151 934 151 914 l 31 929 l 109 981 m 288 331 q 287 251 286 291 q 291 171 288 211 q 297 120 292 147 q 327 72 303 93 q 387 44 346 57 q 495 31 428 31 q 653 60 584 31 q 771 143 723 90 q 843 266 818 195 q 869 421 869 338 q 857 548 869 484 q 821 669 845 612 q 793 727 810 697 q 753 785 777 757 q 696 838 728 812 q 620 885 663 864 q 550 910 586 900 q 482 925 514 920 q 420 933 449 931 q 373 935 392 935 q 327 934 345 935 q 298 929 309 932 l 290 655 l 288 331 "},"∙":{"x_min":78,"x_max":267,"ha":347,"o":"m 267 363 q 244 338 254 349 q 222 317 233 328 q 197 295 211 307 q 164 268 183 283 q 143 288 151 281 q 126 305 134 296 q 107 327 118 314 q 78 363 96 340 l 115 396 l 180 458 l 211 421 l 233 396 l 267 363 "},"ÿ":{"x_min":-63.890625,"x_max":627.828125,"ha":607,"o":"m 288 -367 l 122 -367 q 137 -351 130 -358 q 150 -333 144 -343 q 163 -310 156 -323 q 181 -275 170 -296 l 270 -87 q 285 -57 279 -69 q 295 -35 291 -44 q 304 -17 300 -26 q 312 2 308 -8 l 243 -19 q 200 96 223 30 q 156 222 177 161 q 120 329 136 283 q 100 388 104 376 q 73 470 83 440 q 56 520 63 501 q 45 553 50 540 q 34 583 40 566 l -63 583 l 22 629 l 191 629 q 178 600 180 606 q 176 587 176 594 q 184 549 176 574 q 197 509 191 524 q 217 447 208 477 q 236 385 226 416 l 312 158 q 327 115 320 133 q 341 76 333 98 l 398 212 q 436 308 418 260 q 475 405 455 356 q 508 496 494 456 q 531 583 522 537 l 402 583 l 484 629 l 627 629 q 613 611 619 617 q 604 599 608 605 q 596 584 600 592 q 587 562 593 576 q 544 448 562 495 q 511 362 526 401 q 481 287 495 323 q 449 206 468 251 q 406 103 430 162 q 347 -37 381 45 q 295 -161 320 -100 q 244 -285 270 -222 q 241 -295 243 -290 q 240 -306 240 -300 q 255 -325 240 -318 q 281 -331 263 -328 q 344 -338 298 -333 l 288 -367 m 451 734 q 428 759 437 748 q 411 779 419 769 q 395 802 404 790 q 374 833 387 815 q 404 856 393 847 q 426 873 416 865 q 446 891 436 882 q 472 914 456 900 q 493 886 484 897 q 509 866 501 875 q 525 845 516 857 q 550 818 534 834 q 523 793 534 802 q 502 775 512 783 q 479 757 491 766 q 451 734 468 747 m 156 733 q 131 757 141 746 q 113 777 121 767 q 96 798 105 787 q 76 828 88 810 q 103 851 92 841 q 125 869 114 860 q 146 888 135 878 q 171 912 156 898 q 194 884 185 895 q 212 863 203 873 q 230 843 220 853 q 252 819 239 833 q 226 793 237 803 q 205 773 216 783 q 184 755 195 764 q 156 733 173 745 "},"í":{"x_min":8.8125,"x_max":468,"ha":347,"o":"m 310 0 l 75 0 q 95 22 87 13 q 106 40 103 31 q 111 59 110 48 q 113 88 113 70 l 113 580 l 8 580 l 101 629 l 268 629 q 255 610 259 617 q 249 595 251 602 q 245 580 247 588 q 244 558 244 572 l 239 155 q 239 142 239 151 q 238 121 239 132 q 238 99 238 110 q 238 85 238 89 q 249 47 238 54 q 293 38 261 40 l 364 32 l 310 0 m 370 795 l 75 729 l 169 798 l 468 867 l 370 795 "},"ˆ":{"x_min":-24,"x_max":401,"ha":376,"o":"m 401 778 l 330 747 l 191 811 l -24 735 l 99 826 l 210 867 l 401 778 "},"w":{"x_min":-45.78125,"x_max":1067.25,"ha":1071,"o":"m 1067 629 q 1053 608 1058 616 q 1043 592 1047 599 q 1036 579 1039 585 q 1029 563 1033 573 q 1013 516 1021 537 q 999 476 1006 495 q 987 438 993 456 q 975 399 981 420 q 940 295 958 350 q 902 191 921 241 q 865 93 883 140 q 832 12 847 47 l 699 -22 q 685 11 692 -5 q 668 55 678 27 q 635 154 650 104 q 604 252 619 204 q 576 340 587 306 q 558 399 565 374 q 547 442 551 423 q 539 483 543 461 q 523 425 530 451 q 507 372 516 399 q 486 309 498 344 q 457 226 475 275 q 423 134 436 169 q 402 78 411 100 q 388 41 394 57 q 376 8 383 26 l 241 -22 q 138 282 187 134 q 47 575 88 430 l -45 575 l 51 629 l 211 629 q 195 594 198 602 q 191 580 191 587 q 196 546 191 567 q 207 500 201 524 q 221 452 213 476 q 233 412 229 429 l 280 262 l 347 61 q 368 117 355 84 q 390 173 380 150 l 436 313 q 446 349 438 323 q 463 404 454 375 q 479 459 472 433 q 490 497 487 486 q 498 527 495 515 q 503 547 501 538 q 507 563 505 555 q 511 581 508 570 l 416 581 l 505 629 l 665 629 q 648 590 651 601 q 645 569 645 580 q 645 559 645 563 q 647 548 646 555 q 649 539 647 544 q 653 524 650 534 q 661 495 656 513 q 676 445 667 476 l 717 311 q 737 248 728 279 q 757 186 746 218 q 772 139 765 157 q 783 107 778 120 q 793 84 789 94 q 804 61 797 73 q 823 105 815 86 q 838 143 831 123 q 853 185 845 162 q 872 244 861 208 l 893 312 q 915 383 904 348 q 936 454 925 418 q 956 528 949 501 q 968 581 963 555 l 839 581 l 925 629 l 1067 629 "},"$":{"x_min":32.21875,"x_max":699,"ha":753,"o":"m 413 -48 l 370 -148 l 364 -21 q 209 -5 296 -22 q 32 55 122 10 l 125 162 l 164 172 q 142 129 146 138 q 139 115 139 120 q 152 94 139 109 q 193 64 165 80 q 263 37 221 49 q 364 26 305 26 q 364 235 362 130 q 370 446 367 341 q 292 483 335 460 q 210 537 248 505 q 146 616 172 570 q 121 723 121 662 q 134 806 121 760 q 180 892 148 851 q 262 965 211 934 q 389 1004 314 995 l 390 1036 l 439 1104 l 437 1006 q 564 987 504 1003 q 637 961 610 975 q 687 933 664 947 l 593 830 l 557 823 q 571 849 565 840 q 579 864 576 858 q 583 873 582 869 q 584 879 584 876 q 574 898 584 885 q 545 925 564 911 q 499 949 526 939 q 435 960 471 960 q 431 848 431 903 l 425 719 q 424 687 425 705 q 423 649 423 668 q 421 612 422 630 q 421 582 421 594 l 503 539 q 575 496 541 518 q 642 433 610 473 q 683 363 668 401 q 699 276 699 325 q 678 174 699 225 q 615 79 658 123 q 559 35 587 51 q 503 7 531 18 q 453 -7 476 -2 q 413 -15 429 -12 l 413 -48 m 374 605 q 376 685 375 639 q 380 780 378 732 q 384 875 382 829 q 388 957 386 922 q 311 930 342 950 q 263 886 281 911 q 238 836 246 862 q 231 790 231 811 q 238 741 231 765 q 258 697 246 718 q 316 637 285 657 q 374 605 347 618 m 413 186 q 412 107 413 150 q 413 29 411 65 q 427 33 419 32 q 443 37 435 34 q 506 69 481 50 q 549 112 532 88 q 573 161 565 136 q 581 212 581 187 q 562 291 581 248 q 497 370 543 334 q 487 377 492 375 q 476 386 483 380 q 454 400 468 391 q 417 425 440 409 q 414 401 415 411 q 414 381 414 391 q 414 357 414 370 q 414 323 414 344 l 413 186 "},"\\":{"x_min":5.5625,"x_max":573.65625,"ha":579,"o":"m 481 24 q 466 58 476 35 q 442 110 455 81 q 413 174 429 140 q 380 245 397 209 q 328 358 354 302 q 275 470 302 413 l 204 615 q 162 700 183 658 q 119 784 141 743 q 97 827 113 797 q 63 893 81 858 q 29 959 45 927 q 5 1003 12 990 l 105 957 q 350 466 236 711 q 573 -17 465 222 l 481 24 "},"Ì":{"x_min":-66.671875,"x_max":443.96875,"ha":435,"o":"m 384 0 l 91 0 q 119 35 109 22 q 134 59 128 48 q 141 79 139 69 q 144 105 142 90 q 144 345 144 227 q 146 568 145 462 q 150 766 148 675 q 157 932 153 858 l 17 932 l 109 981 l 360 981 l 325 951 q 315 942 320 946 q 308 930 311 937 q 306 921 306 928 q 304 892 306 915 q 301 829 303 864 q 299 757 300 794 q 297 685 297 721 q 295 622 296 650 l 289 416 q 287 325 288 370 q 287 234 287 280 l 287 145 q 288 94 287 113 q 294 64 289 74 q 310 49 299 53 q 341 44 321 45 l 443 33 l 384 0 m 329 1048 l 27 1113 l -66 1184 l 231 1118 l 329 1048 "},"µ":{"x_min":-11.5625,"x_max":831.90625,"ha":781,"o":"m 266 629 q 248 603 255 613 q 238 580 241 592 q 233 552 234 568 q 232 509 232 536 l 230 390 q 230 228 228 293 q 238 162 232 190 q 259 114 243 134 q 318 78 282 87 q 380 69 353 69 q 473 87 432 69 q 537 121 513 106 q 538 362 537 249 q 543 582 540 476 l 437 582 l 520 629 l 706 629 q 690 607 697 616 q 680 587 684 598 q 674 562 676 577 q 672 524 673 548 l 669 324 q 668 273 669 309 q 668 206 668 238 q 671 124 668 158 q 686 69 674 90 q 720 37 698 47 q 779 28 741 28 q 805 28 793 28 q 831 31 818 29 l 781 0 q 719 -16 747 -11 q 669 -21 691 -21 q 604 -8 629 -21 q 565 19 580 3 q 545 51 551 35 q 537 76 540 68 q 524 67 533 74 q 504 53 515 60 q 483 39 492 46 q 469 29 473 32 q 392 -6 433 6 q 308 -19 352 -19 q 248 -9 266 -19 q 223 7 230 0 l 222 -258 q 222 -291 222 -279 q 228 -310 223 -304 q 242 -320 233 -316 q 270 -325 252 -323 q 300 -328 278 -326 q 335 -331 321 -330 l 286 -364 l 36 -364 q 66 -343 60 -348 q 75 -334 71 -339 q 81 -327 79 -330 q 86 -316 84 -323 q 88 -297 88 -309 q 91 -262 89 -284 q 92 -202 92 -236 q 92 -135 92 -169 q 93 -68 92 -101 q 94 -8 94 -34 l 98 287 q 98 392 98 348 q 100 469 99 436 q 103 529 102 502 q 106 582 105 555 l -11 582 l 80 629 l 266 629 "},"Ç":{"x_min":65,"x_max":972.390625,"ha":926,"o":"m 852 30 q 816 17 834 23 q 779 5 798 12 q 669 -16 716 -12 q 584 -21 622 -19 l 555 -79 q 563 -84 559 -82 q 572 -89 567 -86 q 612 -135 595 -105 q 629 -204 629 -165 q 617 -264 629 -232 q 581 -326 605 -296 q 555 -354 567 -343 q 530 -376 542 -365 l 441 -415 q 474 -387 456 -402 q 506 -353 491 -372 q 530 -312 520 -334 q 540 -264 540 -290 q 531 -219 540 -237 q 510 -189 523 -201 q 481 -168 497 -176 q 451 -154 465 -161 q 493 -87 473 -122 q 528 -17 513 -52 q 465 -8 505 -14 q 376 14 424 -3 q 235 97 294 45 q 139 212 177 149 q 83 345 101 276 q 65 480 65 414 q 101 669 65 576 q 207 837 138 763 q 375 955 276 910 q 598 1001 473 1001 q 777 976 690 1001 q 905 921 859 952 q 972 873 950 891 l 868 771 l 825 767 l 862 820 q 822 862 846 838 q 766 906 798 886 q 689 942 733 927 q 590 957 645 957 q 456 929 523 957 q 334 849 389 902 q 247 717 280 795 q 214 538 214 640 q 241 366 214 455 q 328 204 269 277 q 478 84 387 131 q 695 37 569 37 q 822 52 770 37 q 917 85 873 67 l 852 30 "},"’":{"x_min":50,"x_max":265,"ha":376,"o":"m 76 658 q 107 707 91 683 q 136 758 123 731 q 155 800 152 785 q 159 821 159 815 q 152 844 159 835 q 142 859 146 853 q 133 869 139 862 q 120 883 127 876 q 106 898 113 891 q 97 908 100 905 q 125 931 114 922 q 147 951 136 941 q 168 971 157 960 q 196 997 179 981 q 230 961 217 976 q 251 936 244 947 q 262 918 259 926 q 265 901 265 910 q 258 865 265 884 q 240 828 251 847 q 219 792 230 809 q 198 760 208 774 q 181 738 194 756 q 155 700 169 720 q 129 664 141 680 q 116 648 117 648 l 50 617 l 76 658 "},"-":{"x_min":34.71875,"x_max":515.3125,"ha":550,"o":"m 411 334 l 34 334 l 138 392 l 515 392 l 411 334 "},"Q":{"x_min":53,"x_max":1374.09375,"ha":1245,"o":"m 972 55 q 1003 50 989 53 q 1031 41 1017 48 q 1063 23 1046 35 q 1104 -8 1081 11 q 1174 -74 1140 -40 q 1242 -143 1207 -108 q 1292 -189 1265 -167 q 1347 -225 1319 -211 q 1360 -230 1354 -228 q 1374 -235 1367 -232 l 1212 -235 q 1167 -229 1186 -235 q 1126 -206 1149 -224 q 1073 -157 1104 -189 q 992 -74 1042 -125 l 951 -32 q 906 2 933 -17 q 842 23 878 23 l 837 23 q 743 -5 800 9 q 600 -21 686 -19 q 371 20 472 -21 q 198 132 269 62 q 90 293 128 202 q 53 480 53 383 q 93 681 53 586 q 210 848 134 776 q 393 961 286 919 q 630 1003 500 1003 q 855 961 757 1003 q 1022 850 954 919 q 1126 692 1090 781 q 1163 508 1163 602 q 1125 317 1163 406 q 1070 213 1101 257 q 1008 137 1039 168 q 948 86 976 106 q 903 55 919 66 l 972 55 m 642 28 q 796 63 726 28 q 914 157 865 98 q 989 293 963 216 q 1016 455 1016 370 q 982 643 1016 552 q 890 803 949 733 q 753 914 832 872 q 583 956 674 956 q 438 927 510 956 q 315 846 366 898 q 234 718 266 796 q 203 537 203 640 q 234 350 203 441 q 324 187 266 259 q 462 72 382 116 q 642 28 543 28 "},"M":{"x_min":33.53125,"x_max":1451.78125,"ha":1448,"o":"m 1307 443 q 1320 319 1315 365 q 1328 245 1325 273 q 1333 200 1330 217 q 1339 165 1336 183 q 1365 77 1346 119 q 1435 12 1385 35 q 1443 9 1439 10 q 1451 6 1447 8 q 1437 3 1444 4 q 1422 0 1429 1 q 1389 -4 1405 -2 q 1357 -7 1374 -7 q 1315 -2 1336 -7 q 1275 12 1294 1 q 1236 42 1251 24 q 1212 78 1221 59 q 1200 115 1204 97 q 1194 149 1196 134 q 1182 231 1187 190 q 1173 312 1178 272 q 1151 567 1161 440 q 1135 822 1141 694 l 1047 647 q 1017 584 1030 611 q 991 532 1004 558 q 964 476 979 505 q 930 405 950 447 l 766 43 l 775 19 l 637 -15 l 423 448 q 380 540 401 494 q 334 630 358 586 q 316 667 329 640 q 287 725 302 694 q 257 783 271 755 q 237 822 243 811 l 198 375 q 194 326 196 345 q 191 290 193 306 q 189 259 190 274 q 186 219 187 243 q 183 176 184 202 q 182 127 182 149 q 186 82 182 98 q 198 58 190 66 q 217 47 205 49 q 244 43 229 44 l 322 34 l 261 0 l 54 0 q 84 40 73 23 q 103 78 96 56 q 116 132 111 100 q 126 220 121 165 l 158 538 q 165 620 161 579 q 172 701 169 661 q 175 738 172 709 q 180 798 177 766 q 184 857 182 830 q 186 886 186 883 q 178 919 186 912 q 159 929 171 926 q 151 931 155 930 q 134 932 147 932 q 98 932 122 932 q 33 932 75 932 l 123 981 l 322 981 q 412 805 371 887 q 489 650 454 722 q 569 476 529 561 q 612 385 590 430 q 654 294 633 340 q 670 258 658 285 q 696 202 682 232 q 721 146 709 172 q 739 108 733 119 q 812 268 779 197 q 871 396 844 339 q 922 505 898 454 q 970 605 946 555 q 1021 707 994 654 q 1079 823 1047 759 l 1098 868 q 1107 886 1103 876 q 1111 907 1111 897 q 1094 931 1111 926 q 1054 936 1076 936 q 1010 934 1036 936 q 965 933 984 933 l 1069 982 l 1325 982 q 1304 966 1318 976 q 1283 948 1290 955 q 1275 937 1276 943 q 1274 916 1274 932 q 1274 898 1274 907 q 1275 866 1274 888 q 1279 802 1276 844 q 1287 683 1282 759 l 1307 443 "},"C":{"x_min":65,"x_max":973.78125,"ha":926,"o":"m 852 30 q 816 17 834 23 q 779 5 798 10 q 697 -13 743 -5 q 593 -21 651 -21 q 346 27 447 -21 q 183 150 245 76 q 92 312 120 224 q 65 480 65 401 q 101 669 65 576 q 207 837 138 763 q 375 955 276 910 q 598 1001 473 1001 q 777 976 690 1001 q 905 922 861 952 q 973 873 950 892 l 869 771 l 825 767 l 862 820 q 822 862 846 838 q 766 906 798 886 q 689 942 733 927 q 590 957 645 957 q 456 929 523 957 q 334 849 389 902 q 247 717 280 795 q 214 538 214 640 q 241 366 214 455 q 328 204 269 277 q 478 84 387 131 q 695 37 569 37 q 823 52 770 37 q 919 85 875 67 l 852 30 "},"œ":{"x_min":44,"x_max":1158.359375,"ha":1128,"o":"m 1088 33 q 1053 17 1070 25 q 1016 2 1036 9 q 901 -18 962 -18 q 806 -2 847 -18 q 736 33 765 12 q 688 75 706 54 q 662 108 670 95 q 545 16 609 54 q 384 -21 481 -21 q 234 8 298 -21 q 128 86 170 38 q 64 193 85 134 q 44 309 44 252 q 71 443 44 381 q 148 550 99 505 q 262 621 196 595 q 404 647 329 647 q 541 620 476 647 q 621 572 595 598 q 662 525 647 546 q 702 568 673 540 q 779 619 730 596 q 911 649 841 649 q 1001 633 962 649 q 1068 591 1040 617 q 1113 534 1095 566 q 1140 472 1130 502 l 825 338 l 725 330 q 737 278 730 304 q 759 217 744 252 q 867 90 801 130 q 1000 51 933 51 q 1090 67 1052 51 q 1158 98 1129 83 l 1088 33 m 725 337 q 844 393 784 365 q 965 447 904 421 q 990 462 980 454 q 1000 485 1000 469 q 991 519 1000 499 q 966 558 983 539 q 925 591 950 577 q 869 605 901 605 q 825 596 851 605 q 775 566 800 588 q 734 505 751 543 q 718 407 718 467 q 720 372 718 387 q 725 337 722 357 m 599 244 q 594 306 599 269 q 579 382 590 342 q 550 462 568 422 q 507 534 533 502 q 446 585 482 566 q 365 605 410 605 q 291 589 328 605 q 231 547 255 573 q 200 505 211 528 q 184 461 189 482 q 178 420 179 439 q 177 388 177 400 q 182 316 177 356 q 199 235 188 276 q 230 156 211 194 q 276 87 249 118 q 337 39 303 57 q 416 21 371 21 q 452 25 422 21 q 514 50 482 29 q 572 116 546 71 q 599 244 599 161 "},"!":{"x_min":118.0625,"x_max":318.109375,"ha":406,"o":"m 295 534 q 292 474 293 499 q 290 429 290 449 q 288 388 289 408 q 288 344 288 367 l 237 331 l 160 309 q 160 412 160 369 q 161 496 160 455 q 163 581 162 537 q 167 686 164 624 q 168 728 167 702 q 171 784 169 754 q 173 848 172 815 q 178 913 175 882 l 318 989 q 317 943 318 963 q 315 898 316 922 q 311 843 313 875 q 307 769 309 812 l 295 534 m 306 77 q 282 51 293 62 q 261 30 272 41 q 236 9 250 20 q 202 -17 222 -1 q 179 6 188 -3 q 161 26 170 16 q 142 49 152 37 q 118 81 131 62 l 195 149 l 222 174 l 248 139 l 306 77 "},"ç":{"x_min":44,"x_max":608.625,"ha":550,"o":"m 535 32 q 512 21 523 26 q 490 11 501 16 q 428 -8 455 -3 q 386 -15 400 -12 l 354 -79 q 362 -84 358 -81 q 371 -90 366 -87 q 411 -136 394 -106 q 428 -204 428 -165 q 416 -264 428 -233 q 380 -327 404 -295 q 354 -355 366 -344 q 329 -377 341 -366 l 240 -416 q 272 -388 255 -404 q 304 -353 290 -372 q 329 -313 319 -334 q 339 -265 339 -291 q 330 -220 339 -238 q 309 -190 322 -202 q 279 -170 295 -177 q 250 -155 263 -162 q 304 -66 288 -98 q 326 -18 319 -34 q 274 -11 302 -15 q 209 9 245 -6 q 129 70 160 33 q 78 147 98 106 q 51 229 59 188 q 44 304 44 270 q 64 420 44 359 q 130 531 84 480 q 253 614 177 581 q 439 647 329 647 q 521 641 489 647 q 582 629 554 635 l 472 517 l 414 497 l 464 563 q 421 582 448 571 q 351 594 394 594 q 285 582 319 594 q 225 544 252 570 q 180 476 197 517 q 163 376 163 435 q 179 266 163 322 q 227 162 195 209 q 312 85 260 115 q 435 56 363 56 q 533 72 493 56 q 608 108 573 89 l 535 32 "},"È":{"x_min":10.046875,"x_max":781.109375,"ha":724,"o":"m 654 0 l 92 0 q 119 32 108 19 q 134 58 129 45 q 140 86 139 70 q 142 123 142 101 q 145 527 142 326 q 158 932 148 729 l 10 932 l 110 981 l 688 981 l 599 899 l 563 889 q 575 907 568 896 q 582 920 582 918 q 569 929 582 927 q 540 931 560 930 q 497 932 521 932 q 448 932 474 932 q 400 932 422 932 l 301 932 l 288 543 l 608 543 l 528 466 l 490 455 q 504 479 501 475 q 507 486 507 483 q 502 494 507 493 q 492 496 497 496 l 329 496 q 297 489 308 496 q 288 455 286 482 l 288 138 q 289 96 288 113 q 300 70 290 80 q 328 55 308 60 q 372 47 349 49 q 418 44 396 45 q 454 44 440 44 q 519 45 486 44 q 583 52 551 46 q 657 69 632 59 q 706 89 682 78 l 781 114 l 654 0 m 531 1048 l 230 1113 l 136 1184 l 434 1118 l 531 1048 "},"{":{"x_min":101.765625,"x_max":451.890625,"ha":492,"o":"m 101 501 q 156 518 136 505 q 185 550 176 530 q 196 597 194 571 q 199 657 199 623 l 199 776 q 201 839 200 817 q 210 882 203 861 q 258 942 225 919 q 332 974 292 965 q 349 976 340 975 q 369 978 357 976 q 401 980 382 979 q 451 982 421 980 l 451 961 q 409 952 428 956 q 374 940 390 948 q 339 915 351 929 q 321 883 326 901 q 314 845 315 866 q 313 797 313 823 l 313 715 q 310 617 313 648 q 300 565 308 586 q 252 509 283 523 q 193 490 221 495 q 249 471 217 484 q 299 422 281 458 q 310 369 308 400 q 314 277 313 338 l 314 184 q 315 135 314 156 q 325 94 316 113 q 377 42 343 55 q 451 20 412 29 l 451 0 q 328 9 376 2 q 245 47 280 16 q 206 110 212 75 q 200 191 201 145 l 200 316 q 200 353 200 339 q 199 377 200 368 q 197 394 199 387 q 194 408 196 401 q 177 442 187 429 q 153 464 167 455 q 127 475 140 472 q 101 482 114 479 l 101 501 "},"X":{"x_min":-34.71875,"x_max":1037.578125,"ha":983,"o":"m 727 321 q 811 214 773 262 q 884 128 848 167 q 956 54 919 88 q 1037 -11 993 20 q 1008 -20 1022 -17 q 970 -24 994 -24 q 868 -3 915 -24 q 782 48 822 16 q 709 119 743 80 q 645 196 676 159 l 615 237 q 577 290 594 266 q 544 336 561 313 q 509 385 527 359 q 465 449 490 412 l 261 189 q 225 141 241 164 q 197 98 208 118 q 187 72 187 83 q 193 55 187 61 q 208 46 200 48 q 226 42 216 43 q 243 42 236 42 q 296 39 270 40 q 348 36 322 39 l 287 0 l -9 0 q 28 21 12 12 q 61 44 44 30 q 117 100 83 62 q 188 184 151 138 q 262 275 226 229 q 326 357 298 320 l 430 496 l 293 678 q 244 744 269 711 q 194 810 219 778 q 161 853 175 836 q 138 884 148 871 q 119 908 127 897 q 101 931 111 918 l -34 922 l 56 982 l 333 982 q 311 957 322 970 q 301 927 301 944 q 309 896 301 911 q 325 870 316 881 l 516 604 l 577 687 q 653 792 625 753 q 699 857 682 832 q 727 899 716 882 q 750 937 737 916 l 577 931 l 661 982 l 888 982 q 841 934 859 952 q 805 897 822 916 q 768 852 788 877 q 712 781 747 826 l 548 560 l 727 321 "},"ô":{"x_min":44,"x_max":737,"ha":781,"o":"m 737 319 q 713 197 737 258 q 645 89 689 137 q 534 11 600 41 q 383 -18 468 -18 q 236 11 300 -18 q 130 87 173 40 q 66 193 88 134 q 44 309 44 251 q 70 438 44 377 q 144 546 96 499 q 258 619 192 592 q 404 647 325 647 q 542 619 480 647 q 647 545 604 591 q 714 440 691 499 q 737 319 737 381 m 415 24 q 494 42 455 24 q 557 94 533 61 q 590 168 582 128 q 599 248 599 208 q 587 355 599 294 q 548 472 575 416 q 476 565 521 527 q 368 604 432 604 q 300 591 333 604 q 242 556 268 579 q 190 476 202 520 q 179 387 179 431 q 192 273 179 336 q 233 154 205 209 q 307 61 262 98 q 415 24 352 24 m 591 778 l 520 747 l 381 811 l 166 735 l 289 826 l 400 867 l 591 778 "},"¼":{"x_min":72.125,"x_max":1096.015625,"ha":1100,"o":"m 1050 31 l 1008 0 l 864 0 q 875 20 871 12 q 881 33 879 27 q 885 45 883 40 q 886 61 886 51 l 888 183 q 851 183 878 183 q 789 184 825 184 q 714 183 754 184 q 641 182 675 183 q 691 269 672 236 q 723 326 709 302 q 750 370 737 349 q 779 417 762 390 q 837 513 808 466 q 898 606 866 559 l 983 624 q 981 598 982 610 q 980 570 980 585 q 978 533 979 555 q 976 480 977 512 l 971 253 l 1008 253 q 1052 254 1030 253 q 1096 255 1073 255 l 998 179 q 982 181 989 181 q 970 182 976 181 l 970 71 q 972 42 970 47 q 995 35 975 37 l 1050 31 m 896 533 q 848 455 868 487 q 811 394 829 423 q 776 333 794 365 q 733 256 758 301 l 887 256 l 896 533 m 79 856 q 147 897 120 881 q 196 928 173 913 q 246 961 219 942 q 318 1011 273 980 l 305 970 q 300 947 302 956 q 298 920 298 938 l 287 437 q 292 411 287 416 q 319 404 298 406 l 380 398 l 329 368 l 165 368 q 187 397 183 390 q 193 422 191 405 l 199 812 q 200 846 199 833 q 201 866 201 859 q 201 877 201 873 q 201 885 201 881 l 152 855 l 72 837 l 79 856 m 926 997 q 887 944 905 970 q 847 890 868 919 q 803 827 826 860 q 753 752 780 794 q 675 637 712 694 q 600 522 637 580 q 517 393 558 456 q 434 265 476 330 q 369 163 394 202 q 327 98 344 124 q 297 50 311 72 q 266 0 284 29 l 198 -17 q 208 1 204 -7 q 219 17 213 9 q 297 143 259 80 q 375 269 336 206 q 483 439 422 345 q 609 630 544 533 q 736 819 673 727 q 850 983 798 910 l 926 997 "},"#":{"x_min":1.390625,"x_max":809.78125,"ha":810,"o":"m 782 358 l 538 358 l 491 0 l 406 0 l 456 358 l 316 358 l 263 0 l 184 0 l 233 358 l 1 358 l 1 434 l 243 434 l 262 570 l 30 570 l 30 649 l 273 649 l 318 981 l 401 981 l 355 649 l 494 649 l 538 981 l 622 981 l 577 649 l 809 649 l 809 570 l 566 570 l 548 434 l 782 434 l 782 358 m 466 434 l 484 570 l 344 570 l 326 434 l 466 434 "},"Ê":{"x_min":10.046875,"x_max":781.109375,"ha":724,"o":"m 654 0 l 92 0 q 119 32 108 19 q 134 58 129 45 q 140 86 139 70 q 142 123 142 101 q 145 527 142 326 q 158 932 148 729 l 10 932 l 110 981 l 688 981 l 599 899 l 563 889 q 575 907 568 896 q 582 920 582 918 q 569 929 582 927 q 540 931 560 930 q 497 932 521 932 q 448 932 474 932 q 400 932 422 932 l 301 932 l 288 543 l 608 543 l 528 466 l 490 455 q 504 479 501 475 q 507 486 507 483 q 502 494 507 493 q 492 496 497 496 l 329 496 q 297 489 308 496 q 288 455 286 482 l 288 138 q 289 96 288 113 q 300 70 290 80 q 328 55 308 60 q 372 47 349 49 q 418 44 396 45 q 454 44 440 44 q 519 45 486 44 q 583 52 551 46 q 657 69 632 59 q 706 89 682 78 l 781 114 l 654 0 m 590 1097 l 519 1065 l 380 1130 l 165 1052 l 289 1145 l 400 1186 l 590 1097 "},")":{"x_min":11.375,"x_max":341,"ha":435,"o":"m 11 1000 q 64 972 36 988 q 153 906 104 948 q 243 803 201 863 q 313 663 285 743 q 341 487 341 584 q 336 415 341 455 q 317 329 331 375 q 258 194 296 254 q 162 79 221 134 q 78 13 114 33 q 11 -22 43 -6 q 59 36 34 4 q 116 125 85 68 q 210 487 210 294 q 192 648 210 573 q 148 784 175 723 q 93 890 122 844 q 41 963 64 936 q 27 981 34 973 q 11 1000 19 990 "},"\u001c":{"x_min":11.65625,"x_max":813.265625,"ha":753,"o":"m 685 0 l 93 0 q 118 26 108 15 q 134 49 128 37 q 142 75 140 61 q 145 112 145 90 l 145 371 l 11 255 l 32 336 l 145 436 q 147 530 146 490 q 148 604 147 571 q 150 666 149 638 q 153 724 151 695 q 157 814 154 768 q 161 904 159 860 q 161 917 161 911 q 162 930 161 923 l 27 930 l 122 981 l 359 981 l 329 950 q 311 930 316 939 q 302 908 305 922 q 299 864 301 901 q 295 784 297 828 q 293 702 294 740 q 293 653 293 664 l 291 566 l 543 783 l 522 701 l 291 498 l 292 454 q 291 386 292 423 q 290 309 290 348 q 289 233 290 270 q 289 165 289 195 q 289 132 289 144 q 291 109 289 120 q 294 90 292 102 q 304 68 296 77 q 333 53 313 58 q 377 46 353 48 q 423 43 400 44 q 460 43 446 43 q 529 44 495 43 q 596 49 563 46 q 647 55 627 51 q 684 64 668 58 q 713 76 700 69 q 739 89 725 82 l 813 114 l 685 0 "},"Å":{"x_min":18.859375,"x_max":1092.109375,"ha":1042,"o":"m 370 971 l 564 985 q 585 937 569 972 q 619 864 601 903 q 653 792 637 826 q 674 748 669 758 q 698 692 685 723 q 726 627 711 661 q 753 563 740 594 q 778 507 767 532 l 832 383 q 907 229 875 290 q 967 126 939 168 q 1024 56 994 84 q 1092 0 1053 27 q 1044 -10 1065 -7 q 1000 -14 1024 -14 q 946 -6 972 -14 q 889 20 921 1 q 840 61 861 38 q 801 110 818 84 q 771 165 785 137 q 743 225 757 193 l 661 417 q 627 407 642 411 q 601 399 612 403 q 577 391 589 395 q 551 381 565 386 l 331 381 q 298 376 307 381 q 277 360 288 372 l 156 136 q 150 120 153 129 q 146 104 146 112 q 166 77 146 86 q 237 51 193 61 q 314 36 281 41 l 198 0 q 82 11 120 -2 q 18 41 43 26 q 69 109 45 76 q 118 182 93 141 q 173 276 143 222 q 239 408 202 331 l 291 517 q 325 586 313 560 q 349 636 338 613 q 372 688 360 660 q 405 763 384 716 q 420 799 414 784 q 431 825 427 813 q 440 848 436 837 q 449 874 444 859 q 421 910 439 897 q 380 929 403 923 q 332 936 357 936 q 281 936 306 937 l 370 971 m 569 430 q 619 433 602 433 q 655 436 636 434 q 618 525 643 469 q 568 639 594 581 q 519 745 542 697 q 486 815 495 794 q 441 711 459 754 q 404 626 423 669 q 367 551 386 588 q 330 475 348 513 q 320 453 324 464 q 311 431 315 442 l 569 430 m 521 1227 q 565 1217 546 1227 q 597 1192 583 1207 q 616 1158 610 1176 q 623 1122 623 1139 q 593 1051 623 1082 q 518 1020 564 1020 q 444 1051 473 1020 q 415 1121 415 1082 q 443 1194 415 1161 q 521 1227 472 1227 m 590 1124 q 571 1172 590 1150 q 519 1195 552 1195 q 467 1172 487 1195 q 448 1124 448 1149 q 468 1074 448 1096 q 519 1052 488 1052 q 569 1073 549 1052 q 590 1124 590 1095 "},"ø":{"x_min":33.125,"x_max":746.5,"ha":781,"o":"m 653 537 q 734 315 734 443 q 706 182 734 244 q 633 75 679 120 q 521 4 586 30 q 382 -21 457 -21 q 254 0 304 -21 q 158 58 205 22 l 106 9 l 33 0 l 124 91 q 67 194 88 138 q 47 311 47 249 q 74 441 47 380 q 150 548 102 502 q 263 620 198 594 q 405 647 329 647 q 518 629 465 647 q 580 599 558 615 q 618 570 601 584 l 672 620 l 746 632 l 653 537 m 534 490 q 506 535 523 511 q 454 580 490 559 q 368 603 412 603 q 290 585 329 603 q 227 540 252 568 q 189 466 200 508 q 178 380 178 425 q 192 265 178 315 q 220 183 207 216 l 534 490 m 242 138 q 270 95 253 120 q 321 48 287 70 q 366 28 342 36 q 417 21 390 21 q 494 39 457 21 q 557 89 532 57 q 583 132 574 109 q 597 177 593 155 q 602 216 601 198 q 603 245 603 234 q 586 367 603 319 q 557 444 570 416 l 242 138 "},"â":{"x_min":19,"x_max":631.71875,"ha":607,"o":"m 499 300 q 531 196 516 243 q 563 107 545 150 q 599 32 583 55 q 631 -11 615 9 q 610 -13 620 -12 q 591 -15 601 -15 q 546 -8 567 -15 q 505 9 526 -1 q 453 53 470 29 q 427 97 437 77 l 362 33 q 300 2 342 21 q 191 -17 258 -17 q 115 -5 148 -17 q 61 26 83 6 q 29 72 39 46 q 19 127 19 98 q 55 233 19 187 q 142 311 91 279 q 246 365 192 344 q 334 398 299 386 l 313 459 q 278 535 295 508 q 237 576 260 562 q 183 591 215 589 q 103 592 151 593 l 205 635 q 295 631 251 635 q 373 605 340 628 q 404 575 391 593 q 428 534 417 558 q 449 476 438 509 q 471 398 459 443 l 499 300 m 362 305 q 349 344 355 333 q 330 356 344 356 q 290 343 319 356 q 231 307 262 330 q 177 251 201 285 q 154 175 154 218 q 166 122 154 144 q 198 87 179 101 q 241 67 217 73 q 287 61 265 61 q 372 81 341 61 q 417 116 404 102 q 406 150 410 137 q 397 178 401 163 q 388 211 392 193 q 374 258 383 229 l 362 305 m 489 778 l 418 747 l 279 811 l 64 735 l 187 826 l 298 867 l 489 778 "},"}":{"x_min":44.109375,"x_max":394.21875,"ha":492,"o":"m 394 480 q 338 463 358 476 q 310 431 319 451 q 299 384 301 410 q 297 324 297 358 l 297 205 q 294 142 295 163 q 285 99 292 120 q 237 39 270 62 q 163 8 203 16 q 146 5 155 6 q 126 3 138 4 q 94 2 113 2 q 44 0 74 1 l 44 21 q 86 29 67 25 q 121 41 105 33 q 156 66 144 52 q 174 98 169 80 q 181 136 180 115 q 183 184 183 158 l 183 266 q 183 323 183 300 q 185 363 184 347 q 188 393 185 380 q 195 416 191 405 q 216 450 203 437 q 243 471 228 463 q 273 483 258 479 q 302 490 288 487 q 246 510 278 497 q 196 559 214 523 q 184 612 185 581 q 182 704 183 643 l 182 797 q 180 846 182 825 q 170 887 179 868 q 118 939 152 926 q 44 961 83 952 l 44 982 q 167 972 119 979 q 250 934 215 965 q 289 871 283 906 q 296 790 294 836 l 296 665 q 296 627 296 641 q 296 604 296 613 q 297 587 297 594 q 301 573 298 580 q 317 539 306 552 q 342 517 328 526 q 368 506 355 509 q 394 499 381 502 l 394 480 "},"‰":{"x_min":30,"x_max":1530,"ha":1562,"o":"m 432 715 q 400 517 432 598 q 370 457 387 485 q 329 406 352 428 q 278 371 306 384 q 217 358 251 358 q 134 381 169 358 q 75 444 99 405 q 41 536 52 484 q 30 645 30 588 q 47 784 30 720 q 94 894 64 848 q 165 966 124 940 q 255 992 206 992 q 381 924 331 992 q 432 715 432 857 m 356 613 q 353 659 356 634 q 349 710 351 684 q 342 759 346 735 q 332 801 337 783 q 316 849 326 824 q 292 893 307 873 q 259 926 277 913 q 218 939 240 939 q 160 917 183 939 q 126 863 137 895 q 112 802 116 836 q 108 735 108 767 q 117 621 108 678 q 143 516 126 563 q 187 441 160 470 q 250 412 213 412 q 282 419 264 412 q 316 448 300 427 q 344 510 333 470 q 356 613 356 549 m 1068 347 q 1036 149 1068 230 q 1006 89 1023 117 q 965 38 988 60 q 915 3 943 16 q 854 -10 887 -10 q 770 13 805 -10 q 713 76 736 37 q 679 168 690 116 q 668 277 668 220 q 685 416 668 352 q 732 526 702 480 q 803 598 762 572 q 893 624 844 624 q 1018 556 968 624 q 1068 347 1068 489 m 992 245 q 990 291 992 266 q 985 342 989 316 q 978 391 982 367 q 969 433 973 415 q 953 481 962 456 q 929 525 943 505 q 896 558 915 545 q 855 571 878 571 q 798 549 821 571 q 764 495 775 527 q 750 434 754 468 q 746 368 746 399 q 755 253 746 310 q 781 148 764 195 q 825 73 798 102 q 886 44 851 44 q 918 51 900 44 q 953 80 936 59 q 980 142 969 102 q 992 245 992 181 m 1530 347 q 1498 149 1530 230 q 1468 89 1485 117 q 1428 38 1451 60 q 1377 3 1405 16 q 1316 -10 1349 -10 q 1233 13 1268 -10 q 1176 76 1198 37 q 1142 168 1153 116 q 1131 277 1131 220 q 1148 416 1131 352 q 1195 526 1165 480 q 1266 598 1225 572 q 1355 624 1306 624 q 1480 556 1430 624 q 1530 347 1530 489 m 1454 245 q 1452 291 1454 266 q 1447 342 1451 316 q 1440 391 1444 367 q 1431 433 1436 415 q 1415 481 1424 456 q 1391 525 1405 505 q 1359 558 1377 545 q 1318 571 1340 571 q 1260 549 1283 571 q 1227 495 1238 527 q 1213 434 1217 468 q 1209 368 1209 399 q 1218 253 1209 310 q 1244 148 1227 195 q 1287 73 1261 102 q 1348 44 1314 44 q 1380 51 1362 44 q 1415 80 1398 59 q 1442 142 1431 102 q 1454 245 1454 181 m 927 999 q 886 946 906 972 q 846 890 867 919 q 802 828 825 861 q 752 753 780 794 q 675 639 713 696 q 599 523 636 582 q 516 394 557 458 q 434 265 475 330 q 368 164 393 202 q 327 99 343 126 q 297 50 310 72 q 266 0 284 29 l 198 -15 q 208 1 203 -6 q 218 19 213 10 q 297 144 259 82 q 374 269 335 207 q 482 440 421 346 q 608 631 543 535 q 735 820 673 728 q 849 985 798 912 l 927 999 "},"Ä":{"x_min":19.453125,"x_max":1093.140625,"ha":1042,"o":"m 370 971 l 565 985 q 586 937 570 972 q 620 864 602 903 q 654 792 638 826 q 675 748 670 758 q 699 692 686 723 q 727 627 712 661 q 754 563 741 594 q 779 507 768 532 l 833 383 q 908 229 876 290 q 968 126 940 168 q 1025 56 995 84 q 1093 0 1054 27 q 1045 -10 1066 -7 q 1001 -14 1025 -14 q 947 -6 973 -14 q 890 20 922 1 q 841 61 862 38 q 802 110 819 84 q 772 165 786 137 q 744 225 758 193 l 662 417 q 628 407 643 411 q 602 399 613 403 q 578 391 590 395 q 552 381 566 386 l 331 381 q 298 376 308 381 q 277 360 288 372 l 156 136 q 150 120 154 129 q 147 104 147 112 q 166 77 147 86 q 238 51 194 61 q 315 36 281 41 l 198 0 q 82 11 120 -2 q 19 41 44 26 q 70 109 45 76 q 119 182 94 141 q 173 276 144 222 q 240 408 202 331 l 291 517 q 326 586 313 560 q 350 636 338 613 q 372 688 361 660 q 405 763 384 716 q 421 799 415 784 q 432 825 427 813 q 441 848 437 837 q 450 874 445 859 q 422 910 440 897 q 381 929 404 923 q 332 936 358 936 q 281 936 306 937 l 370 971 m 569 430 q 619 433 602 433 q 655 436 636 434 q 618 525 643 469 q 568 639 594 581 q 519 745 543 697 q 486 815 495 794 q 441 711 459 754 q 404 626 423 669 q 367 551 386 588 q 330 475 348 513 q 320 453 325 464 q 311 431 315 442 l 569 430 m 657 1054 q 634 1078 643 1068 q 617 1099 625 1088 q 601 1121 609 1109 q 580 1152 593 1133 q 610 1175 598 1166 q 631 1193 622 1184 q 652 1210 641 1201 q 677 1232 662 1219 q 698 1204 690 1215 q 714 1185 707 1194 q 731 1165 722 1176 q 755 1137 740 1154 q 729 1112 740 1122 q 707 1093 718 1102 q 685 1075 697 1084 q 657 1054 673 1066 m 362 1052 q 337 1077 347 1066 q 319 1097 327 1087 q 302 1118 311 1107 q 281 1147 294 1130 q 309 1170 298 1161 q 331 1189 320 1180 q 352 1208 341 1198 q 377 1232 362 1218 q 400 1204 391 1215 q 418 1182 409 1193 q 436 1161 426 1172 q 458 1137 445 1151 q 432 1111 443 1122 q 411 1093 422 1101 q 390 1075 401 1084 q 362 1052 379 1065 "},"¸":{"x_min":94.375,"x_max":282,"ha":376,"o":"m 208 -78 q 225 -88 219 -84 q 265 -134 248 -105 q 282 -202 282 -164 q 270 -263 282 -231 q 234 -326 258 -295 q 223 -338 230 -330 q 208 -354 216 -346 q 193 -368 199 -362 q 183 -376 186 -374 l 94 -415 q 127 -387 109 -402 q 158 -353 144 -371 q 183 -312 173 -334 q 193 -263 193 -289 q 184 -219 193 -237 q 163 -188 176 -201 q 133 -168 149 -175 q 104 -153 117 -160 q 131 -112 119 -131 q 153 -73 142 -92 q 174 -34 163 -55 q 197 13 184 -13 l 254 13 l 208 -78 "},"a":{"x_min":19,"x_max":631.71875,"ha":607,"o":"m 499 300 q 531 196 516 243 q 563 107 545 150 q 599 32 583 55 q 631 -11 615 9 q 610 -13 620 -12 q 591 -15 601 -15 q 546 -8 567 -15 q 505 9 526 -1 q 453 53 470 29 q 427 97 437 77 l 362 33 q 300 2 342 21 q 191 -17 258 -17 q 115 -5 148 -17 q 61 26 83 6 q 29 72 39 46 q 19 127 19 98 q 55 233 19 187 q 142 311 91 279 q 246 365 192 344 q 334 398 299 386 l 313 459 q 278 535 295 508 q 237 576 260 562 q 183 591 215 589 q 103 592 151 593 l 205 635 q 295 631 251 635 q 373 605 340 628 q 404 575 391 593 q 428 534 417 558 q 449 476 438 509 q 471 398 459 443 l 499 300 m 362 305 q 349 344 355 333 q 330 356 344 356 q 290 343 319 356 q 231 307 262 330 q 177 251 201 285 q 154 175 154 218 q 166 122 154 144 q 198 87 179 101 q 241 67 217 73 q 287 61 265 61 q 372 81 341 61 q 417 116 404 102 q 406 150 410 137 q 397 178 401 163 q 388 211 392 193 q 374 258 383 229 l 362 305 "},"—":{"x_min":16.671875,"x_max":880.625,"ha":897,"o":"m 780 334 l 16 334 l 122 392 l 880 392 l 780 334 "},"=":{"x_min":0,"x_max":694.5,"ha":695,"o":"m 694 240 l 0 240 l 0 322 l 694 322 l 694 240 m 694 485 l 0 485 l 0 567 l 694 567 l 694 485 "},"N":{"x_min":-11.390625,"x_max":1164.453125,"ha":1245,"o":"m 1139 34 q 1074 7 1101 19 q 1004 -22 1047 -3 q 847 156 914 80 q 755 259 780 232 q 711 307 741 273 q 639 385 680 340 q 549 482 598 430 q 450 586 500 534 q 353 688 401 639 q 268 775 305 737 q 238 803 250 793 q 220 820 227 813 q 209 832 213 827 q 200 841 205 836 l 200 502 q 201 305 200 402 q 206 108 203 208 q 210 73 207 86 q 226 52 212 60 q 267 41 239 44 q 348 35 295 37 l 295 0 l 85 0 l 117 31 q 133 51 128 43 q 140 83 137 59 q 140 115 140 88 q 142 175 141 143 q 143 238 142 208 q 144 284 144 269 l 144 484 q 144 578 144 531 q 143 670 144 624 q 140 783 141 741 q 140 858 140 826 q 124 921 140 906 q 67 936 108 936 q 28 934 48 936 q -11 930 8 933 l 85 982 l 259 982 q 312 932 285 957 q 365 882 338 907 q 445 799 392 852 q 562 677 498 745 q 699 532 627 609 q 838 382 770 455 q 962 245 905 309 q 1054 137 1019 180 l 1061 473 q 1062 649 1062 572 q 1061 809 1062 726 q 1060 834 1061 816 q 1059 872 1059 852 q 1057 910 1058 892 q 1057 937 1057 928 l 898 931 l 980 982 l 1164 982 q 1148 972 1153 975 q 1136 959 1143 969 q 1129 946 1132 952 q 1123 929 1125 940 q 1120 902 1121 919 q 1120 859 1120 886 q 1118 794 1118 827 q 1117 727 1118 761 l 1117 62 l 1139 34 "},"ú":{"x_min":-11.0625,"x_max":832.515625,"ha":781,"o":"m 782 0 q 745 -11 779 -1 q 670 -21 710 -21 q 605 -8 630 -21 q 567 19 581 3 q 547 51 552 35 q 539 76 541 67 q 525 67 534 74 q 505 53 516 60 q 484 39 494 46 q 470 29 474 32 q 396 -5 435 7 q 306 -19 357 -19 q 189 7 241 -19 q 115 94 137 33 q 109 114 112 103 q 103 148 105 126 q 100 208 101 171 q 99 307 99 246 q 101 421 99 347 q 107 582 103 495 l -11 582 l 80 629 l 268 629 q 248 602 255 613 q 237 579 241 591 q 232 552 234 568 q 231 509 231 536 l 230 387 q 230 295 230 329 q 230 240 230 261 q 232 209 231 220 q 234 189 232 199 q 239 157 235 177 q 257 116 243 136 q 299 82 271 96 q 375 69 326 69 q 469 85 429 69 q 539 121 508 102 q 540 362 539 249 q 545 582 542 476 l 439 582 l 522 629 l 707 629 q 688 604 695 615 q 679 583 682 594 q 674 559 675 573 q 673 524 673 545 l 670 324 q 669 278 670 303 q 668 230 668 253 q 669 187 668 207 q 670 154 670 167 q 674 103 671 126 q 689 64 678 80 q 721 37 700 47 q 778 28 742 28 q 806 28 792 28 q 832 31 821 29 l 782 0 m 588 795 l 293 729 l 387 798 l 686 867 l 588 795 "},"2":{"x_min":38.515625,"x_max":666.21875,"ha":723,"o":"m 38 784 q 104 848 74 820 q 162 899 134 876 q 220 944 189 923 q 288 985 251 965 q 328 992 303 988 q 385 997 353 997 q 489 979 445 997 q 562 932 534 962 q 605 862 591 902 q 619 780 619 823 q 593 649 619 715 q 515 505 567 583 q 382 332 463 427 q 191 116 301 237 q 323 102 253 106 q 445 98 392 98 q 500 98 470 98 q 560 102 530 99 q 619 112 591 106 q 666 130 646 118 l 655 95 l 545 -31 l 499 -39 l 530 6 q 392 -2 456 0 q 301 -4 328 -4 q 261 -3 289 -4 q 196 -1 232 -2 q 117 3 159 0 q 41 12 76 6 q 123 102 84 55 q 202 199 163 150 q 298 323 249 257 q 389 455 348 388 q 456 587 430 521 q 483 714 483 653 q 472 784 483 750 q 441 845 462 818 q 389 889 420 873 q 317 905 359 905 q 255 895 282 905 q 207 871 228 885 q 171 842 187 857 q 145 814 155 827 l 38 784 "},"ü":{"x_min":-11.0625,"x_max":832.515625,"ha":781,"o":"m 782 0 q 745 -11 779 -1 q 670 -21 710 -21 q 605 -8 630 -21 q 567 19 581 3 q 547 51 552 35 q 539 76 541 67 q 525 67 534 74 q 505 53 516 60 q 484 39 494 46 q 470 29 474 32 q 396 -5 435 7 q 306 -19 357 -19 q 189 7 241 -19 q 115 94 137 33 q 109 114 112 103 q 103 148 105 126 q 100 208 101 171 q 99 307 99 246 q 101 421 99 347 q 107 582 103 495 l -11 582 l 80 629 l 268 629 q 248 602 255 613 q 237 579 241 591 q 232 552 234 568 q 231 509 231 536 l 230 387 q 230 295 230 329 q 230 240 230 261 q 232 209 231 220 q 234 189 232 199 q 239 157 235 177 q 257 116 243 136 q 299 82 271 96 q 375 69 326 69 q 469 85 429 69 q 539 121 508 102 q 540 362 539 249 q 545 582 542 476 l 439 582 l 522 629 l 707 629 q 688 604 695 615 q 679 583 682 594 q 674 559 675 573 q 673 524 673 545 l 670 324 q 669 278 670 303 q 668 230 668 253 q 669 187 668 207 q 670 154 670 167 q 674 103 671 126 q 689 64 678 80 q 721 37 700 47 q 778 28 742 28 q 806 28 792 28 q 832 31 821 29 l 782 0 m 518 734 q 495 759 504 748 q 478 779 486 769 q 462 802 471 790 q 441 833 454 815 q 471 856 460 847 q 493 873 483 865 q 513 891 503 882 q 539 914 523 900 q 560 886 551 897 q 576 866 568 875 q 592 845 583 857 q 617 818 601 834 q 590 793 601 802 q 569 775 579 783 q 546 757 558 766 q 518 734 535 747 m 223 733 q 198 757 208 746 q 180 777 188 767 q 163 798 172 787 q 143 828 155 810 q 170 851 159 841 q 192 869 181 860 q 213 888 202 878 q 238 912 223 898 q 261 884 252 895 q 279 863 270 873 q 297 843 287 853 q 319 819 306 833 q 293 793 304 803 q 272 773 283 783 q 251 755 262 764 q 223 733 240 745 "},"¯":{"x_min":-17,"x_max":394,"ha":376,"o":"m 305 772 l -17 772 l 71 821 l 394 821 l 305 772 "},"Z":{"x_min":9.71875,"x_max":1013.96875,"ha":956,"o":"m 766 -21 l 711 -22 l 743 5 l 9 -8 q 87 78 48 35 q 175 179 126 122 q 285 311 223 236 q 433 493 347 386 l 597 698 q 688 816 643 757 q 777 935 734 876 l 306 927 l 176 831 l 91 796 l 276 983 l 327 1001 q 334 982 323 987 q 344 979 338 979 q 354 979 350 979 l 976 989 q 893 871 936 930 q 800 745 850 812 q 745 675 779 718 q 673 582 712 631 q 593 481 634 533 q 516 383 552 429 q 451 301 480 337 q 408 248 422 265 q 377 209 401 238 q 327 147 354 180 q 276 85 300 115 q 245 47 252 56 l 637 52 q 775 59 708 55 q 912 78 841 63 q 973 94 952 87 q 1013 112 994 102 l 963 66 l 766 -21 "},"u":{"x_min":-11.0625,"x_max":832.515625,"ha":781,"o":"m 782 0 q 745 -11 779 -1 q 670 -21 710 -21 q 605 -8 630 -21 q 567 19 581 3 q 547 51 552 35 q 539 76 541 67 q 525 67 534 74 q 505 53 516 60 q 484 39 494 46 q 470 29 474 32 q 396 -5 435 7 q 306 -19 357 -19 q 189 7 241 -19 q 115 94 137 33 q 109 114 112 103 q 103 148 105 126 q 100 208 101 171 q 99 307 99 246 q 101 421 99 347 q 107 582 103 495 l -11 582 l 80 629 l 268 629 q 248 602 255 613 q 237 579 241 591 q 232 552 234 568 q 231 509 231 536 l 230 387 q 230 295 230 329 q 230 240 230 261 q 232 209 231 220 q 234 189 232 199 q 239 157 235 177 q 257 116 243 136 q 299 82 271 96 q 375 69 326 69 q 469 85 429 69 q 539 121 508 102 q 540 362 539 249 q 545 582 542 476 l 439 582 l 522 629 l 707 629 q 688 604 695 615 q 679 583 682 594 q 674 559 675 573 q 673 524 673 545 l 670 324 q 669 278 670 303 q 668 230 668 253 q 669 187 668 207 q 670 154 670 167 q 674 103 671 126 q 689 64 678 80 q 721 37 700 47 q 778 28 742 28 q 806 28 792 28 q 832 31 821 29 l 782 0 "},"˜":{"x_min":-32,"x_max":408,"ha":376,"o":"m 312 769 q 301 767 309 768 q 282 765 292 765 q 262 763 271 764 q 248 763 252 763 q 218 765 231 763 q 190 769 205 767 q 129 779 151 777 q 91 782 106 782 q 23 771 48 782 q -32 743 -1 761 l 83 826 q 123 831 104 831 q 156 828 137 831 q 192 822 176 825 q 284 814 248 814 q 350 821 323 814 q 408 840 377 829 l 312 769 "},"Ó":{"x_min":53,"x_max":1162,"ha":1215,"o":"m 1162 512 q 1122 311 1162 408 q 1009 141 1082 215 q 830 23 935 67 q 594 -21 724 -21 q 367 20 468 -21 q 197 131 266 62 q 90 291 127 201 q 53 480 53 381 q 89 666 53 573 q 197 833 125 759 q 377 954 269 907 q 626 1001 484 1001 q 845 962 747 1001 q 1014 857 944 924 q 1123 702 1084 791 q 1162 512 1162 613 m 1011 456 q 1006 537 1011 495 q 990 620 1001 578 q 938 736 973 677 q 851 844 904 795 q 732 923 799 892 q 581 954 665 954 q 436 926 505 954 q 314 844 366 898 q 231 714 262 791 q 200 538 200 637 q 231 350 200 442 q 321 188 263 259 q 459 73 379 117 q 637 30 540 30 q 758 51 692 30 q 880 122 824 73 q 973 253 936 171 q 1011 456 1011 335 m 803 1115 l 508 1048 l 602 1118 l 901 1186 l 803 1115 "},"k":{"x_min":6.28125,"x_max":740.4375,"ha":695,"o":"m 607 131 q 645 92 629 108 q 674 63 661 76 q 702 35 687 49 q 740 0 718 20 q 713 -8 725 -6 q 679 -11 701 -11 q 607 0 639 -11 q 548 27 575 9 q 498 66 520 44 q 455 111 476 89 l 316 277 q 272 318 289 309 q 235 328 255 328 l 235 105 q 241 56 235 69 q 283 39 248 43 q 321 33 303 36 q 360 27 340 30 l 312 0 l 69 0 q 90 29 83 18 q 100 62 97 41 q 100 95 100 66 q 101 166 101 123 q 102 258 101 208 q 102 356 102 308 q 103 440 102 403 q 104 495 104 478 q 104 544 104 510 q 107 621 105 578 q 110 710 108 663 q 113 801 111 758 q 115 879 114 845 q 116 932 116 913 l 6 932 l 116 981 l 307 981 q 278 960 289 968 q 262 945 268 951 q 254 933 257 939 q 250 919 251 928 q 247 890 248 912 q 245 835 245 867 q 243 768 244 804 q 241 699 241 732 q 239 641 240 667 q 239 606 239 615 l 236 356 q 305 401 277 383 q 357 435 333 419 q 404 469 380 451 q 465 513 429 487 l 512 549 q 531 564 519 555 q 543 580 543 573 q 520 590 543 587 q 462 594 491 592 q 404 599 433 596 l 459 629 l 691 629 q 634 582 658 601 q 591 549 609 563 q 559 524 573 534 q 533 504 545 513 q 468 456 501 480 q 402 408 434 433 l 382 391 q 484 277 444 324 q 559 187 523 230 l 607 131 "},"Ù":{"x_min":-18.625,"x_max":988.171875,"ha":1041,"o":"m 988 981 l 950 949 q 939 933 942 940 q 934 897 936 925 q 933 864 934 880 q 933 832 933 848 l 919 427 q 912 345 916 387 q 899 259 909 302 q 871 174 889 216 q 822 97 853 133 q 686 6 766 33 q 520 -21 605 -21 q 410 -11 455 -21 q 337 9 365 -1 q 211 91 255 41 q 147 195 167 141 q 123 298 126 248 q 120 380 120 348 q 121 502 120 436 q 126 664 123 569 l 128 748 q 129 800 128 779 q 130 841 130 822 q 130 880 130 859 q 130 928 130 900 l -18 928 l 85 981 l 336 981 l 300 950 q 283 924 284 937 q 278 879 280 915 q 274 801 276 843 q 270 721 272 759 q 268 668 268 682 l 264 529 q 262 429 262 473 q 265 348 262 384 q 273 281 268 312 q 289 222 279 249 q 394 80 322 128 q 568 33 466 33 q 640 40 605 33 q 708 66 676 48 q 820 184 781 106 q 856 308 848 238 q 868 469 863 377 l 872 650 q 872 714 872 684 q 872 775 873 744 q 870 843 872 807 q 868 928 869 879 l 709 928 l 816 981 l 988 981 m 633 1048 l 332 1113 l 237 1184 l 535 1118 l 633 1048 "},"Ÿ":{"x_min":-98.65625,"x_max":910.09375,"ha":868,"o":"m 615 0 l 331 0 l 362 47 q 372 70 370 62 q 375 95 373 77 l 375 402 l 249 598 q 190 686 219 643 q 130 775 161 730 q 109 805 124 783 q 77 850 94 826 q 43 897 59 875 q 22 928 27 919 l -98 928 l -1 982 l 238 982 q 231 974 236 979 q 220 963 226 969 q 210 953 215 958 q 205 947 205 948 q 201 934 201 943 q 206 916 201 926 q 213 900 211 907 q 240 856 223 883 q 294 769 256 829 l 354 679 q 370 654 358 672 q 395 618 381 637 q 422 580 409 598 q 440 555 434 562 q 448 543 441 552 q 461 524 454 534 q 473 505 468 513 q 480 495 479 497 l 572 626 q 620 700 596 663 q 668 775 644 737 q 704 830 690 808 q 728 869 718 852 q 746 899 739 886 q 762 928 754 912 l 593 928 l 687 982 l 910 982 l 857 943 q 838 927 846 933 q 824 913 830 920 q 811 896 818 905 q 794 873 804 887 l 517 451 l 517 100 q 521 67 517 76 q 542 54 526 58 q 598 43 561 47 q 678 35 635 39 l 615 0 m 595 1054 q 572 1078 581 1068 q 556 1099 563 1088 q 540 1121 548 1109 q 519 1152 531 1133 q 549 1175 537 1166 q 570 1193 561 1184 q 591 1210 580 1201 q 616 1232 601 1219 q 637 1204 629 1215 q 653 1185 645 1194 q 670 1165 661 1176 q 694 1137 679 1154 q 668 1112 679 1122 q 646 1093 657 1102 q 624 1075 636 1084 q 595 1054 612 1066 m 301 1052 q 276 1077 286 1066 q 258 1097 266 1087 q 241 1118 250 1107 q 220 1147 233 1130 q 248 1170 237 1161 q 270 1189 259 1180 q 290 1208 280 1198 q 316 1232 301 1218 q 339 1204 330 1215 q 356 1182 348 1193 q 375 1161 365 1172 q 397 1137 384 1151 q 371 1111 381 1122 q 350 1093 361 1101 q 329 1075 340 1084 q 301 1052 318 1065 "},"¢":{"x_min":45,"x_max":600.296875,"ha":579,"o":"m 528 33 q 514 26 521 30 q 500 19 507 22 q 410 -8 454 -2 q 335 -15 366 -13 l 335 -41 l 289 -146 l 289 -15 q 243 -3 269 -10 q 185 22 216 3 q 122 77 148 44 q 78 147 96 109 q 53 225 61 184 q 45 304 45 265 q 50 365 45 322 q 81 458 56 408 q 158 555 106 508 q 304 632 210 602 l 304 667 l 350 734 l 350 640 q 364 642 357 641 q 383 645 372 643 q 407 646 394 646 q 437 646 420 646 q 520 641 490 646 q 575 632 550 637 l 466 516 l 409 496 l 461 561 q 413 584 436 576 q 350 593 390 593 l 339 266 q 337 201 337 228 q 335 153 336 173 q 335 114 335 132 q 335 76 335 97 q 370 62 350 69 q 429 56 390 56 q 522 71 483 56 q 600 105 561 86 l 528 33 m 289 105 q 290 149 289 114 q 293 235 291 184 q 296 343 294 286 q 300 450 298 400 q 302 539 301 501 q 304 587 304 576 q 269 574 287 582 q 229 547 251 566 q 178 470 197 518 q 160 365 160 423 q 183 241 160 301 q 233 155 205 183 q 289 105 261 126 "},"ß":{"x_min":16.21875,"x_max":674,"ha":724,"o":"m 94 632 q 101 698 96 661 q 123 779 106 736 q 176 872 144 833 q 248 935 209 911 q 328 970 287 959 q 405 982 369 982 q 497 964 455 982 q 568 919 538 947 q 615 854 598 891 q 632 780 632 818 q 618 713 632 740 q 591 665 605 685 q 575 653 583 658 q 553 641 566 648 q 519 625 540 634 q 465 602 498 616 q 498 590 479 598 q 537 569 516 583 q 580 535 558 555 q 623 486 603 515 q 664 407 654 445 q 674 330 674 369 q 661 234 674 280 q 612 126 644 175 q 547 43 579 77 q 490 -9 515 9 q 465 -29 465 -29 l 285 -105 q 323 -81 299 -97 q 374 -45 347 -66 q 429 4 401 -23 q 479 69 456 33 q 523 166 507 113 q 539 268 539 219 q 524 363 539 316 q 481 445 509 409 q 431 497 458 476 q 377 531 404 518 q 326 552 351 545 q 285 563 302 559 l 371 618 q 392 617 384 618 q 407 615 399 616 q 422 613 414 615 q 441 611 430 612 q 490 702 480 658 q 501 769 501 747 q 489 833 501 804 q 459 884 478 863 q 414 917 439 905 q 359 929 388 929 q 333 926 348 929 q 301 915 317 923 q 270 889 286 906 q 245 842 255 872 q 230 752 234 806 q 225 595 226 697 l 225 452 q 225 372 225 425 q 225 263 225 319 q 225 158 225 207 q 225 92 225 110 q 227 64 225 74 q 235 49 229 54 q 253 41 241 43 q 284 38 265 39 l 358 32 l 304 0 l 57 0 q 77 24 70 15 q 88 41 84 33 q 93 60 92 49 q 94 87 94 70 l 94 583 l 16 583 l 94 632 "},"é":{"x_min":45,"x_max":642,"ha":607,"o":"m 551 30 q 529 17 540 23 q 506 5 517 10 q 437 -15 471 -9 q 371 -21 403 -21 q 333 -19 354 -21 q 288 -13 313 -18 q 238 2 264 -8 q 186 33 213 13 q 122 93 149 59 q 79 166 96 127 q 53 246 61 205 q 45 326 45 287 q 74 467 45 406 q 150 567 104 527 q 252 626 196 606 q 363 647 308 647 q 437 637 400 647 q 506 608 474 627 q 549 571 532 591 q 576 533 565 552 q 593 499 588 515 q 603 470 599 483 l 276 338 l 170 330 q 210 212 182 263 q 276 124 238 160 q 360 69 314 88 q 456 51 406 51 q 549 66 508 51 q 625 99 589 81 l 551 30 m 420 444 q 450 458 440 451 q 461 481 461 466 q 449 523 461 502 q 420 562 438 545 q 376 589 401 578 q 323 601 351 601 q 274 591 302 601 q 222 560 247 582 q 181 501 198 538 q 164 408 164 463 q 165 372 164 390 q 168 334 166 353 l 420 444 m 544 795 l 249 729 l 343 798 l 642 867 l 544 795 "},"s":{"x_min":-12.9375,"x_max":486,"ha":521,"o":"m 349 362 q 416 320 382 344 q 469 245 450 295 q 479 194 479 222 q 462 114 479 152 q 412 46 445 76 q 329 0 378 16 q 216 -18 280 -18 q 162 -15 194 -18 q 89 -1 130 -12 q 29 20 52 9 q -12 41 6 30 l 73 130 l 120 138 l 91 93 q 167 47 130 66 q 258 28 205 28 q 313 37 291 28 q 349 62 336 47 q 368 94 362 76 q 375 129 375 112 q 365 174 375 155 q 340 207 355 193 q 307 230 326 220 q 272 248 288 240 l 173 293 q 135 313 153 304 q 102 338 117 323 q 70 386 83 358 q 58 449 58 415 q 73 519 58 484 q 118 582 88 554 q 194 628 148 610 q 303 647 241 647 q 397 635 352 647 q 486 605 442 624 l 423 523 l 372 502 l 397 554 q 333 586 367 570 q 259 603 299 603 q 212 593 231 603 q 182 571 193 584 q 166 540 171 557 q 162 509 162 523 q 170 469 162 486 q 191 440 178 452 q 221 419 205 427 q 250 405 237 411 l 349 362 "},"B":{"x_min":3.890625,"x_max":789,"ha":839,"o":"m 99 982 l 406 982 q 508 972 455 982 q 604 929 561 963 q 652 868 633 905 q 671 790 671 830 q 653 714 671 747 q 610 655 636 680 q 554 611 584 630 q 498 578 523 591 q 548 570 520 575 q 606 555 576 565 q 665 525 636 544 q 722 477 695 507 q 773 392 758 437 q 789 302 789 347 q 755 169 789 231 q 670 67 722 108 q 597 25 634 39 q 522 3 559 10 q 450 -4 485 -3 q 383 -6 415 -6 q 316 -5 349 -6 q 250 -3 282 -4 l 77 2 q 105 36 95 21 q 120 63 116 50 q 127 87 125 75 q 130 116 130 99 q 130 245 130 169 q 130 402 130 321 q 132 556 131 482 q 134 678 132 630 q 137 791 135 735 q 140 905 140 846 l 141 933 l 3 933 l 99 982 m 276 517 q 331 532 299 522 q 407 565 362 542 q 441 587 421 574 q 481 622 462 600 q 513 674 500 643 q 527 746 527 704 q 519 797 527 767 q 491 858 511 828 q 434 911 471 888 q 341 941 398 935 q 314 942 325 942 q 286 942 302 942 q 285 929 285 935 q 284 916 285 922 q 281 861 282 892 q 279 800 280 831 q 278 738 278 768 q 277 682 277 707 l 276 517 m 276 283 q 276 240 276 265 q 277 189 276 215 q 280 140 278 163 q 287 103 282 117 q 332 49 298 68 q 428 30 367 30 q 582 88 524 30 q 640 248 640 146 q 624 345 640 300 q 576 423 608 390 q 497 476 544 457 q 388 495 451 495 q 322 489 348 495 q 276 476 296 483 l 276 283 "},"…":{"x_min":138,"x_max":1253,"ha":1391,"o":"m 327 78 q 302 52 313 63 q 281 30 292 41 q 256 9 270 20 q 224 -17 242 -1 q 201 4 210 -4 q 185 23 193 13 q 165 45 176 33 q 138 78 154 58 l 199 133 l 240 174 l 271 135 l 327 78 m 790 78 q 765 52 776 63 q 744 30 755 41 q 719 9 733 20 q 687 -17 705 -1 q 664 4 673 -4 q 648 23 656 13 q 628 45 639 33 q 601 78 617 58 l 662 133 l 703 174 l 734 135 l 790 78 m 1253 78 q 1228 52 1239 63 q 1207 30 1218 41 q 1182 9 1196 20 q 1150 -17 1168 -1 q 1127 4 1136 -4 q 1111 23 1119 13 q 1091 45 1102 33 q 1064 78 1080 58 l 1125 133 l 1166 174 l 1197 135 l 1253 78 "},"?":{"x_min":23.34375,"x_max":637,"ha":636,"o":"m 476 562 q 438 523 452 541 q 415 482 424 505 q 402 427 406 459 q 394 348 398 395 l 338 337 l 298 327 l 244 312 q 259 415 248 373 q 291 490 271 458 q 336 547 310 522 q 394 598 362 572 q 433 639 415 619 q 465 682 451 659 q 488 734 480 705 q 497 798 497 762 q 485 864 497 840 q 474 883 483 869 q 449 912 466 897 q 408 937 433 926 q 348 949 383 949 q 233 904 278 949 q 184 834 195 869 q 169 773 173 798 l 23 747 q 34 808 26 776 q 76 880 42 840 q 183 957 112 922 q 362 993 255 993 q 470 980 420 993 q 557 942 520 968 q 615 880 594 917 q 637 794 637 842 q 627 732 637 759 q 602 681 618 705 q 565 637 586 658 q 519 595 543 616 l 476 562 m 408 78 q 386 53 395 63 q 366 35 376 44 q 341 13 355 26 q 305 -17 327 1 q 286 2 294 -5 q 268 21 277 10 q 247 44 258 31 q 219 78 236 58 l 290 142 l 323 174 l 352 138 l 408 78 "},"H":{"x_min":17.109375,"x_max":1246.015625,"ha":1215,"o":"m 1165 0 l 865 0 q 900 38 887 22 q 918 77 912 55 q 926 132 925 98 q 928 219 928 165 l 928 511 q 897 503 909 507 q 873 496 884 500 q 849 487 861 492 q 819 474 837 482 l 392 474 q 350 472 373 474 q 312 462 327 471 q 299 451 303 457 q 292 435 294 446 q 290 404 290 424 q 290 354 290 385 l 290 257 q 290 161 290 200 q 294 87 291 122 q 305 52 295 60 q 340 42 314 44 l 447 37 l 371 0 l 89 0 q 124 42 111 23 q 142 93 137 61 q 144 129 143 102 q 146 187 145 156 q 147 246 147 217 q 147 288 147 274 q 147 329 147 299 q 146 391 147 358 q 146 454 146 424 q 146 497 146 484 q 150 715 146 606 q 153 811 153 763 q 156 908 154 859 q 156 920 156 914 q 157 933 156 926 l 17 930 l 121 982 l 364 982 l 322 950 q 309 937 312 943 q 304 920 306 932 q 301 886 302 914 q 299 820 301 858 q 297 737 298 782 q 294 652 295 693 q 291 578 292 611 q 290 531 290 546 l 865 531 q 896 532 884 531 q 928 537 907 533 l 929 686 q 932 781 930 745 q 934 842 933 817 q 935 887 935 867 q 938 934 936 907 l 803 930 l 906 982 l 1137 982 l 1091 945 q 1086 940 1088 943 q 1083 930 1084 937 q 1079 871 1081 927 q 1074 722 1077 815 q 1070 507 1072 629 q 1068 250 1068 384 q 1068 214 1068 236 q 1068 168 1068 191 q 1068 123 1068 144 q 1071 90 1069 103 q 1089 49 1072 57 q 1147 40 1107 42 l 1246 38 l 1165 0 "},"î":{"x_min":-36,"x_max":389,"ha":347,"o":"m 310 0 l 75 0 q 95 22 87 13 q 106 40 103 31 q 111 59 110 48 q 113 88 113 70 l 113 580 l 8 580 l 101 629 l 268 629 q 255 610 259 617 q 249 595 251 602 q 245 580 247 588 q 244 558 244 572 l 239 155 q 239 142 239 151 q 238 121 239 132 q 238 99 238 110 q 238 85 238 89 q 249 47 238 54 q 293 38 261 40 l 364 32 l 310 0 m 389 778 l 318 747 l 179 811 l -36 735 l 87 826 l 198 867 l 389 778 "},"c":{"x_min":45,"x_max":608.46875,"ha":550,"o":"m 534 33 q 512 22 523 27 q 490 12 501 16 q 429 -7 468 2 q 341 -18 390 -18 q 201 14 258 -18 q 110 95 144 47 q 60 200 75 144 q 45 305 45 256 q 65 421 45 361 q 131 531 85 481 q 253 614 177 581 q 439 647 329 647 q 521 641 489 647 q 582 629 554 635 l 472 517 l 414 497 l 464 563 q 422 582 450 571 q 350 594 394 594 q 285 582 318 594 q 225 544 252 570 q 181 476 198 517 q 164 376 164 435 q 179 266 164 323 q 228 163 195 209 q 312 86 261 116 q 434 57 364 57 q 533 73 493 57 q 608 109 573 90 l 534 33 "},"¶":{"x_min":125.15625,"x_max":736.84375,"ha":926,"o":"m 736 981 l 736 920 l 691 920 l 691 -231 l 627 -231 l 627 920 l 410 920 l 410 -231 l 346 -231 l 346 458 q 271 477 311 465 q 190 533 230 489 q 140 618 155 569 q 125 711 125 667 q 136 792 125 746 q 179 878 147 838 q 240 935 207 914 q 307 965 273 956 q 372 978 340 975 q 430 981 404 981 l 736 981 "},"•":{"x_min":65,"x_max":397,"ha":463,"o":"m 397 491 q 385 427 397 458 q 352 374 373 397 q 301 338 331 351 q 235 325 271 325 q 165 338 196 325 q 112 374 134 351 q 77 427 90 397 q 65 490 65 457 q 76 549 65 519 q 109 603 87 579 q 162 641 131 626 q 233 656 192 656 q 299 642 269 656 q 351 606 330 629 q 385 554 373 583 q 397 491 397 525 "},"¥":{"x_min":-98.65625,"x_max":910.09375,"ha":868,"o":"m 375 343 l 95 343 l 177 389 l 375 389 l 375 401 l 334 464 l 95 464 l 177 510 l 305 510 l 249 598 q 190 687 219 643 q 130 775 161 730 q 109 805 124 783 q 77 850 94 826 q 43 897 59 875 q 22 928 27 919 l -98 928 l -1 982 l 238 982 q 207 948 213 955 q 201 934 201 941 q 202 925 201 930 q 205 918 204 920 q 216 895 208 911 q 237 859 224 880 q 264 815 249 839 q 294 769 279 791 l 354 679 q 370 655 358 672 q 395 618 381 637 q 422 580 409 598 q 440 555 434 562 q 448 543 441 552 q 461 523 454 533 q 473 505 468 514 q 480 496 479 497 l 572 626 q 620 700 596 662 q 668 773 644 737 q 704 830 690 807 q 728 869 718 853 q 746 899 739 886 q 762 928 754 912 l 593 928 l 687 982 l 910 982 l 857 943 q 838 927 846 934 q 824 913 830 920 q 811 897 818 907 q 794 873 804 887 l 555 510 l 786 509 l 704 464 l 525 464 l 517 451 l 517 389 l 786 388 l 704 343 l 517 343 l 517 100 q 521 67 517 76 q 542 54 526 58 q 598 43 561 47 q 678 35 635 39 l 615 0 l 331 0 l 362 47 q 372 70 370 62 q 375 95 373 79 l 375 343 "},"(":{"x_min":94,"x_max":423.625,"ha":435,"o":"m 423 -22 q 370 5 398 -10 q 281 71 329 29 q 191 174 233 114 q 121 314 149 234 q 94 490 94 393 q 99 566 94 526 q 117 648 105 605 q 176 783 138 723 q 272 897 213 843 q 356 964 320 944 q 423 1000 391 984 q 390 961 409 984 q 348 904 370 937 q 304 827 326 870 q 263 727 281 783 q 232 598 240 658 q 225 490 225 538 q 242 329 225 404 q 286 193 259 254 q 340 87 312 133 q 393 14 369 41 q 407 -4 400 4 q 423 -22 415 -13 "},"U":{"x_min":-18.625,"x_max":988.171875,"ha":1041,"o":"m 988 981 l 950 949 q 939 933 942 940 q 934 897 936 925 q 933 864 934 880 q 933 832 933 848 l 919 427 q 912 345 916 387 q 899 259 909 302 q 871 174 889 216 q 822 97 853 133 q 686 6 766 33 q 520 -21 605 -21 q 410 -11 455 -21 q 337 9 365 -1 q 211 91 255 41 q 147 195 167 141 q 123 298 126 248 q 120 380 120 348 q 121 502 120 436 q 126 664 123 569 l 128 748 q 129 800 128 779 q 130 841 130 822 q 130 880 130 859 q 130 928 130 900 l -18 928 l 85 981 l 336 981 l 300 950 q 283 924 284 937 q 278 879 280 915 q 274 801 276 843 q 270 721 272 759 q 268 668 268 682 l 264 529 q 262 429 262 473 q 265 348 262 384 q 273 281 268 312 q 289 222 279 249 q 394 80 322 128 q 568 33 466 33 q 640 40 605 33 q 708 66 676 48 q 820 184 781 106 q 856 308 848 238 q 868 469 863 377 l 872 650 q 872 714 872 684 q 872 775 873 744 q 870 843 872 807 q 868 928 869 879 l 709 928 l 816 981 l 988 981 "},"Ñ":{"x_min":-11.390625,"x_max":1164.453125,"ha":1245,"o":"m 1139 34 q 1074 7 1101 19 q 1004 -22 1047 -3 q 847 156 914 80 q 755 259 780 232 q 711 307 741 273 q 639 385 680 340 q 549 482 598 430 q 450 586 500 534 q 353 688 401 639 q 268 775 305 737 q 238 803 250 793 q 220 820 227 813 q 209 832 213 827 q 200 841 205 836 l 200 502 q 201 305 200 402 q 206 108 203 208 q 210 73 207 86 q 226 52 212 60 q 267 41 239 44 q 348 35 295 37 l 295 0 l 85 0 l 117 31 q 133 51 128 43 q 140 83 137 59 q 140 115 140 88 q 142 175 141 143 q 143 238 142 208 q 144 284 144 269 l 144 484 q 144 578 144 531 q 143 670 144 624 q 140 783 141 741 q 140 858 140 826 q 124 921 140 906 q 67 936 108 936 q 28 934 48 936 q -11 930 8 933 l 85 982 l 259 982 q 312 932 285 957 q 365 882 338 907 q 445 799 392 852 q 562 677 498 745 q 699 532 627 609 q 838 382 770 455 q 962 245 905 309 q 1054 137 1019 180 l 1061 473 q 1062 649 1062 572 q 1061 809 1062 726 q 1060 834 1061 816 q 1059 872 1059 852 q 1057 910 1058 892 q 1057 937 1057 928 l 898 931 l 980 982 l 1164 982 q 1148 972 1153 975 q 1136 959 1143 969 q 1129 946 1132 952 q 1123 929 1125 940 q 1120 902 1121 919 q 1120 859 1120 886 q 1118 794 1118 827 q 1117 727 1118 761 l 1117 62 l 1139 34 m 740 1088 q 729 1086 737 1087 q 710 1084 721 1084 q 690 1082 700 1083 q 676 1082 680 1082 q 646 1084 659 1082 q 618 1088 633 1086 q 557 1098 579 1096 q 519 1101 534 1101 q 451 1090 476 1101 q 395 1062 426 1080 l 511 1145 q 551 1150 532 1150 q 584 1147 565 1150 q 620 1141 604 1144 q 712 1133 676 1133 q 778 1140 751 1133 q 836 1159 805 1148 l 740 1088 "},"F":{"x_min":17.21875,"x_max":692.25,"ha":665,"o":"m 380 0 l 96 0 q 117 26 108 15 q 132 49 126 37 q 141 74 139 61 q 146 105 144 87 q 146 139 146 115 q 145 191 146 163 q 145 243 145 219 q 145 279 145 268 q 157 928 145 604 l 17 928 l 108 981 l 692 981 l 603 897 l 565 886 q 576 903 574 900 q 581 910 578 907 q 583 914 582 913 q 585 918 585 915 q 576 925 585 924 q 560 927 568 927 q 549 927 554 927 q 533 927 543 927 q 504 927 522 927 q 456 928 486 928 l 301 928 l 295 722 q 294 692 295 714 q 292 644 293 669 q 290 596 291 619 q 290 564 290 573 l 290 542 l 610 542 l 530 466 l 494 457 q 507 477 505 472 q 509 486 509 482 q 503 494 509 493 q 487 496 496 496 l 331 496 q 297 486 305 496 q 289 450 289 477 l 289 134 q 290 85 289 102 q 297 58 291 68 q 315 47 302 49 q 350 43 327 44 l 448 37 l 380 0 "},"­":{"x_min":0,"x_max":694.5,"ha":695,"o":"m 694 364 l 0 364 l 0 446 l 694 446 l 694 364 "},":":{"x_min":135,"x_max":329,"ha":406,"o":"m 329 543 q 297 510 310 523 q 272 486 283 497 q 249 467 260 476 q 224 448 238 458 q 203 468 212 459 q 185 487 194 477 q 165 510 176 497 q 138 543 153 523 l 242 639 l 272 602 l 298 573 l 329 543 m 323 80 q 298 52 310 64 q 275 30 287 40 q 251 9 264 19 q 221 -15 239 -1 q 172 34 189 15 q 135 80 155 53 l 237 176 l 269 137 l 290 114 l 323 80 "},"Û":{"x_min":-18.625,"x_max":988.171875,"ha":1041,"o":"m 988 981 l 950 949 q 939 933 942 940 q 934 897 936 925 q 933 864 934 880 q 933 832 933 848 l 919 427 q 912 345 916 387 q 899 259 909 302 q 871 174 889 216 q 822 97 853 133 q 686 6 766 33 q 520 -21 605 -21 q 410 -11 455 -21 q 337 9 365 -1 q 211 91 255 41 q 147 195 167 141 q 123 298 126 248 q 120 380 120 348 q 121 502 120 436 q 126 664 123 569 l 128 748 q 129 800 128 779 q 130 841 130 822 q 130 880 130 859 q 130 928 130 900 l -18 928 l 85 981 l 336 981 l 300 950 q 283 924 284 937 q 278 879 280 915 q 274 801 276 843 q 270 721 272 759 q 268 668 268 682 l 264 529 q 262 429 262 473 q 265 348 262 384 q 273 281 268 312 q 289 222 279 249 q 394 80 322 128 q 568 33 466 33 q 640 40 605 33 q 708 66 676 48 q 820 184 781 106 q 856 308 848 238 q 868 469 863 377 l 872 650 q 872 714 872 684 q 872 775 873 744 q 870 843 872 807 q 868 928 869 879 l 709 928 l 816 981 l 988 981 m 749 1097 l 678 1065 l 540 1130 l 325 1052 l 448 1145 l 559 1186 l 749 1097 "},"*":{"x_min":31.65625,"x_max":588.6875,"ha":607,"o":"m 442 458 l 342 602 q 329 622 334 615 q 320 635 324 629 q 312 648 316 641 q 302 665 308 654 q 282 636 296 657 q 251 591 267 615 q 219 545 234 566 q 198 515 203 523 l 108 491 q 120 509 114 501 q 132 526 126 518 q 146 546 138 534 q 166 572 155 557 l 208 630 q 230 662 221 650 q 252 694 240 675 q 217 705 234 700 q 180 718 199 711 q 146 727 159 723 q 124 735 133 732 q 106 741 114 739 q 87 747 98 743 l 31 827 l 112 798 l 203 771 q 235 761 226 764 q 265 752 244 758 l 265 921 l 322 1003 l 322 750 q 340 756 326 751 q 374 767 355 761 q 414 780 392 773 q 454 792 435 786 q 485 802 473 798 q 498 805 497 805 l 588 775 l 406 721 q 373 709 383 712 q 347 701 363 707 q 395 629 370 665 q 447 557 420 593 l 442 458 "},"†":{"x_min":6.15625,"x_max":659.703125,"ha":665,"o":"m 368 48 l 307 -51 q 304 8 305 -21 q 301 74 303 39 q 299 153 300 110 q 299 250 299 196 q 299 324 299 271 q 300 436 300 376 q 301 550 300 496 q 302 627 302 604 l 6 628 l 75 678 l 302 678 q 302 721 302 690 q 303 788 303 752 q 305 855 304 823 q 307 900 307 887 l 380 1018 q 368 678 370 847 l 659 677 l 584 628 l 368 626 l 368 48 "},"°":{"x_min":42,"x_max":450,"ha":492,"o":"m 246 1039 q 325 1023 289 1039 q 390 979 362 1007 q 434 914 418 951 q 450 835 450 876 q 434 755 450 793 q 390 690 418 718 q 325 646 362 662 q 246 631 289 631 q 166 646 204 631 q 101 690 129 662 q 57 755 73 718 q 42 835 42 793 q 57 914 42 878 q 101 979 73 951 q 166 1023 129 1007 q 246 1039 204 1039 m 246 956 q 159 920 194 956 q 125 835 125 885 q 159 749 125 784 q 246 714 194 714 q 331 749 296 714 q 367 835 367 784 q 331 920 367 885 q 246 956 296 956 "},"V":{"x_min":-90.28125,"x_max":1004.25,"ha":956,"o":"m 1004 981 q 979 961 993 972 q 954 942 965 950 q 934 924 941 932 q 919 903 926 917 q 903 867 912 889 q 880 807 894 844 q 866 772 879 804 q 834 690 854 740 q 788 577 813 640 q 736 452 762 515 q 687 334 711 390 q 645 238 663 277 q 600 139 623 188 q 558 40 577 90 q 552 26 555 33 q 547 13 550 20 q 494 4 515 8 q 456 -2 473 1 q 425 -10 440 -5 q 390 -21 411 -15 q 254 329 320 155 q 126 681 187 502 q 88 796 106 740 q 50 909 69 852 l 41 932 l -90 926 l 8 981 l 258 981 l 223 951 q 205 932 211 939 q 200 912 200 925 q 202 898 200 905 q 206 883 204 890 q 218 849 212 865 q 231 808 223 833 q 254 744 240 783 q 290 639 268 704 l 406 323 q 459 188 431 256 q 511 63 486 120 l 576 208 q 656 395 625 320 q 712 529 688 470 q 756 641 736 588 q 800 762 776 694 q 821 827 812 800 q 836 873 830 854 q 845 907 841 893 q 851 932 848 920 l 686 926 l 786 981 l 1004 981 "},"\u001e":{"x_min":9.71875,"x_max":1013.96875,"ha":956,"o":"m 766 -21 l 711 -22 l 743 5 l 9 -8 q 87 78 48 35 q 175 179 126 122 q 285 311 223 236 q 433 493 347 386 l 597 698 q 688 816 643 757 q 777 935 734 876 l 306 927 l 176 831 l 91 796 l 276 983 l 327 1001 q 334 982 323 987 q 344 979 338 979 q 354 979 350 979 l 976 989 q 893 871 936 930 q 800 745 850 812 q 745 675 779 718 q 673 582 712 631 q 593 481 634 533 q 516 383 552 429 q 451 301 480 337 q 408 248 422 265 q 377 209 401 238 q 327 147 354 180 q 276 85 300 115 q 245 47 252 56 l 637 52 q 775 59 708 55 q 912 78 841 63 q 973 94 952 87 q 1013 112 994 102 l 963 66 l 766 -21 m 375 1143 l 445 1175 l 583 1111 l 798 1187 l 675 1094 l 565 1054 l 375 1143 "},"å":{"x_min":19,"x_max":631.71875,"ha":607,"o":"m 499 300 q 531 196 516 243 q 563 107 545 150 q 599 32 583 55 q 631 -11 615 9 q 610 -13 620 -12 q 591 -15 601 -15 q 546 -8 567 -15 q 505 9 526 -1 q 453 53 470 29 q 427 97 437 77 l 362 33 q 300 2 342 21 q 191 -17 258 -17 q 115 -5 148 -17 q 61 26 83 6 q 29 72 39 46 q 19 127 19 98 q 55 233 19 187 q 142 311 91 279 q 246 365 192 344 q 334 398 299 386 l 313 459 q 278 535 295 508 q 237 576 260 562 q 183 591 215 589 q 103 592 151 593 l 205 635 q 295 631 251 635 q 373 605 340 628 q 404 575 391 593 q 428 534 417 558 q 449 476 438 509 q 471 398 459 443 l 499 300 m 362 305 q 349 344 355 333 q 330 356 344 356 q 290 343 319 356 q 231 307 262 330 q 177 251 201 285 q 154 175 154 218 q 166 122 154 144 q 198 87 179 101 q 241 67 217 73 q 287 61 265 61 q 372 81 341 61 q 417 116 404 102 q 406 150 410 137 q 397 178 401 163 q 388 211 392 193 q 374 258 383 229 l 362 305 m 310 908 q 354 898 335 908 q 387 873 374 888 q 406 839 400 857 q 413 803 413 820 q 383 732 413 763 q 307 701 354 701 q 234 732 263 701 q 205 802 205 763 q 233 875 205 842 q 310 908 261 908 m 380 805 q 361 853 380 831 q 310 876 342 876 q 258 853 278 876 q 238 805 238 831 q 258 755 238 777 q 309 733 278 733 q 359 754 339 733 q 380 805 380 776 "}," ":{"x_min":0,"x_max":0,"ha":376},"0":{"x_min":44,"x_max":678,"ha":724,"o":"m 678 553 q 652 321 678 437 q 559 113 627 206 q 493 41 526 67 q 431 2 461 14 q 379 -13 402 -10 q 338 -17 355 -17 q 205 21 260 -17 q 113 125 149 60 q 60 272 77 189 q 44 441 44 355 q 71 661 44 559 q 145 837 98 763 q 258 954 192 912 q 401 997 323 997 q 512 969 461 997 q 600 886 563 941 q 657 748 636 831 q 678 553 678 665 m 572 388 q 569 463 572 421 q 561 546 566 505 q 549 628 556 588 q 534 698 542 667 q 505 779 523 738 q 464 853 488 820 q 409 908 441 887 q 339 929 378 929 q 318 927 330 929 q 293 922 307 926 q 246 896 266 912 q 213 862 227 880 q 193 828 200 845 q 181 799 185 810 q 159 705 167 759 q 152 588 152 651 q 154 523 152 560 q 161 445 156 487 q 173 360 165 403 q 192 278 181 317 q 215 213 200 252 q 255 138 231 174 q 313 77 279 103 q 391 52 346 52 q 416 54 399 52 q 453 67 432 57 q 494 99 473 78 q 532 158 514 121 q 560 251 549 195 q 572 388 572 307 "},"”":{"x_min":22.09375,"x_max":478,"ha":550,"o":"m 261 619 q 338 729 302 676 q 374 819 374 783 q 372 833 374 827 q 364 849 371 840 q 346 872 358 858 q 315 908 335 885 q 371 958 349 938 q 414 997 393 977 q 449 956 436 972 q 468 931 462 941 q 476 914 475 922 q 478 894 478 906 q 455 826 478 867 q 404 746 432 785 q 353 677 376 706 q 330 648 330 648 l 261 619 m 47 655 q 73 690 58 669 q 102 735 88 712 q 126 781 116 758 q 136 821 136 803 q 131 844 136 835 q 120 859 126 852 q 100 883 112 870 q 80 908 88 897 q 107 931 97 922 q 127 950 117 941 q 149 969 137 959 q 179 997 161 980 q 213 956 201 972 q 232 929 226 940 q 240 911 238 919 q 243 892 243 903 q 229 847 243 873 q 193 787 216 821 q 148 724 170 753 q 109 673 126 694 q 92 652 92 652 l 22 620 l 47 655 "},"¾":{"x_min":2.375,"x_max":1096.015625,"ha":1100,"o":"m 1050 31 l 1008 0 l 864 0 q 875 20 871 12 q 881 33 879 27 q 885 45 883 40 q 886 61 886 51 l 888 183 q 851 183 878 183 q 789 184 825 184 q 714 183 754 184 q 641 182 675 183 q 691 269 672 236 q 723 326 709 302 q 750 370 737 349 q 779 419 762 390 q 837 513 808 466 q 898 606 866 559 l 983 624 q 981 599 982 610 q 980 571 980 587 q 978 533 979 555 q 976 480 977 512 l 971 253 l 1008 253 q 1052 254 1030 253 q 1096 255 1073 255 l 998 179 q 982 181 989 181 q 970 182 976 181 l 970 71 q 972 42 970 47 q 995 35 975 37 l 1050 31 m 896 533 q 848 455 868 487 q 811 394 829 423 q 776 333 794 365 q 733 256 758 301 l 887 256 l 896 533 m 2 845 q 48 890 27 870 q 88 925 69 909 q 128 956 107 941 q 171 986 148 970 q 197 990 184 989 q 228 992 210 992 q 282 985 257 992 q 346 941 329 972 q 364 886 364 911 q 352 838 364 859 q 327 801 341 817 q 296 772 312 784 q 270 753 280 760 q 297 740 282 748 q 329 717 312 733 q 374 613 374 676 q 352 529 374 568 q 295 459 330 490 q 215 403 259 428 q 125 362 170 379 l 13 356 q 77 381 52 371 q 118 400 101 392 q 148 415 136 408 q 176 433 161 422 q 245 500 216 461 q 275 588 275 540 q 268 629 275 609 q 244 665 261 649 q 200 691 227 681 q 130 702 172 701 l 158 742 q 206 754 184 744 q 244 781 229 765 q 267 815 259 796 q 276 851 276 834 q 268 883 276 870 q 248 905 260 897 q 221 917 235 913 q 192 922 206 922 q 137 908 163 922 q 94 870 112 894 l 2 845 m 928 997 q 887 944 907 970 q 847 890 868 919 q 803 827 826 860 q 753 752 780 794 q 676 637 714 694 q 600 522 637 580 q 516 394 558 458 q 435 265 475 330 q 369 163 394 202 q 328 98 344 124 q 298 50 311 72 q 266 0 285 29 l 197 -17 q 208 1 203 -7 q 219 17 214 9 q 297 143 260 80 q 375 269 335 206 q 483 439 422 345 q 609 630 544 533 q 736 819 673 727 q 850 983 798 910 l 928 997 "},"@":{"x_min":96,"x_max":1147,"ha":1244,"o":"m 1144 36 q 1081 -22 1121 13 q 981 -91 1042 -57 q 839 -148 921 -124 q 648 -172 757 -172 q 407 -131 511 -172 q 234 -22 303 -91 q 130 138 165 46 q 96 333 96 230 q 141 577 96 459 q 268 787 187 695 q 460 934 350 879 q 699 989 570 989 q 890 951 806 989 q 1030 850 973 914 q 1117 703 1087 786 q 1147 532 1147 620 q 1122 371 1147 450 q 1057 232 1098 293 q 962 133 1016 171 q 848 96 908 96 q 818 100 840 96 q 775 126 797 104 q 748 178 751 150 q 746 233 746 205 q 702 172 725 200 q 636 121 680 144 q 550 99 593 99 q 492 110 523 99 q 434 148 461 121 q 389 222 407 176 q 371 337 371 268 q 397 487 371 416 q 466 612 423 558 q 564 696 509 665 q 673 728 618 728 q 715 723 694 728 q 755 707 736 718 q 805 662 791 687 q 828 612 818 637 l 846 690 l 928 690 l 888 502 q 864 397 875 450 q 843 291 853 344 q 837 256 840 277 q 834 215 834 234 q 850 167 834 177 q 878 157 867 157 q 943 185 907 157 q 1012 264 979 213 q 1066 384 1044 315 q 1089 533 1089 452 q 1058 696 1089 622 q 975 823 1027 769 q 852 905 922 876 q 702 935 782 935 q 512 894 603 935 q 357 780 422 854 q 289 687 319 739 q 237 575 258 635 q 203 452 215 515 q 192 326 192 389 q 217 168 192 247 q 298 26 243 89 q 443 -76 354 -36 q 660 -116 532 -116 q 796 -101 721 -116 q 950 -46 871 -86 q 1042 13 1007 -16 q 1111 77 1076 43 l 1144 36 m 796 547 q 784 610 796 585 q 757 651 773 635 q 722 672 740 666 q 690 679 704 679 q 627 662 654 679 q 576 615 600 645 q 538 556 557 591 q 505 479 519 520 q 480 391 490 437 q 471 301 471 345 q 475 247 471 273 q 497 198 480 220 q 543 165 519 170 q 575 161 566 161 q 645 182 614 161 q 701 239 676 204 q 743 317 726 274 q 773 404 761 360 q 790 484 784 447 q 796 547 796 522 "},"ö":{"x_min":44,"x_max":737,"ha":781,"o":"m 737 319 q 713 197 737 258 q 645 89 689 137 q 534 11 600 41 q 383 -18 468 -18 q 236 11 300 -18 q 130 87 173 40 q 66 193 88 134 q 44 309 44 251 q 70 438 44 377 q 144 546 96 499 q 258 619 192 592 q 404 647 325 647 q 542 619 480 647 q 647 545 604 591 q 714 440 691 499 q 737 319 737 381 m 415 24 q 494 42 455 24 q 557 94 533 61 q 590 168 582 128 q 599 248 599 208 q 587 355 599 294 q 548 472 575 416 q 476 565 521 527 q 368 604 432 604 q 300 591 333 604 q 242 556 268 579 q 190 476 202 520 q 179 387 179 431 q 192 273 179 336 q 233 154 205 209 q 307 61 262 98 q 415 24 352 24 m 525 734 q 502 759 511 748 q 485 779 493 769 q 469 802 478 790 q 448 833 461 815 q 478 856 467 847 q 500 873 490 865 q 520 891 510 882 q 546 914 530 900 q 567 886 558 897 q 583 866 575 875 q 599 845 590 857 q 624 818 608 834 q 597 793 608 802 q 576 775 586 783 q 553 757 565 766 q 525 734 542 747 m 230 733 q 205 757 215 746 q 187 777 195 767 q 170 798 179 787 q 150 828 162 810 q 177 851 166 841 q 199 869 188 860 q 220 888 209 878 q 245 912 230 898 q 268 884 259 895 q 286 863 277 873 q 304 843 294 853 q 326 819 313 833 q 300 793 311 803 q 279 773 290 783 q 258 755 269 764 q 230 733 247 745 "},"i":{"x_min":8.8125,"x_max":364.40625,"ha":347,"o":"m 310 0 l 75 0 q 95 22 87 13 q 106 40 103 31 q 111 59 110 48 q 113 88 113 70 l 113 580 l 8 580 l 101 629 l 268 629 q 255 610 259 617 q 249 595 251 602 q 245 580 247 588 q 244 558 244 572 l 239 155 q 239 142 239 151 q 238 121 239 132 q 238 99 238 110 q 238 85 238 89 q 249 47 238 54 q 293 38 261 40 l 364 32 l 310 0 m 270 822 q 250 800 259 809 q 231 780 241 790 q 206 759 220 770 q 172 730 193 747 q 145 757 155 745 q 125 778 134 768 q 109 798 116 788 q 91 822 101 808 q 122 850 106 836 q 155 879 138 863 l 190 912 l 220 875 q 226 868 223 872 q 231 862 229 865 l 270 822 "},"Õ":{"x_min":53,"x_max":1162,"ha":1215,"o":"m 1162 512 q 1122 311 1162 408 q 1009 141 1082 215 q 830 23 935 67 q 594 -21 724 -21 q 367 20 468 -21 q 197 131 266 62 q 90 291 127 201 q 53 480 53 381 q 89 666 53 573 q 197 833 125 759 q 377 954 269 907 q 626 1001 484 1001 q 845 962 747 1001 q 1014 857 944 924 q 1123 702 1084 791 q 1162 512 1162 613 m 1011 456 q 1006 537 1011 495 q 990 620 1001 578 q 938 736 973 677 q 851 844 904 795 q 732 923 799 892 q 581 954 665 954 q 436 926 505 954 q 314 844 366 898 q 231 714 262 791 q 200 538 200 637 q 231 350 200 442 q 321 188 263 259 q 459 73 379 117 q 637 30 540 30 q 758 51 692 30 q 880 122 824 73 q 973 253 936 171 q 1011 456 1011 335 m 724 1088 q 713 1086 722 1087 q 694 1084 705 1084 q 674 1082 684 1083 q 660 1082 665 1082 q 631 1084 644 1082 q 602 1088 617 1086 q 541 1098 563 1096 q 504 1101 519 1101 q 436 1090 461 1101 q 380 1062 411 1080 l 495 1145 q 536 1150 516 1150 q 569 1147 549 1150 q 605 1141 588 1144 q 697 1133 660 1133 q 762 1140 735 1133 q 820 1159 790 1148 l 724 1088 "},"þ":{"x_min":13.65625,"x_max":707,"ha":753,"o":"m 304 981 q 282 967 292 974 q 264 951 271 961 q 252 926 254 940 q 249 892 250 911 l 238 522 q 311 573 283 554 q 358 605 339 593 q 393 626 377 618 q 430 642 409 633 q 443 643 437 643 q 456 643 449 643 q 542 629 498 643 q 622 586 585 616 q 683 504 659 555 q 707 377 707 452 q 670 207 707 279 q 586 91 634 136 q 502 35 544 55 q 414 5 459 15 q 322 -5 369 -3 q 229 -8 276 -8 l 221 -258 q 221 -291 219 -279 q 227 -310 222 -304 q 242 -320 232 -316 q 269 -325 252 -323 q 302 -328 286 -327 q 334 -331 318 -329 l 286 -364 l 36 -364 q 72 -337 65 -344 q 83 -322 80 -330 q 88 -300 86 -316 q 90 -263 90 -284 q 92 -218 91 -243 q 93 -172 93 -194 q 94 -90 93 -131 q 97 -8 95 -48 l 102 369 q 104 506 103 453 q 106 604 105 560 q 108 695 106 649 q 112 813 109 742 q 113 873 113 843 q 115 934 113 903 l 13 934 l 115 981 l 304 981 m 237 466 q 236 415 237 450 q 235 335 235 380 q 233 241 234 290 q 231 146 233 192 q 229 64 230 100 q 229 10 229 28 l 301 56 q 374 56 340 56 q 438 62 409 57 q 492 78 467 67 q 538 108 517 89 q 583 180 570 139 q 597 267 597 222 q 577 389 597 336 q 528 479 558 443 q 462 534 498 515 q 394 553 427 553 q 326 534 355 553 q 274 496 298 516 l 237 466 "},"]":{"x_min":0.265625,"x_max":306,"ha":435,"o":"m 72 42 l 121 42 q 149 48 136 42 q 169 75 162 54 q 176 126 173 89 q 181 205 179 162 q 184 286 183 247 q 185 344 185 325 l 190 605 q 194 698 193 655 q 195 785 195 742 q 194 844 195 822 q 192 878 193 865 q 190 896 192 890 q 188 905 189 901 q 155 936 179 932 q 93 942 131 940 q 55 944 74 943 q 17 945 36 945 l 92 981 l 303 981 q 305 939 304 962 q 306 878 306 915 q 305 848 306 876 q 303 779 304 821 q 302 689 303 737 q 301 599 301 641 q 299 527 300 557 q 299 493 299 497 q 296 405 299 464 q 292 277 294 347 q 286 133 289 207 q 280 0 283 59 l 0 0 l 72 42 "},"m":{"x_min":5.828125,"x_max":1227.453125,"ha":1215,"o":"m 1170 0 l 943 0 q 962 20 955 12 q 971 38 969 29 q 976 57 974 47 q 977 84 977 68 l 979 369 q 977 426 979 404 q 974 462 976 448 q 970 483 973 476 q 966 497 967 491 q 958 512 965 501 q 939 537 952 524 q 905 561 926 551 q 852 572 884 572 q 788 558 816 572 q 739 526 761 545 q 702 487 718 508 q 678 452 687 466 l 676 335 q 674 249 675 285 q 674 169 674 212 l 674 74 q 683 49 675 55 q 723 40 691 44 l 799 31 l 739 0 l 509 0 q 525 18 519 9 q 535 34 531 26 q 540 54 538 43 q 543 83 541 66 l 545 316 q 544 421 547 375 q 530 497 541 468 q 486 552 516 533 q 415 571 455 571 q 356 559 381 571 q 311 531 332 548 q 273 491 290 514 q 239 444 255 468 l 239 91 q 245 53 239 63 q 280 40 251 42 l 361 31 l 301 0 l 73 0 q 91 20 85 12 q 101 38 97 29 q 107 58 105 47 q 108 86 108 69 l 110 133 l 110 585 l 5 585 l 98 629 l 269 629 q 255 615 262 622 q 245 601 248 609 q 242 578 242 592 q 240 523 241 563 q 269 551 258 540 q 290 569 281 562 q 303 581 298 576 q 316 591 309 585 q 394 631 349 615 q 490 647 440 647 q 573 632 540 647 q 626 597 606 617 q 657 555 646 577 q 673 517 667 533 q 703 551 683 530 q 755 594 724 573 q 829 631 787 616 q 924 647 871 647 q 1029 621 992 647 q 1084 558 1067 595 q 1105 480 1102 520 q 1109 410 1109 439 q 1109 380 1109 403 q 1108 331 1109 357 q 1108 281 1108 305 q 1108 249 1108 257 l 1108 107 q 1109 63 1108 71 q 1113 52 1110 54 q 1131 45 1117 47 q 1155 41 1145 42 l 1227 31 l 1170 0 "},"\u001b":{"x_min":40.21875,"x_max":773.78125,"ha":753,"o":"m 118 629 q 120 674 118 645 q 133 740 123 704 q 163 814 143 776 q 219 889 183 853 q 289 941 254 922 q 362 969 325 960 q 440 979 400 978 q 523 981 479 981 l 721 981 q 687 959 700 968 q 668 936 675 950 q 658 899 661 922 q 656 836 656 876 q 654 786 654 811 q 653 736 654 761 l 649 423 q 646 259 646 340 q 646 95 646 177 q 659 48 646 58 q 702 36 673 38 q 738 33 721 34 q 773 29 755 31 l 721 0 l 475 0 q 503 39 494 26 q 513 72 513 52 l 514 300 q 516 497 515 396 q 520 706 517 598 q 521 750 520 719 q 524 817 522 781 q 526 886 525 854 q 528 932 528 918 l 450 932 q 362 925 398 932 q 303 897 326 918 q 269 834 280 876 q 254 723 258 793 q 254 705 254 718 q 253 677 254 691 q 251 648 252 662 q 251 629 251 634 l 453 629 l 376 582 l 251 582 l 247 340 l 247 84 q 253 50 247 58 q 299 39 260 43 q 338 35 319 36 q 379 32 358 34 l 322 0 l 79 0 q 92 16 84 6 q 105 33 99 26 q 115 56 113 44 q 118 95 116 68 l 118 582 l 40 582 l 118 629 "},"8":{"x_min":50,"x_max":668,"ha":724,"o":"m 248 515 q 204 551 229 530 q 157 600 179 572 q 121 664 136 629 q 107 745 107 700 q 118 814 107 777 q 157 885 129 851 q 239 955 193 931 q 319 995 286 979 q 351 996 339 996 q 379 997 364 997 q 493 978 446 997 q 573 929 541 959 q 619 862 604 899 q 635 787 635 824 q 590 655 635 719 q 526 589 561 613 q 468 552 491 565 q 522 521 493 538 q 579 478 551 503 q 643 389 619 439 q 668 280 668 338 q 642 168 668 221 q 572 73 616 114 q 469 8 527 33 q 344 -17 411 -17 q 227 2 281 -17 q 134 57 173 21 q 72 139 94 92 q 50 244 50 187 q 66 335 50 289 q 116 419 83 380 q 186 478 148 455 q 248 515 223 502 m 425 572 q 455 592 439 581 q 489 625 472 603 q 517 677 507 647 q 528 742 528 707 q 514 813 528 778 q 477 877 501 849 q 417 923 453 906 q 337 941 382 941 q 273 929 300 941 q 230 897 247 917 q 206 854 214 878 q 199 809 199 831 q 212 745 199 775 q 248 690 225 715 q 302 643 271 665 q 368 602 333 621 l 425 572 m 289 490 q 244 467 268 480 q 196 425 219 454 q 164 365 172 396 q 156 305 156 334 q 171 219 156 265 q 216 134 186 173 q 291 71 246 96 q 394 46 336 46 q 465 57 431 46 q 523 91 498 69 q 562 145 548 114 q 576 214 576 176 q 557 295 576 259 q 511 357 538 330 q 455 402 484 383 q 406 432 426 421 q 384 443 399 434 q 349 460 368 451 q 313 477 330 469 q 289 490 296 486 "},"R":{"x_min":6.921875,"x_max":987.203125,"ha":926,"o":"m 108 981 l 387 981 q 470 976 429 981 q 548 954 512 971 q 662 869 616 928 q 708 729 708 810 q 689 639 708 678 q 647 572 671 600 q 597 527 623 544 q 558 501 571 510 q 583 473 571 486 q 605 446 595 460 q 628 414 616 432 q 658 373 641 397 q 698 315 677 344 q 741 258 719 286 l 784 200 q 834 135 812 162 q 879 82 856 107 q 928 37 902 58 q 987 -8 953 15 q 953 -14 969 -11 q 921 -17 938 -17 q 828 0 877 -17 q 739 45 778 17 q 696 83 717 62 q 653 134 676 105 q 603 200 630 163 q 545 284 577 237 l 479 376 q 457 405 466 394 q 440 422 448 416 q 422 430 431 428 q 400 433 413 433 q 388 432 393 433 q 365 429 383 431 q 330 425 347 426 q 292 425 312 425 l 292 336 q 292 280 292 302 q 292 234 292 258 q 294 180 293 211 q 296 99 294 149 q 297 74 296 84 q 304 58 298 65 q 321 47 309 51 q 354 43 333 44 q 407 39 381 40 q 459 37 433 38 l 380 0 l 91 0 q 115 25 105 13 q 131 50 124 37 q 140 78 137 62 q 143 118 143 94 q 143 416 143 268 q 150 714 144 564 q 151 758 150 725 q 154 827 152 790 q 156 894 155 864 q 156 930 156 924 l 6 930 l 108 981 m 292 465 q 364 468 323 465 q 451 495 405 471 q 514 543 491 516 q 548 597 537 570 q 561 647 559 623 q 564 684 564 671 q 546 783 564 737 q 501 861 529 828 q 451 904 476 889 q 399 927 425 920 q 348 935 372 934 q 302 936 324 936 q 298 861 299 900 q 296 783 297 822 q 294 711 294 747 q 292 639 293 675 l 292 465 "},"á":{"x_min":19,"x_max":631.71875,"ha":607,"o":"m 499 300 q 531 196 516 243 q 563 107 545 150 q 599 32 583 55 q 631 -11 615 9 q 610 -13 620 -12 q 591 -15 601 -15 q 546 -8 567 -15 q 505 9 526 -1 q 453 53 470 29 q 427 97 437 77 l 362 33 q 300 2 342 21 q 191 -17 258 -17 q 115 -5 148 -17 q 61 26 83 6 q 29 72 39 46 q 19 127 19 98 q 55 233 19 187 q 142 311 91 279 q 246 365 192 344 q 334 398 299 386 l 313 459 q 278 535 295 508 q 237 576 260 562 q 183 591 215 589 q 103 592 151 593 l 205 635 q 295 631 251 635 q 373 605 340 628 q 404 575 391 593 q 428 534 417 558 q 449 476 438 509 q 471 398 459 443 l 499 300 m 362 305 q 349 344 355 333 q 330 356 344 356 q 290 343 319 356 q 231 307 262 330 q 177 251 201 285 q 154 175 154 218 q 166 122 154 144 q 198 87 179 101 q 241 67 217 73 q 287 61 265 61 q 372 81 341 61 q 417 116 404 102 q 406 150 410 137 q 397 178 401 163 q 388 211 392 193 q 374 258 383 229 l 362 305 m 486 795 l 191 729 l 285 798 l 584 867 l 486 795 "},"×":{"x_min":83,"x_max":611,"ha":695,"o":"m 611 198 l 552 140 l 347 345 l 141 140 l 83 198 l 288 404 l 83 609 l 141 668 l 347 462 l 552 668 l 611 609 l 405 404 l 611 198 "},"o":{"x_min":44,"x_max":737,"ha":781,"o":"m 737 319 q 713 197 737 258 q 645 89 689 137 q 534 11 600 41 q 383 -18 468 -18 q 236 11 300 -18 q 130 87 173 40 q 66 193 88 134 q 44 309 44 251 q 70 438 44 377 q 144 546 96 499 q 258 619 192 592 q 404 647 325 647 q 542 619 480 647 q 647 545 604 591 q 714 440 691 499 q 737 319 737 381 m 415 24 q 494 42 455 24 q 557 94 533 61 q 590 168 582 128 q 599 248 599 208 q 587 355 599 294 q 548 472 575 416 q 476 565 521 527 q 368 604 432 604 q 300 591 333 604 q 242 556 268 579 q 190 476 202 520 q 179 387 179 431 q 192 273 179 336 q 233 154 205 209 q 307 61 262 98 q 415 24 352 24 "},"5":{"x_min":26.46875,"x_max":719.875,"ha":724,"o":"m 341 988 q 395 984 370 985 q 439 982 419 983 q 476 981 459 981 q 505 981 493 981 q 614 984 560 981 q 719 1006 668 987 l 701 965 l 576 859 l 529 853 l 551 884 q 492 877 528 881 q 399 874 457 874 q 328 875 362 874 q 257 880 293 877 l 192 710 q 245 702 212 707 q 315 686 278 696 q 391 658 353 675 q 462 616 429 641 q 543 516 517 572 q 570 399 570 460 q 547 289 570 340 q 487 193 524 238 q 405 117 450 150 q 314 61 361 85 q 223 20 268 37 q 141 -10 179 3 l 26 -19 q 100 9 66 -3 q 162 35 133 22 q 219 64 191 49 q 276 99 247 79 q 357 165 326 132 q 407 230 389 199 q 432 294 425 262 q 439 354 439 325 q 420 449 439 411 q 379 510 401 486 q 341 541 364 526 q 285 568 319 556 q 201 590 251 581 q 79 603 151 599 l 112 657 q 124 677 119 669 q 133 693 129 685 q 141 711 137 701 q 151 737 144 721 l 219 917 l 341 988 "},"õ":{"x_min":44,"x_max":737,"ha":781,"o":"m 737 319 q 713 197 737 258 q 645 89 689 137 q 534 11 600 41 q 383 -18 468 -18 q 236 11 300 -18 q 130 87 173 40 q 66 193 88 134 q 44 309 44 251 q 70 438 44 377 q 144 546 96 499 q 258 619 192 592 q 404 647 325 647 q 542 619 480 647 q 647 545 604 591 q 714 440 691 499 q 737 319 737 381 m 415 24 q 494 42 455 24 q 557 94 533 61 q 590 168 582 128 q 599 248 599 208 q 587 355 599 294 q 548 472 575 416 q 476 565 521 527 q 368 604 432 604 q 300 591 333 604 q 242 556 268 579 q 190 476 202 520 q 179 387 179 431 q 192 273 179 336 q 233 154 205 209 q 307 61 262 98 q 415 24 352 24 m 509 769 q 498 767 506 768 q 479 765 489 765 q 459 763 468 764 q 445 763 449 763 q 415 765 428 763 q 387 769 402 767 q 326 779 348 777 q 288 782 303 782 q 220 771 245 782 q 165 743 195 761 l 280 826 q 320 831 301 831 q 353 828 334 831 q 389 822 373 825 q 481 814 445 814 q 547 821 520 814 q 605 840 574 829 l 509 769 "},"7":{"x_min":33.34375,"x_max":723.671875,"ha":724,"o":"m 263 1006 q 267 993 265 998 q 276 986 269 988 q 300 982 281 983 q 338 981 318 982 q 379 981 359 981 q 406 981 398 981 q 565 981 481 981 q 723 983 648 982 q 593 751 651 862 q 487 533 536 639 q 452 454 472 501 q 410 358 431 408 q 368 261 388 309 q 333 177 348 213 q 308 114 320 145 q 281 51 295 83 l 275 34 q 226 11 245 20 q 188 -7 206 2 q 150 -28 170 -16 q 95 -60 129 -40 q 115 -15 106 -35 q 134 25 123 3 q 161 76 145 46 q 201 152 176 106 q 257 262 229 207 q 315 371 286 317 q 459 628 384 502 q 615 880 534 755 q 504 875 559 877 q 395 873 450 873 q 336 873 366 873 q 277 874 306 874 q 220 875 250 874 q 168 878 191 876 l 108 837 l 33 818 l 209 993 l 263 1006 "},"K":{"x_min":16.265625,"x_max":984.28125,"ha":926,"o":"m 773 207 q 832 139 806 168 q 881 85 857 110 q 929 38 905 60 q 984 -8 953 17 q 947 -15 964 -12 q 912 -18 930 -18 q 801 9 853 -18 q 698 85 749 37 q 596 196 646 132 q 489 334 545 260 l 420 424 q 388 464 406 445 q 377 475 384 469 q 360 481 370 481 q 346 476 352 481 q 335 467 341 471 l 286 416 l 287 223 q 287 188 287 210 q 287 143 287 166 q 289 98 288 120 q 292 67 291 77 q 300 53 295 59 q 337 44 306 46 l 449 38 l 380 0 l 95 0 l 131 44 q 143 62 141 55 q 147 84 145 69 q 147 122 147 94 q 146 181 147 149 q 144 240 145 212 q 144 280 144 269 q 145 606 142 444 q 151 933 148 769 l 16 928 l 107 982 l 353 982 l 324 957 q 300 935 304 943 q 295 915 296 927 q 294 894 295 909 q 293 862 293 879 q 291 830 292 845 q 291 809 291 815 q 290 747 290 777 q 290 686 290 718 l 286 493 l 380 584 q 493 705 449 656 q 570 790 538 753 q 627 860 602 827 q 682 933 652 892 l 543 933 l 627 982 l 823 982 l 788 954 q 775 943 780 947 q 759 923 771 938 q 609 758 684 840 q 457 594 535 676 q 506 541 478 573 q 559 478 534 508 q 601 426 584 448 q 620 403 618 404 q 641 375 625 396 q 673 332 656 355 q 706 289 691 309 q 728 261 721 269 l 773 207 "},",":{"x_min":13,"x_max":256,"ha":347,"o":"m 235 111 q 249 94 243 103 q 256 69 256 85 q 252 47 256 58 q 244 26 249 36 q 203 -44 231 -5 q 150 -119 176 -84 q 103 -179 124 -155 q 83 -204 83 -204 l 13 -243 l 50 -188 q 74 -150 61 -169 q 99 -112 86 -131 q 128 -65 114 -90 q 143 -17 143 -40 q 139 3 143 -5 q 129 18 135 11 q 103 50 118 32 q 76 82 87 68 q 107 107 94 97 q 130 128 119 118 q 152 148 140 137 q 181 174 164 158 l 235 111 "},"d":{"x_min":44,"x_max":764.84375,"ha":753,"o":"m 702 0 l 396 0 q 322 2 362 0 q 243 16 282 5 q 166 51 203 27 q 99 116 128 74 q 59 192 75 148 q 44 294 44 235 q 68 419 44 365 q 130 512 92 473 q 216 577 169 552 q 309 614 263 602 q 414 630 362 628 q 519 633 467 633 q 524 795 523 716 q 525 932 526 874 l 415 932 l 522 981 l 710 981 q 678 958 690 967 q 660 934 666 949 q 653 894 655 919 q 652 825 652 869 l 647 455 q 642 268 644 340 q 641 140 641 196 q 641 88 641 98 q 644 72 642 78 q 657 49 646 55 q 702 42 669 43 q 733 39 717 40 q 764 36 749 39 l 702 0 m 516 590 q 481 592 497 591 q 446 592 464 592 q 406 591 428 592 q 359 583 384 590 q 308 566 334 577 q 257 535 282 555 q 188 442 203 492 q 173 347 173 391 q 187 244 173 298 q 233 145 202 190 q 314 70 264 100 q 432 41 363 41 q 475 45 459 41 q 498 56 491 49 q 508 71 506 63 q 512 86 510 79 q 514 122 513 95 q 515 183 514 150 q 516 246 516 217 q 516 289 516 276 l 516 590 "},"¨":{"x_min":-49,"x_max":425,"ha":376,"o":"m 326 734 q 303 759 312 748 q 286 779 294 769 q 270 802 279 790 q 249 833 262 815 q 279 856 268 847 q 301 873 291 865 q 321 891 311 882 q 347 914 331 900 q 368 886 359 897 q 384 866 376 875 q 400 845 391 857 q 425 818 409 834 q 398 793 409 802 q 377 775 387 783 q 354 757 366 766 q 326 734 343 747 m 31 733 q 6 757 16 746 q -11 777 -3 767 q -28 798 -19 787 q -49 828 -36 810 q -21 851 -32 841 q 0 869 -10 860 q 21 888 10 878 q 46 912 31 898 q 69 884 60 895 q 87 863 78 873 q 105 843 95 853 q 127 819 114 833 q 101 793 112 803 q 80 773 91 783 q 59 755 70 764 q 31 733 48 745 "},"Ô":{"x_min":53,"x_max":1162,"ha":1215,"o":"m 1162 512 q 1122 311 1162 408 q 1009 141 1082 215 q 830 23 935 67 q 594 -21 724 -21 q 367 20 468 -21 q 197 131 266 62 q 90 291 127 201 q 53 480 53 381 q 89 666 53 573 q 197 833 125 759 q 377 954 269 907 q 626 1001 484 1001 q 845 962 747 1001 q 1014 857 944 924 q 1123 702 1084 791 q 1162 512 1162 613 m 1011 456 q 1006 537 1011 495 q 990 620 1001 578 q 938 736 973 677 q 851 844 904 795 q 732 923 799 892 q 581 954 665 954 q 436 926 505 954 q 314 844 366 898 q 231 714 262 791 q 200 538 200 637 q 231 350 200 442 q 321 188 263 259 q 459 73 379 117 q 637 30 540 30 q 758 51 692 30 q 880 122 824 73 q 973 253 936 171 q 1011 456 1011 335 m 806 1097 l 735 1065 l 597 1130 l 381 1052 l 505 1145 l 616 1186 l 806 1097 "},"E":{"x_min":10.046875,"x_max":781.109375,"ha":724,"o":"m 654 0 l 92 0 q 119 32 108 19 q 134 58 129 45 q 140 86 139 70 q 142 123 142 101 q 145 527 142 326 q 158 932 148 729 l 10 932 l 110 981 l 688 981 l 599 899 l 563 889 q 575 907 568 896 q 582 920 582 918 q 569 929 582 927 q 540 931 560 930 q 497 932 521 932 q 448 932 474 932 q 400 932 422 932 l 301 932 l 288 543 l 608 543 l 528 466 l 490 455 q 504 479 501 475 q 507 486 507 483 q 502 494 507 493 q 492 496 497 496 l 329 496 q 297 489 308 496 q 288 455 286 482 l 288 138 q 289 96 288 113 q 300 70 290 80 q 328 55 308 60 q 372 47 349 49 q 418 44 396 45 q 454 44 440 44 q 519 45 486 44 q 583 52 551 46 q 657 69 632 59 q 706 89 682 78 l 781 114 l 654 0 "},"Y":{"x_min":-98.65625,"x_max":910.09375,"ha":868,"o":"m 615 0 l 331 0 l 362 47 q 372 70 370 62 q 375 95 373 77 l 375 402 l 249 598 q 190 686 219 643 q 130 775 161 730 q 109 805 124 783 q 77 850 94 826 q 43 897 59 875 q 22 928 27 919 l -98 928 l -1 982 l 238 982 q 231 974 236 979 q 220 963 226 969 q 210 953 215 958 q 205 947 205 948 q 201 934 201 943 q 206 916 201 926 q 213 900 211 907 q 240 856 223 883 q 294 769 256 829 l 354 679 q 370 654 358 672 q 395 618 381 637 q 422 580 409 598 q 440 555 434 562 q 448 543 441 552 q 461 524 454 534 q 473 505 468 513 q 480 495 479 497 l 572 626 q 620 700 596 663 q 668 775 644 737 q 704 830 690 808 q 728 869 718 852 q 746 899 739 886 q 762 928 754 912 l 593 928 l 687 982 l 910 982 l 857 943 q 838 927 846 933 q 824 913 830 920 q 811 896 818 905 q 794 873 804 887 l 517 451 l 517 100 q 521 67 517 76 q 542 54 526 58 q 598 43 561 47 q 678 35 635 39 l 615 0 "},"\"":{"x_min":83,"x_max":467,"ha":550,"o":"m 418 618 l 390 618 l 346 953 q 345 965 346 960 q 345 976 345 970 q 367 1026 345 1012 q 408 1040 389 1040 q 432 1035 421 1040 q 462 1007 458 1024 q 467 971 467 990 l 418 618 m 156 618 l 128 618 l 84 953 q 83 965 84 960 q 83 976 83 970 q 105 1026 83 1012 q 146 1040 127 1040 q 170 1035 159 1040 q 200 1007 196 1024 q 205 971 205 990 l 156 618 "},"‹":{"x_min":28,"x_max":349,"ha":377,"o":"m 347 124 l 305 88 l 28 361 l 311 629 l 349 591 l 105 361 l 347 124 "},"ê":{"x_min":45,"x_max":625.59375,"ha":607,"o":"m 551 30 q 529 17 540 23 q 506 5 517 10 q 437 -15 471 -9 q 371 -21 403 -21 q 333 -19 354 -21 q 288 -13 313 -18 q 238 2 264 -8 q 186 33 213 13 q 122 93 149 59 q 79 166 96 127 q 53 246 61 205 q 45 326 45 287 q 74 467 45 406 q 150 567 104 527 q 252 626 196 606 q 363 647 308 647 q 437 637 400 647 q 506 608 474 627 q 549 571 532 591 q 576 533 565 552 q 593 499 588 515 q 603 470 599 483 l 276 338 l 170 330 q 210 212 182 263 q 276 124 238 160 q 360 69 314 88 q 456 51 406 51 q 549 66 508 51 q 625 99 589 81 l 551 30 m 420 444 q 450 458 440 451 q 461 481 461 466 q 449 523 461 502 q 420 562 438 545 q 376 589 401 578 q 323 601 351 601 q 274 591 302 601 q 222 560 247 582 q 181 501 198 538 q 164 408 164 463 q 165 372 164 390 q 168 334 166 353 l 420 444 m 547 778 l 476 747 l 337 811 l 122 735 l 245 826 l 356 867 l 547 778 "},"Ï":{"x_min":-9.71875,"x_max":463.921875,"ha":435,"o":"m 384 0 l 91 0 q 119 35 109 22 q 134 59 128 48 q 141 79 139 69 q 144 105 142 90 q 144 345 144 227 q 146 568 145 462 q 150 766 148 675 q 157 932 153 858 l 17 932 l 109 981 l 360 981 l 325 951 q 315 942 320 946 q 308 930 311 937 q 306 921 306 928 q 304 892 306 915 q 301 829 303 864 q 299 757 300 794 q 297 685 297 721 q 295 622 296 650 l 289 416 q 287 325 288 370 q 287 234 287 280 l 287 145 q 288 94 287 113 q 294 64 289 74 q 310 49 299 53 q 341 44 321 45 l 443 33 l 384 0 m 365 1054 q 342 1078 351 1068 q 325 1099 333 1088 q 309 1121 318 1109 q 288 1152 301 1133 q 318 1175 306 1166 q 340 1193 330 1184 q 360 1210 350 1201 q 386 1232 370 1219 q 406 1204 398 1215 q 422 1185 415 1194 q 439 1165 430 1176 q 463 1137 448 1154 q 437 1112 448 1122 q 416 1093 426 1102 q 393 1075 405 1084 q 365 1054 381 1066 m 70 1052 q 45 1077 55 1066 q 27 1097 36 1087 q 11 1118 19 1107 q -9 1147 2 1130 q 18 1170 6 1161 q 39 1189 29 1180 q 60 1208 50 1198 q 86 1232 70 1218 q 109 1204 100 1215 q 126 1182 118 1193 q 144 1161 134 1172 q 166 1137 154 1151 q 140 1111 151 1122 q 120 1093 130 1101 q 98 1075 109 1084 q 70 1052 87 1065 "},"„":{"x_min":22.09375,"x_max":478,"ha":550,"o":"m 261 -205 q 338 -94 302 -148 q 374 -4 374 -41 q 372 9 374 3 q 364 24 371 15 q 346 47 358 33 q 315 83 335 61 q 371 133 349 114 q 414 172 393 153 q 449 132 436 147 q 468 107 462 117 q 476 90 475 97 q 478 70 478 82 q 455 2 478 43 q 404 -77 432 -38 q 353 -146 376 -117 q 330 -175 330 -175 l 261 -205 m 47 -167 q 73 -132 58 -153 q 102 -87 88 -110 q 126 -41 116 -64 q 136 0 136 -18 q 131 21 136 12 q 120 36 126 29 q 100 60 112 47 q 80 85 88 74 q 107 108 97 99 q 127 127 117 118 q 149 146 137 136 q 179 174 161 157 q 213 133 201 149 q 232 106 226 117 q 240 88 238 96 q 243 69 243 80 q 229 24 243 50 q 193 -34 216 0 q 148 -98 170 -67 q 109 -149 126 -128 q 92 -170 92 -170 l 22 -202 l 47 -167 "},"Â":{"x_min":19.453125,"x_max":1093.140625,"ha":1042,"o":"m 370 971 l 565 985 q 586 937 570 972 q 620 864 602 903 q 654 792 638 826 q 675 748 670 758 q 699 692 686 723 q 727 627 712 661 q 754 563 741 594 q 779 507 768 532 l 833 383 q 908 229 876 290 q 968 126 940 168 q 1025 56 995 84 q 1093 0 1054 27 q 1045 -10 1066 -7 q 1001 -14 1025 -14 q 947 -6 973 -14 q 890 20 922 1 q 841 61 862 38 q 802 110 819 84 q 772 165 786 137 q 744 225 758 193 l 662 417 q 628 407 643 411 q 602 399 613 403 q 578 391 590 395 q 552 381 566 386 l 331 381 q 298 376 308 381 q 277 360 288 372 l 156 136 q 150 120 154 129 q 147 104 147 112 q 166 77 147 86 q 238 51 194 61 q 315 36 281 41 l 198 0 q 82 11 120 -2 q 19 41 44 26 q 70 109 45 76 q 119 182 94 141 q 173 276 144 222 q 240 408 202 331 l 291 517 q 326 586 313 560 q 350 636 338 613 q 372 688 361 660 q 405 763 384 716 q 421 799 415 784 q 432 825 427 813 q 441 848 437 837 q 450 874 445 859 q 422 910 440 897 q 381 929 404 923 q 332 936 358 936 q 281 936 306 937 l 370 971 m 569 430 q 619 433 602 433 q 655 436 636 434 q 618 525 643 469 q 568 639 594 581 q 519 745 543 697 q 486 815 495 794 q 441 711 459 754 q 404 626 423 669 q 367 551 386 588 q 330 475 348 513 q 320 453 325 464 q 311 431 315 442 l 569 430 m 720 1097 l 650 1065 l 511 1130 l 295 1052 l 419 1145 l 530 1186 l 720 1097 "},"\u0006":{"x_min":99,"x_max":278,"ha":376,"o":"m 178 733 q 154 757 164 746 q 136 778 144 767 q 119 800 128 788 q 99 830 111 812 q 128 854 117 845 q 149 871 140 863 q 169 889 158 880 q 196 915 179 899 q 217 887 208 898 q 235 865 226 876 q 254 844 244 855 q 278 819 264 834 q 250 793 261 803 q 230 773 240 783 q 207 755 219 764 q 178 733 196 746 "},"Í":{"x_min":17.609375,"x_max":511.15625,"ha":435,"o":"m 384 0 l 91 0 q 119 35 109 22 q 134 59 128 48 q 141 79 139 69 q 144 105 142 90 q 144 345 144 227 q 146 568 145 462 q 150 766 148 675 q 157 932 153 858 l 17 932 l 109 981 l 360 981 l 325 951 q 315 942 320 946 q 308 930 311 937 q 306 921 306 928 q 304 892 306 915 q 301 829 303 864 q 299 757 300 794 q 297 685 297 721 q 295 622 296 650 l 289 416 q 287 325 288 370 q 287 234 287 280 l 287 145 q 288 94 287 113 q 294 64 289 74 q 310 49 299 53 q 341 44 321 45 l 443 33 l 384 0 m 413 1115 l 118 1048 l 212 1118 l 511 1186 l 413 1115 "},"´":{"x_min":-8,"x_max":385,"ha":377,"o":"m 287 795 l -8 729 l 86 798 l 385 867 l 287 795 "},"ì":{"x_min":-109,"x_max":364.40625,"ha":347,"o":"m 310 0 l 75 0 q 95 22 87 13 q 106 40 103 31 q 111 59 110 48 q 113 88 113 70 l 113 580 l 8 580 l 101 629 l 268 629 q 255 610 259 617 q 249 595 251 602 q 245 580 247 588 q 244 558 244 572 l 239 155 q 239 142 239 151 q 238 121 239 132 q 238 99 238 110 q 238 85 238 89 q 249 47 238 54 q 293 38 261 40 l 364 32 l 310 0 m 287 729 l -14 795 l -109 867 l 189 798 l 287 729 "},"±":{"x_min":42.703125,"x_max":651.4375,"ha":695,"o":"m 390 211 l 308 211 l 308 475 l 42 475 l 42 557 l 308 557 l 308 820 l 390 820 l 390 557 l 651 557 l 651 475 l 390 475 l 390 211 m 651 0 l 43 0 l 43 82 l 651 82 l 651 0 "},"Ú":{"x_min":-18.625,"x_max":988.171875,"ha":1041,"o":"m 988 981 l 950 949 q 939 933 942 940 q 934 897 936 925 q 933 864 934 880 q 933 832 933 848 l 919 427 q 912 345 916 387 q 899 259 909 302 q 871 174 889 216 q 822 97 853 133 q 686 6 766 33 q 520 -21 605 -21 q 410 -11 455 -21 q 337 9 365 -1 q 211 91 255 41 q 147 195 167 141 q 123 298 126 248 q 120 380 120 348 q 121 502 120 436 q 126 664 123 569 l 128 748 q 129 800 128 779 q 130 841 130 822 q 130 880 130 859 q 130 928 130 900 l -18 928 l 85 981 l 336 981 l 300 950 q 283 924 284 937 q 278 879 280 915 q 274 801 276 843 q 270 721 272 759 q 268 668 268 682 l 264 529 q 262 429 262 473 q 265 348 262 384 q 273 281 268 312 q 289 222 279 249 q 394 80 322 128 q 568 33 466 33 q 640 40 605 33 q 708 66 676 48 q 820 184 781 106 q 856 308 848 238 q 868 469 863 377 l 872 650 q 872 714 872 684 q 872 775 873 744 q 870 843 872 807 q 868 928 869 879 l 709 928 l 816 981 l 988 981 m 717 1115 l 422 1048 l 516 1118 l 814 1186 l 717 1115 "},"|":{"x_min":118,"x_max":201,"ha":318,"o":"m 118 -347 l 118 1042 l 201 1042 l 201 -347 l 118 -347 "},"§":{"x_min":44,"x_max":621,"ha":665,"o":"m 470 552 q 519 528 492 542 q 568 494 545 515 q 606 445 591 474 q 621 374 621 416 q 607 300 621 333 q 573 243 593 267 q 533 202 554 219 q 498 176 512 185 q 530 149 512 165 q 562 110 547 133 q 588 60 578 88 q 599 -5 599 31 q 580 -95 599 -51 q 525 -173 562 -139 q 434 -228 489 -207 q 309 -249 380 -249 q 246 -244 278 -249 q 182 -226 213 -239 q 123 -193 150 -214 q 75 -140 96 -172 q 51 -83 56 -108 q 45 -40 47 -59 l 189 0 q 187 -22 188 -11 q 187 -47 187 -34 q 198 -120 187 -90 q 228 -171 209 -151 q 271 -200 246 -191 q 320 -210 295 -210 q 381 -194 355 -210 q 426 -155 408 -179 q 452 -103 444 -132 q 461 -49 461 -75 q 442 28 461 -3 q 399 83 424 60 q 346 119 374 105 q 296 142 317 134 l 205 176 q 153 199 181 185 q 101 235 126 213 q 60 287 77 256 q 44 363 44 319 q 57 440 44 406 q 91 498 71 473 q 132 540 112 523 q 164 566 152 556 q 154 576 159 572 q 145 586 149 580 q 94 661 113 617 q 76 747 76 704 q 91 825 76 783 q 142 904 107 868 q 233 964 177 940 q 369 989 290 989 q 442 982 397 989 q 531 943 487 975 q 578 898 561 922 q 604 852 595 875 q 614 811 612 830 q 618 779 616 791 l 480 741 q 482 764 481 752 q 483 788 483 776 q 473 850 483 822 q 446 900 464 879 q 403 934 428 922 q 348 947 378 947 q 289 935 316 947 q 243 902 263 923 q 213 853 224 881 q 202 795 202 826 q 211 740 202 774 q 253 670 220 706 q 311 624 279 641 q 373 592 342 606 l 470 552 m 460 201 q 495 238 476 215 q 515 302 515 262 q 510 333 515 313 q 491 377 506 352 q 429 438 467 415 q 332 487 391 462 q 277 509 297 501 q 245 521 257 516 q 223 530 232 526 q 202 541 214 534 q 167 502 184 525 q 151 440 151 479 q 169 370 151 400 q 215 318 188 340 q 272 281 242 295 q 326 256 302 266 q 369 240 352 247 q 401 229 387 234 q 428 217 414 223 q 460 201 441 211 "},"Ý":{"x_min":-98.65625,"x_max":910.09375,"ha":868,"o":"m 615 0 l 331 0 l 362 47 q 372 70 370 62 q 375 95 373 77 l 375 402 l 249 598 q 190 686 219 643 q 130 775 161 730 q 109 805 124 783 q 77 850 94 826 q 43 897 59 875 q 22 928 27 919 l -98 928 l -1 982 l 238 982 q 231 974 236 979 q 220 963 226 969 q 210 953 215 958 q 205 947 205 948 q 201 934 201 943 q 206 916 201 926 q 213 900 211 907 q 240 856 223 883 q 294 769 256 829 l 354 679 q 370 654 358 672 q 395 618 381 637 q 422 580 409 598 q 440 555 434 562 q 448 543 441 552 q 461 524 454 534 q 473 505 468 513 q 480 495 479 497 l 572 626 q 620 700 596 663 q 668 775 644 737 q 704 830 690 808 q 728 869 718 852 q 746 899 739 886 q 762 928 754 912 l 593 928 l 687 982 l 910 982 l 857 943 q 838 927 846 933 q 824 913 830 920 q 811 896 818 905 q 794 873 804 887 l 517 451 l 517 100 q 521 67 517 76 q 542 54 526 58 q 598 43 561 47 q 678 35 635 39 l 615 0 m 630 1115 l 334 1048 l 429 1118 l 727 1186 l 630 1115 "},"b":{"x_min":19.328125,"x_max":707,"ha":753,"o":"m 65 0 q 88 25 80 15 q 101 45 97 36 q 106 66 105 54 q 107 95 107 77 l 107 159 q 107 272 107 227 q 108 354 108 316 q 109 431 108 391 q 111 529 109 471 q 115 728 113 624 q 120 934 117 832 l 19 934 l 120 981 l 308 981 q 279 962 290 969 q 263 944 269 954 q 255 921 257 935 q 252 887 253 908 l 241 599 l 332 633 q 357 634 345 633 q 384 635 370 635 q 528 609 467 635 q 628 543 588 584 q 687 449 668 503 q 707 339 707 396 q 692 238 707 287 q 647 148 677 190 q 571 74 616 106 q 465 20 526 41 q 395 4 425 6 q 333 0 365 1 l 65 0 m 239 467 q 239 399 239 437 q 238 324 239 362 q 238 248 238 286 q 238 182 238 211 q 238 112 238 132 q 241 85 239 93 q 243 65 241 74 q 252 51 245 57 q 276 41 260 44 q 320 38 292 38 q 414 47 377 38 q 496 88 464 61 q 545 149 527 115 q 569 219 563 183 q 576 288 576 255 q 569 357 576 318 q 543 438 562 397 q 488 515 524 478 q 397 573 453 552 q 313 593 351 591 q 240 594 275 595 l 239 467 "},"q":{"x_min":41,"x_max":754.953125,"ha":752,"o":"m 710 -364 l 464 -364 q 497 -332 491 -339 q 508 -319 503 -326 q 512 -296 512 -309 q 515 -259 513 -283 l 520 34 l 427 1 q 396 0 407 0 q 374 -1 384 -1 q 241 19 302 -1 q 135 78 180 39 q 66 173 91 117 q 41 300 41 229 q 70 430 41 369 q 150 535 99 490 q 271 605 202 579 q 421 631 341 631 l 694 631 q 672 603 680 614 q 659 585 663 593 q 654 571 655 578 q 654 554 654 564 q 654 505 654 540 q 654 429 654 469 q 655 353 655 389 q 655 301 655 316 q 655 205 655 253 q 654 108 655 157 l 649 -116 q 648 -195 649 -156 q 648 -275 648 -233 q 654 -312 648 -305 q 670 -322 661 -319 q 686 -325 674 -323 q 711 -329 698 -327 q 738 -333 725 -332 q 754 -336 750 -334 l 710 -364 m 523 454 q 523 501 523 483 q 521 530 523 519 q 518 548 520 541 q 513 562 517 555 q 479 587 502 583 q 428 592 456 592 q 367 587 400 592 q 299 568 334 583 q 202 481 233 539 q 172 350 172 423 q 190 234 172 291 q 242 136 208 177 q 312 78 274 98 q 387 49 349 58 q 459 39 424 40 q 520 39 493 39 l 523 454 "},"Ö":{"x_min":53,"x_max":1162,"ha":1215,"o":"m 1162 512 q 1122 311 1162 408 q 1009 141 1082 215 q 830 23 935 67 q 594 -21 724 -21 q 367 20 468 -21 q 197 131 266 62 q 90 291 127 201 q 53 480 53 381 q 89 666 53 573 q 197 833 125 759 q 377 954 269 907 q 626 1001 484 1001 q 845 962 747 1001 q 1014 857 944 924 q 1123 702 1084 791 q 1162 512 1162 613 m 1011 456 q 1006 537 1011 495 q 990 620 1001 578 q 938 736 973 677 q 851 844 904 795 q 732 923 799 892 q 581 954 665 954 q 436 926 505 954 q 314 844 366 898 q 231 714 262 791 q 200 538 200 637 q 231 350 200 442 q 321 188 263 259 q 459 73 379 117 q 637 30 540 30 q 758 51 692 30 q 880 122 824 73 q 973 253 936 171 q 1011 456 1011 335 m 744 1054 q 721 1078 730 1068 q 704 1099 712 1088 q 688 1121 697 1109 q 668 1152 680 1133 q 697 1175 686 1166 q 719 1193 709 1184 q 739 1210 729 1201 q 765 1232 750 1219 q 786 1204 777 1215 q 802 1185 794 1194 q 818 1165 809 1176 q 843 1137 827 1154 q 816 1112 827 1122 q 795 1093 805 1102 q 772 1075 784 1084 q 744 1054 761 1066 m 450 1052 q 425 1077 434 1066 q 406 1097 415 1087 q 390 1118 398 1107 q 369 1147 381 1130 q 397 1170 386 1161 q 418 1189 408 1180 q 439 1208 429 1198 q 465 1232 450 1218 q 488 1204 479 1215 q 505 1182 497 1193 q 523 1161 513 1172 q 545 1137 533 1151 q 520 1111 530 1122 q 499 1093 509 1101 q 477 1075 488 1084 q 450 1052 466 1065 "},"z":{"x_min":-8.328125,"x_max":587.546875,"ha":579,"o":"m 481 -18 l 429 -34 l 465 4 l -8 -7 q 31 46 16 26 q 59 82 47 66 q 82 113 70 98 q 111 152 94 129 l 256 364 q 313 446 290 411 q 355 506 337 480 q 386 552 373 532 q 412 592 400 572 l 181 586 l 100 526 l 34 505 l 165 636 l 211 645 q 218 632 211 633 q 240 629 222 629 l 584 638 q 564 608 573 622 q 546 581 555 594 q 527 551 537 567 q 502 515 516 536 l 465 461 q 427 403 443 426 q 395 352 412 379 q 354 291 377 326 q 291 198 330 255 q 256 145 270 168 q 229 105 241 123 q 204 70 216 87 q 179 36 193 54 l 383 41 q 461 45 430 42 q 512 53 491 48 q 550 64 533 58 q 587 81 566 70 l 568 50 l 481 -18 "},"™":{"x_min":30.046875,"x_max":1023.171875,"ha":1070,"o":"m 581 850 l 581 632 q 582 596 581 609 q 589 576 583 583 q 605 566 594 569 q 636 562 617 563 l 636 519 q 592 519 610 519 q 557 520 574 520 q 521 519 540 520 q 472 519 501 519 l 472 562 q 499 567 489 565 q 514 576 510 570 q 521 595 519 583 q 524 632 524 608 l 524 922 q 502 935 514 933 q 479 939 490 937 l 479 982 q 512 981 496 981 q 546 981 529 981 q 577 981 561 981 q 608 982 593 981 l 748 638 l 892 981 q 925 981 910 981 q 953 981 939 981 q 983 981 967 981 q 1023 982 999 982 l 1023 939 q 991 934 1002 937 q 975 923 981 932 q 969 900 970 915 q 969 862 969 886 l 969 632 q 969 588 969 597 q 974 574 970 580 q 987 566 978 567 q 1014 562 995 564 l 1014 519 q 971 521 994 520 q 926 522 949 522 q 883 521 905 522 q 840 519 862 520 l 840 562 q 874 568 863 564 q 886 592 884 573 l 886 845 l 748 521 l 718 521 l 581 850 m 30 862 q 32 892 31 879 q 33 918 32 905 q 34 945 34 930 q 35 981 35 960 l 426 981 q 427 945 426 960 q 428 918 427 930 q 429 892 429 905 q 431 862 430 879 l 390 862 q 373 904 380 890 q 355 926 366 919 q 326 934 344 933 q 275 936 308 936 l 275 628 q 276 589 275 598 q 283 574 277 580 q 302 566 290 567 q 337 562 313 564 l 337 519 q 286 521 304 520 q 257 522 268 522 q 242 522 247 522 q 230 522 237 522 q 218 522 223 522 q 203 522 213 522 q 174 521 192 522 q 123 519 156 520 l 123 562 q 158 565 145 563 q 177 573 171 567 q 185 592 184 580 q 187 628 187 605 l 187 936 q 135 934 153 936 q 106 926 117 933 q 88 904 95 919 q 71 862 81 890 l 30 862 "},"\u000b":{"x_min":78,"x_max":298.796875,"ha":376,"o":"m 276 -10 q 202 -58 234 -33 q 171 -121 171 -83 q 186 -153 171 -144 q 219 -163 201 -163 q 257 -158 234 -163 q 298 -149 279 -153 l 265 -196 q 234 -203 250 -200 q 193 -207 218 -207 q 133 -197 158 -207 q 91 -165 105 -186 q 78 -120 78 -144 q 109 -55 78 -80 q 180 -19 140 -31 q 191 -15 182 -17 q 211 -9 201 -12 q 231 -5 222 -7 q 241 -3 240 -3 l 276 -10 "},"ã":{"x_min":19,"x_max":631.71875,"ha":607,"o":"m 499 300 q 531 196 516 243 q 563 107 545 150 q 599 32 583 55 q 631 -11 615 9 q 610 -13 620 -12 q 591 -15 601 -15 q 546 -8 567 -15 q 505 9 526 -1 q 453 53 470 29 q 427 97 437 77 l 362 33 q 300 2 342 21 q 191 -17 258 -17 q 115 -5 148 -17 q 61 26 83 6 q 29 72 39 46 q 19 127 19 98 q 55 233 19 187 q 142 311 91 279 q 246 365 192 344 q 334 398 299 386 l 313 459 q 278 535 295 508 q 237 576 260 562 q 183 591 215 589 q 103 592 151 593 l 205 635 q 295 631 251 635 q 373 605 340 628 q 404 575 391 593 q 428 534 417 558 q 449 476 438 509 q 471 398 459 443 l 499 300 m 362 305 q 349 344 355 333 q 330 356 344 356 q 290 343 319 356 q 231 307 262 330 q 177 251 201 285 q 154 175 154 218 q 166 122 154 144 q 198 87 179 101 q 241 67 217 73 q 287 61 265 61 q 372 81 341 61 q 417 116 404 102 q 406 150 410 137 q 397 178 401 163 q 388 211 392 193 q 374 258 383 229 l 362 305 m 406 769 q 395 767 403 768 q 376 765 386 765 q 356 763 365 764 q 342 763 346 763 q 312 765 325 763 q 284 769 299 767 q 223 779 245 777 q 185 782 200 782 q 117 771 142 782 q 62 743 92 761 l 177 826 q 217 831 198 831 q 250 828 231 831 q 286 822 270 825 q 378 814 342 814 q 444 821 417 814 q 502 840 471 829 l 406 769 "},"\u0019":{"x_min":-265,"x_max":464,"ha":174,"o":"m 464 997 q 424 944 443 970 q 384 890 405 919 q 340 827 364 860 q 289 752 316 794 q 212 637 250 694 q 137 521 175 580 q 54 394 96 458 q -27 264 12 330 q -92 163 -67 202 q -134 98 -117 124 q -164 50 -151 71 q -195 0 -177 28 l -265 -17 q -253 1 -258 -7 q -242 17 -248 9 q -164 143 -202 80 q -87 269 -126 206 q 24 445 -37 349 q 150 637 86 541 q 275 823 214 733 q 387 983 337 913 l 464 997 "},"æ":{"x_min":28,"x_max":943.171875,"ha":926,"o":"m 866 31 q 825 11 845 20 q 782 -4 804 2 q 729 -17 755 -14 q 680 -21 704 -21 q 597 -9 633 -21 q 533 19 561 1 q 483 58 505 36 q 443 103 461 81 l 370 32 q 306 0 348 19 q 200 -19 263 -19 q 71 24 115 -19 q 28 126 28 68 q 51 213 28 174 q 116 286 75 253 q 216 347 158 320 q 341 400 273 375 l 326 450 q 288 533 307 504 q 245 575 270 561 q 184 590 219 588 q 95 591 148 592 l 197 635 q 275 633 238 635 q 343 621 312 632 q 397 588 375 611 q 436 522 420 565 q 472 559 450 537 q 525 601 494 580 q 596 635 557 621 q 686 649 636 649 q 751 641 716 649 q 818 613 786 633 q 877 559 851 593 q 918 473 904 525 l 604 338 l 504 329 q 535 217 511 267 q 596 129 559 166 q 679 71 633 92 q 777 51 726 51 q 869 67 830 51 q 943 102 908 83 l 866 31 m 751 450 q 768 460 758 452 q 777 483 777 468 q 767 525 777 504 q 739 564 757 547 q 699 591 722 580 q 650 603 676 603 q 609 595 634 603 q 558 566 583 587 q 515 508 533 546 q 497 411 497 471 q 498 373 497 391 q 502 334 500 354 l 751 450 m 433 122 q 401 188 413 152 q 376 276 388 223 q 358 338 365 321 q 334 356 352 356 q 293 342 322 356 q 235 304 265 328 q 183 246 205 280 q 161 173 161 212 q 197 90 161 123 q 294 58 234 58 q 381 80 349 58 q 433 122 413 102 "},"®":{"x_min":85,"x_max":1073,"ha":1156,"o":"m 902 334 q 891 290 898 317 q 872 238 884 263 q 838 194 859 213 q 787 176 817 176 q 751 182 770 176 q 719 203 731 189 q 686 264 698 224 q 663 344 674 304 q 647 408 655 382 q 628 451 640 435 q 598 476 616 468 q 548 488 579 485 l 502 488 l 502 318 q 503 277 502 293 q 511 251 504 261 q 531 237 517 241 q 574 228 546 232 l 574 182 q 517 184 539 184 q 464 184 496 184 q 399 183 431 184 q 335 182 368 183 l 335 229 q 371 235 358 232 q 390 248 383 239 q 394 256 393 252 q 397 267 396 259 q 399 287 399 275 q 399 321 399 300 l 399 682 q 398 715 399 702 q 391 736 397 728 q 372 749 385 745 q 335 755 360 753 l 335 802 q 383 799 364 800 q 414 799 401 799 q 437 799 428 799 q 455 799 446 799 q 486 799 464 799 q 533 800 508 800 q 580 801 558 800 q 612 802 603 802 q 689 797 653 802 q 753 778 725 793 q 806 729 784 761 q 828 653 828 697 q 821 611 828 633 q 798 568 815 589 q 752 531 782 547 q 676 507 723 514 q 712 487 698 500 q 735 457 726 473 q 750 423 745 440 q 759 391 755 405 l 771 337 q 788 283 781 301 q 812 265 795 265 q 837 278 824 265 q 859 341 849 292 l 902 334 m 502 549 l 550 549 q 599 550 583 549 q 631 554 615 551 q 692 584 664 561 q 720 651 720 607 q 704 705 720 682 q 652 742 683 736 q 595 749 621 749 q 541 745 560 749 q 513 731 522 742 q 503 703 504 721 q 502 657 502 686 l 502 549 m 1073 491 q 1034 297 1073 387 q 930 140 996 207 q 773 34 863 73 q 577 -4 683 -4 q 391 32 480 -4 q 234 133 302 68 q 125 289 166 198 q 85 490 85 380 q 124 687 85 597 q 231 844 164 778 q 388 947 298 909 q 577 985 477 985 q 775 946 684 985 q 932 839 866 907 q 1035 682 998 772 q 1073 491 1073 593 m 577 40 q 756 75 673 40 q 899 171 838 110 q 994 313 959 231 q 1029 490 1029 395 q 994 665 1029 583 q 901 808 960 747 q 758 905 841 870 q 580 941 676 941 q 402 905 484 941 q 259 808 320 870 q 163 665 198 747 q 129 490 129 583 q 164 313 129 395 q 260 170 199 230 q 403 74 322 109 q 577 40 484 40 "},"É":{"x_min":10.046875,"x_max":781.109375,"ha":724,"o":"m 654 0 l 92 0 q 119 32 108 19 q 134 58 129 45 q 140 86 139 70 q 142 123 142 101 q 145 527 142 326 q 158 932 148 729 l 10 932 l 110 981 l 688 981 l 599 899 l 563 889 q 575 907 568 896 q 582 920 582 918 q 569 929 582 927 q 540 931 560 930 q 497 932 521 932 q 448 932 474 932 q 400 932 422 932 l 301 932 l 288 543 l 608 543 l 528 466 l 490 455 q 504 479 501 475 q 507 486 507 483 q 502 494 507 493 q 492 496 497 496 l 329 496 q 297 489 308 496 q 288 455 286 482 l 288 138 q 289 96 288 113 q 300 70 290 80 q 328 55 308 60 q 372 47 349 49 q 418 44 396 45 q 454 44 440 44 q 519 45 486 44 q 583 52 551 46 q 657 69 632 59 q 706 89 682 78 l 781 114 l 654 0 m 558 1115 l 262 1048 l 357 1118 l 656 1186 l 558 1115 "},"~":{"x_min":186,"x_max":826,"ha":1013,"o":"m 826 416 q 748 341 791 373 q 648 310 706 310 q 588 320 616 310 q 515 352 560 330 l 473 373 q 420 396 451 384 q 358 408 390 408 q 306 395 329 408 q 292 386 298 391 q 278 374 285 381 q 260 353 270 366 q 231 318 249 340 l 186 394 q 208 425 194 407 q 244 461 223 444 q 292 491 265 479 q 356 504 320 504 q 435 489 397 504 q 513 455 473 474 l 558 434 q 610 413 592 419 q 648 407 628 407 q 695 417 673 407 q 734 441 717 427 q 763 470 751 455 q 782 492 776 484 l 826 416 "},"³":{"x_min":2.375,"x_max":374,"ha":463,"o":"m 2 844 q 48 889 27 869 q 88 925 69 908 q 128 956 107 941 q 171 986 148 970 q 197 990 184 989 q 228 992 210 992 q 282 985 257 992 q 346 941 329 972 q 364 886 364 911 q 352 839 364 859 q 327 801 341 818 q 296 773 312 784 q 270 754 280 761 q 297 741 282 748 q 329 718 312 733 q 374 613 374 676 q 352 529 374 568 q 295 458 330 490 q 215 401 259 426 q 125 360 170 377 l 13 354 q 77 379 52 369 q 118 398 101 390 q 148 413 136 406 q 176 431 161 420 q 245 499 216 459 q 275 587 275 538 q 268 629 275 609 q 244 666 261 650 q 200 691 227 682 q 130 702 172 701 l 158 743 q 244 780 212 745 q 276 851 276 815 q 268 883 276 869 q 248 905 260 897 q 221 917 235 913 q 192 922 206 922 q 137 908 163 922 q 94 870 112 894 l 2 844 "},"¡":{"x_min":87.875,"x_max":287.515625,"ha":406,"o":"m 98 903 q 122 928 112 917 q 145 950 133 940 q 170 971 156 960 q 202 997 183 981 q 225 974 215 984 q 243 954 234 965 q 263 931 252 944 q 287 899 273 917 l 209 831 l 183 806 l 155 841 l 98 903 m 111 436 q 113 496 112 471 q 115 542 115 521 q 117 583 116 564 q 118 628 118 603 l 168 639 l 246 662 q 246 563 246 606 q 244 479 246 520 q 241 393 243 438 q 239 286 240 347 q 237 243 239 269 q 234 187 236 218 q 231 122 233 155 q 228 57 229 89 l 87 -8 q 92 93 90 46 q 99 201 94 140 l 111 436 "},"[":{"x_min":128,"x_max":433.75,"ha":435,"o":"m 361 939 l 311 939 q 283 932 296 939 q 264 905 271 926 q 257 854 260 891 q 252 775 254 818 q 249 693 250 733 q 249 636 249 654 l 243 375 q 239 283 240 326 q 239 197 239 240 q 239 138 239 159 q 241 104 240 116 q 243 86 241 91 q 247 76 244 80 q 279 45 258 51 q 336 39 301 40 q 377 36 358 37 q 416 36 397 36 l 341 0 l 131 0 q 128 41 129 18 q 128 104 128 65 q 128 133 128 105 q 130 202 129 161 q 131 292 130 244 q 132 382 132 340 q 134 453 133 423 q 135 489 135 483 q 138 576 136 518 q 143 705 140 635 q 148 850 145 776 q 154 981 151 924 l 433 981 l 361 939 "},"L":{"x_min":24.59375,"x_max":813.265625,"ha":753,"o":"m 684 0 l 91 0 q 127 41 115 23 q 143 86 140 58 l 143 347 q 143 407 143 368 q 144 496 143 446 q 147 606 145 547 q 151 724 148 665 q 154 814 152 768 q 157 904 156 860 q 157 917 157 911 q 159 930 157 923 l 24 930 l 119 981 l 359 981 l 329 950 q 306 923 311 933 q 300 886 301 912 q 299 862 300 875 q 297 826 298 850 q 294 762 296 803 q 292 653 293 721 l 292 454 q 291 395 292 439 q 290 304 290 352 q 288 216 289 257 q 288 168 288 176 q 288 134 288 147 q 291 109 289 120 q 293 88 291 101 q 303 68 295 76 q 331 53 311 58 q 375 46 352 48 q 422 43 399 44 q 459 43 445 43 q 527 44 493 43 q 596 49 561 46 q 646 55 625 51 q 683 64 667 58 q 711 76 699 69 q 738 89 724 82 l 813 114 l 684 0 "},"\u001d":{"x_min":5.609375,"x_max":368,"ha":347,"o":"m 316 0 l 70 0 q 90 25 83 15 q 100 41 97 34 q 105 55 104 48 q 107 73 107 62 l 107 341 l 5 226 l 18 311 l 107 417 q 111 674 109 546 q 120 932 113 802 l 13 932 l 118 981 l 316 981 q 284 959 295 968 q 264 936 272 950 q 254 899 256 922 q 250 836 251 876 q 245 707 247 771 q 243 579 243 644 l 345 697 l 333 611 l 243 504 l 243 103 q 246 65 243 78 q 262 44 249 51 q 270 42 266 43 q 283 40 273 40 q 312 37 293 39 q 368 31 331 35 l 316 0 "}," ":{"x_min":0,"x_max":0,"ha":376},"%":{"x_min":30,"x_max":1068,"ha":1100,"o":"m 432 713 q 400 517 432 598 q 370 457 387 485 q 329 406 352 428 q 278 371 306 384 q 217 358 251 358 q 134 381 169 358 q 75 444 99 405 q 41 535 52 484 q 30 644 30 587 q 47 783 30 719 q 94 893 64 847 q 165 966 124 940 q 255 992 206 992 q 381 923 331 992 q 432 713 432 855 m 356 613 q 353 659 356 634 q 349 709 351 684 q 342 758 346 734 q 332 801 337 783 q 316 848 326 823 q 292 893 307 873 q 259 925 277 912 q 218 939 240 939 q 160 917 183 939 q 126 863 137 895 q 112 802 116 836 q 108 735 108 767 q 117 621 108 678 q 143 516 126 563 q 187 441 160 470 q 250 412 213 412 q 282 419 264 412 q 316 448 300 427 q 344 510 333 470 q 356 613 356 549 m 1068 347 q 1036 149 1068 230 q 1006 89 1023 117 q 965 38 988 60 q 915 3 943 16 q 854 -10 887 -10 q 770 13 805 -10 q 713 76 736 37 q 679 168 690 116 q 668 277 668 220 q 685 416 668 352 q 732 526 702 480 q 803 598 762 572 q 893 624 844 624 q 1018 556 968 624 q 1068 347 1068 489 m 992 245 q 990 291 992 266 q 985 341 989 316 q 978 390 982 366 q 969 433 973 415 q 953 480 962 455 q 929 525 943 505 q 896 557 915 544 q 855 571 878 571 q 798 549 821 571 q 764 495 775 527 q 750 434 754 468 q 746 368 746 399 q 755 253 746 310 q 781 148 764 195 q 825 73 798 102 q 886 44 851 44 q 918 51 900 44 q 953 80 936 59 q 980 142 969 102 q 992 245 992 181 m 927 997 q 887 944 906 970 q 847 890 867 919 q 803 828 826 862 q 752 752 780 794 q 675 638 713 694 q 599 523 637 581 q 517 394 558 458 q 434 265 476 330 q 369 164 394 202 q 328 99 345 126 q 298 50 312 72 q 266 0 284 29 l 196 -15 q 208 1 203 -6 q 218 18 213 10 q 297 144 259 80 q 376 269 335 207 q 483 440 423 346 q 608 632 544 535 q 735 821 673 729 q 849 985 798 912 l 927 997 "},"P":{"x_min":10.09375,"x_max":717,"ha":724,"o":"m 386 0 l 92 0 l 127 44 q 140 67 137 58 q 144 100 144 76 q 144 140 144 111 q 143 204 144 170 q 143 269 143 238 q 143 312 143 300 q 143 391 143 344 q 143 491 143 438 q 146 600 144 544 q 149 708 147 656 q 151 810 150 759 q 154 912 153 861 l 154 932 l 10 925 l 115 981 l 415 981 q 520 974 468 981 q 622 935 572 967 q 717 765 717 872 q 691 663 717 707 q 630 588 666 619 q 552 536 593 557 q 480 501 511 515 l 332 475 q 401 500 368 487 q 466 537 434 514 q 534 611 505 565 q 564 725 564 658 q 552 797 564 759 q 514 866 541 834 q 443 917 487 897 q 331 937 398 937 q 318 937 324 937 q 301 936 311 937 l 293 700 q 291 562 291 643 q 289 399 290 481 q 289 244 289 318 q 289 127 289 170 q 290 85 289 101 q 298 60 291 69 q 317 47 304 51 q 355 43 330 44 l 458 37 l 386 0 "},"À":{"x_min":19.453125,"x_max":1093.140625,"ha":1042,"o":"m 370 971 l 565 985 q 586 937 570 972 q 620 864 602 903 q 654 792 638 826 q 675 748 670 758 q 699 692 686 723 q 727 627 712 661 q 754 563 741 594 q 779 507 768 532 l 833 383 q 908 229 876 290 q 968 126 940 168 q 1025 56 995 84 q 1093 0 1054 27 q 1045 -10 1066 -7 q 1001 -14 1025 -14 q 947 -6 973 -14 q 890 20 922 1 q 841 61 862 38 q 802 110 819 84 q 772 165 786 137 q 744 225 758 193 l 662 417 q 628 407 643 411 q 602 399 613 403 q 578 391 590 395 q 552 381 566 386 l 331 381 q 298 376 308 381 q 277 360 288 372 l 156 136 q 150 120 154 129 q 147 104 147 112 q 166 77 147 86 q 238 51 194 61 q 315 36 281 41 l 198 0 q 82 11 120 -2 q 19 41 44 26 q 70 109 45 76 q 119 182 94 141 q 173 276 144 222 q 240 408 202 331 l 291 517 q 326 586 313 560 q 350 636 338 613 q 372 688 361 660 q 405 763 384 716 q 421 799 415 784 q 432 825 427 813 q 441 848 437 837 q 450 874 445 859 q 422 910 440 897 q 381 929 404 923 q 332 936 358 936 q 281 936 306 937 l 370 971 m 569 430 q 619 433 602 433 q 655 436 636 434 q 618 525 643 469 q 568 639 594 581 q 519 745 543 697 q 486 815 495 794 q 441 711 459 754 q 404 626 423 669 q 367 551 386 588 q 330 475 348 513 q 320 453 325 464 q 311 431 315 442 l 569 430 m 633 1048 l 331 1113 l 237 1184 l 536 1118 l 633 1048 "},"_":{"x_min":-13.890625,"x_max":708.390625,"ha":695,"o":"m 708 -173 l -13 -173 l -13 -104 l 708 -104 l 708 -173 "},"ñ":{"x_min":10.9375,"x_max":793.078125,"ha":781,"o":"m 734 0 l 502 0 q 528 36 522 20 q 536 82 534 51 l 542 319 q 541 404 542 371 q 537 461 540 437 q 527 501 535 485 q 507 533 519 517 q 478 560 498 546 q 421 574 457 574 q 373 565 394 574 q 337 546 353 557 q 310 525 321 536 q 294 508 298 514 q 271 480 286 500 q 243 443 255 460 l 235 115 q 235 78 235 92 q 240 57 236 65 q 254 46 244 50 q 280 42 264 43 l 361 33 l 304 0 l 71 0 q 91 21 83 12 q 103 41 98 30 q 108 64 107 51 q 110 98 110 77 q 111 343 110 221 q 116 588 113 465 l 10 588 l 104 631 l 271 631 q 256 611 261 619 q 248 592 250 603 q 245 566 246 582 q 245 525 245 550 q 286 566 268 548 q 324 597 304 583 q 396 636 354 619 q 486 653 437 653 q 587 627 544 653 q 651 558 630 601 q 672 478 669 522 q 675 390 675 434 l 668 104 q 673 56 668 66 q 706 43 679 45 l 793 33 l 734 0 m 509 769 q 498 767 506 768 q 479 765 489 765 q 459 763 468 764 q 445 763 449 763 q 415 765 428 763 q 387 769 402 767 q 326 779 348 777 q 288 782 303 782 q 220 771 245 782 q 165 743 195 761 l 280 826 q 320 831 301 831 q 353 828 334 831 q 389 822 373 825 q 481 814 445 814 q 547 821 520 814 q 605 840 574 829 l 509 769 "},"+":{"x_min":42.09375,"x_max":651.515625,"ha":695,"o":"m 651 364 l 389 364 l 389 100 l 306 100 l 306 364 l 42 364 l 42 447 l 306 447 l 306 706 l 389 706 l 389 447 l 651 447 l 651 364 "},"‚":{"x_min":25.484375,"x_max":242,"ha":347,"o":"m 25 -206 q 102 -95 67 -149 q 138 -5 138 -42 q 136 8 138 2 q 128 24 135 14 q 110 46 122 33 q 79 83 99 60 q 135 133 113 113 q 178 172 157 152 q 213 131 200 146 q 232 106 226 116 q 240 89 239 96 q 242 69 242 81 q 219 1 242 42 q 169 -78 196 -39 q 118 -147 142 -118 q 94 -176 94 -176 l 25 -206 "},"½":{"x_min":71.828125,"x_max":1065.625,"ha":1100,"o":"m 78 857 q 146 898 120 882 q 196 929 173 914 q 246 962 219 944 q 318 1013 273 981 l 305 971 q 300 948 302 957 q 298 921 298 939 l 287 438 q 292 411 287 416 q 319 404 298 406 l 380 398 l 329 368 l 165 368 q 187 397 183 390 q 193 422 191 405 l 199 814 q 200 847 199 835 q 201 867 201 860 q 201 878 201 874 q 201 887 201 883 l 152 855 l 71 837 l 78 857 m 928 997 q 887 944 907 970 q 847 890 868 919 q 803 827 826 860 q 753 752 780 794 q 675 637 714 694 q 600 523 637 581 q 517 394 558 458 q 435 264 476 330 q 369 164 394 202 q 328 99 344 126 q 298 51 311 73 q 267 1 285 30 l 199 -15 q 209 1 204 -6 q 219 19 214 9 q 298 144 260 82 q 375 269 336 207 q 483 439 422 345 q 609 630 544 533 q 736 819 673 727 q 850 984 798 910 l 928 997 m 650 476 q 695 521 675 501 q 736 557 716 540 q 777 588 756 573 q 822 617 797 603 q 850 621 838 619 q 881 624 862 624 q 952 612 923 624 q 998 580 980 600 q 1024 536 1016 561 q 1032 485 1032 511 q 984 339 1032 415 q 844 158 937 264 q 830 143 840 154 q 809 120 820 133 q 788 97 798 108 q 775 82 779 86 q 817 77 795 79 q 859 73 839 75 q 895 72 879 72 q 919 72 911 72 q 981 74 957 72 q 1021 79 1005 76 q 1046 88 1036 83 q 1065 97 1057 93 l 1053 62 l 985 -16 l 942 -25 l 961 4 q 892 0 930 1 q 830 -1 854 -1 q 743 1 786 -1 q 659 11 700 4 q 715 70 688 39 q 766 133 741 101 q 824 207 794 168 q 879 286 854 246 q 921 366 904 326 q 938 444 938 407 q 914 521 938 486 q 842 557 890 557 q 777 536 801 557 q 739 501 752 516 l 650 476 "},"Æ":{"x_min":-3.109375,"x_max":1305.484375,"ha":1274,"o":"m 1177 0 l 612 0 q 640 34 630 20 q 656 59 651 47 q 663 86 662 72 q 665 122 665 100 l 665 420 q 626 411 642 415 q 597 402 610 407 q 571 393 584 398 q 545 382 559 388 l 392 382 q 366 380 376 382 q 349 375 356 379 q 333 363 341 370 q 316 345 326 356 q 276 293 292 315 q 243 252 259 272 q 210 212 227 233 q 169 162 192 191 q 142 126 149 137 q 135 103 135 115 q 136 97 135 101 q 141 88 137 94 q 165 71 148 78 q 205 58 183 63 q 254 48 228 52 q 303 40 280 44 l 180 0 q 98 7 145 1 q -3 51 51 13 q 105 173 53 111 q 209 298 158 234 q 281 389 249 348 q 344 471 313 430 q 405 554 374 511 q 476 651 437 597 l 671 934 l 530 934 l 633 981 l 1218 981 l 1127 899 l 1090 889 q 1097 902 1094 896 q 1104 911 1101 909 q 1108 921 1108 916 q 1103 928 1108 927 q 1095 930 1098 930 q 1069 930 1088 930 q 1027 932 1049 931 q 985 932 1005 932 q 955 932 965 932 l 826 934 l 818 747 q 816 699 816 723 q 815 651 816 675 q 812 612 813 626 q 812 586 812 597 q 812 566 812 576 q 812 539 812 555 l 1134 539 l 1053 463 l 1016 454 q 1025 470 1020 461 q 1031 481 1031 479 q 1023 491 1031 490 q 1012 493 1016 493 l 852 493 q 818 482 825 491 q 811 447 811 473 l 811 137 q 813 90 811 108 q 833 61 816 71 q 886 47 849 51 q 991 44 923 44 q 1082 47 1044 44 q 1148 57 1120 51 q 1195 72 1176 63 q 1231 88 1215 80 l 1305 112 l 1177 0 m 581 433 q 603 433 595 433 q 620 434 612 434 q 638 435 628 434 q 665 437 648 435 q 666 474 665 445 q 668 536 668 503 q 670 597 669 569 q 671 636 671 626 q 673 738 672 687 q 677 840 674 789 q 665 823 670 830 q 653 807 659 817 q 637 786 646 798 q 615 753 628 773 q 500 591 558 670 q 383 433 442 512 l 581 433 "},"Ë":{"x_min":10.046875,"x_max":781.109375,"ha":724,"o":"m 654 0 l 92 0 q 119 32 108 19 q 134 58 129 45 q 140 86 139 70 q 142 123 142 101 q 145 527 142 326 q 158 932 148 729 l 10 932 l 110 981 l 688 981 l 599 899 l 563 889 q 575 907 568 896 q 582 920 582 918 q 569 929 582 927 q 540 931 560 930 q 497 932 521 932 q 448 932 474 932 q 400 932 422 932 l 301 932 l 288 543 l 608 543 l 528 466 l 490 455 q 504 479 501 475 q 507 486 507 483 q 502 494 507 493 q 492 496 497 496 l 329 496 q 297 489 308 496 q 288 455 286 482 l 288 138 q 289 96 288 113 q 300 70 290 80 q 328 55 308 60 q 372 47 349 49 q 418 44 396 45 q 454 44 440 44 q 519 45 486 44 q 583 52 551 46 q 657 69 632 59 q 706 89 682 78 l 781 114 l 654 0 m 523 1054 q 500 1078 509 1068 q 484 1099 491 1088 q 468 1121 476 1109 q 447 1152 459 1133 q 477 1175 465 1166 q 498 1193 488 1184 q 518 1210 508 1201 q 544 1232 529 1219 q 565 1204 556 1215 q 581 1185 573 1194 q 597 1165 588 1176 q 622 1137 607 1154 q 595 1112 607 1122 q 574 1093 584 1102 q 552 1075 563 1084 q 523 1054 540 1066 m 229 1052 q 204 1077 213 1066 q 186 1097 194 1087 q 169 1118 177 1107 q 148 1147 161 1130 q 176 1170 165 1161 q 197 1189 187 1180 q 218 1208 208 1198 q 244 1232 229 1218 q 267 1204 258 1215 q 284 1182 276 1193 q 302 1161 293 1172 q 325 1137 312 1151 q 299 1111 309 1122 q 278 1093 288 1101 q 256 1075 268 1084 q 229 1052 245 1065 "},"'":{"x_min":83,"x_max":205,"ha":289,"o":"m 156 618 l 128 618 l 84 953 q 83 965 84 960 q 83 976 83 970 q 105 1026 83 1012 q 146 1040 127 1040 q 170 1035 159 1040 q 200 1007 196 1024 q 205 971 205 990 l 156 618 "},"Š":{"x_min":34.046875,"x_max":718,"ha":781,"o":"m 542 522 q 598 488 567 508 q 655 440 628 469 q 699 372 681 412 q 718 277 718 333 q 691 160 718 215 q 616 65 665 106 q 499 1 567 24 q 348 -21 431 -21 q 187 -2 266 -21 q 34 48 109 16 l 142 170 l 179 178 l 156 131 q 152 120 152 124 q 159 105 152 115 q 190 82 167 95 q 243 57 213 69 q 310 36 274 44 q 380 28 345 28 q 464 42 426 28 q 531 82 502 57 q 575 140 559 107 q 592 212 592 173 q 586 254 592 234 q 573 288 580 273 q 504 372 548 343 q 412 426 459 402 l 316 472 q 228 521 272 494 q 155 594 184 548 q 127 657 135 624 q 119 717 119 690 q 137 809 119 759 q 194 901 155 859 q 295 972 234 944 q 444 1001 357 1001 q 565 987 497 1001 q 703 934 632 974 l 598 821 l 561 813 l 584 855 q 591 874 591 872 q 579 895 591 881 q 547 922 568 909 q 496 946 526 936 q 426 957 465 957 q 353 944 387 957 q 293 909 318 932 q 252 854 267 886 q 238 786 238 823 q 256 709 238 741 q 301 652 274 676 q 361 611 328 629 q 421 580 393 594 l 542 522 m 244 1143 l 314 1175 l 452 1111 l 668 1187 l 544 1094 l 434 1054 l 244 1143 "},"ª":{"x_min":22,"x_max":414.953125,"ha":406,"o":"m 328 775 q 353 693 339 734 q 381 625 366 652 q 394 604 388 612 q 414 579 399 597 q 390 575 396 576 q 378 575 384 575 q 329 586 359 575 q 276 639 299 598 l 242 605 q 201 585 227 597 q 134 573 176 573 q 49 602 77 573 q 22 668 22 630 q 44 734 22 705 q 96 783 66 762 q 160 817 127 804 q 213 837 192 830 q 194 891 202 873 q 174 923 187 908 q 157 938 166 933 q 135 945 149 943 q 101 947 121 947 q 49 946 81 947 l 141 985 q 214 979 187 985 q 258 957 241 973 q 287 912 276 941 q 312 836 298 883 l 328 775 m 266 661 q 259 680 261 672 q 252 700 256 688 q 245 728 249 711 q 232 775 241 745 q 225 797 227 794 q 217 801 222 801 q 195 794 211 801 q 161 773 178 787 q 129 741 143 759 q 116 697 116 722 q 141 646 116 661 q 192 632 166 632 q 266 661 232 632 "},"Œ":{"x_min":53,"x_max":1451.09375,"ha":1418,"o":"m 1321 0 l 813 0 q 785 0 796 0 q 765 -2 775 -1 q 743 -4 756 -2 q 710 -11 731 -6 q 652 -19 681 -17 q 592 -22 623 -22 q 358 21 459 -22 q 189 136 256 65 q 87 297 122 207 q 53 483 53 388 q 97 693 53 595 q 222 862 141 791 q 402 964 298 928 q 613 1001 505 1001 q 668 998 641 1001 q 723 993 695 995 q 778 986 751 990 q 833 982 805 982 l 1359 981 l 1269 891 l 1231 887 q 1242 902 1235 894 q 1249 912 1248 910 q 1250 915 1249 915 q 1251 919 1251 916 q 1245 927 1251 926 q 1237 929 1240 929 q 1215 929 1230 929 q 1181 931 1199 930 q 1146 931 1163 931 q 1121 931 1130 931 l 969 933 l 965 727 q 962 671 963 694 q 962 627 962 647 q 962 586 962 607 q 962 538 962 565 l 1277 538 l 1196 464 l 1157 454 q 1167 467 1162 460 q 1173 475 1173 473 q 1174 480 1174 476 q 1168 490 1174 489 q 1157 492 1162 492 l 999 492 q 964 482 971 492 q 958 453 958 472 l 960 114 q 964 81 960 95 q 983 59 967 67 q 1030 47 998 50 q 1120 44 1062 44 q 1187 45 1153 44 q 1252 51 1220 46 q 1329 67 1303 57 q 1376 88 1355 77 l 1451 114 l 1321 0 m 636 32 q 679 34 657 32 q 721 42 700 37 q 760 54 742 47 q 789 72 778 62 q 807 98 804 84 q 813 132 810 112 q 814 168 813 141 q 815 224 815 194 q 815 281 815 254 q 815 322 815 308 q 815 424 815 381 q 816 500 816 466 q 817 564 816 534 q 818 628 817 594 q 820 705 819 662 q 823 809 821 748 q 822 857 823 844 q 815 881 821 870 q 786 908 806 895 q 737 930 766 920 q 674 945 709 940 q 602 950 640 950 q 431 918 505 950 q 306 831 356 887 q 229 700 255 776 q 204 536 204 625 q 210 449 204 493 q 231 361 216 405 q 281 252 248 311 q 365 145 314 194 q 484 64 416 97 q 636 32 552 32 "},"ð":{"x_min":46,"x_max":706,"ha":753,"o":"m 300 989 q 385 937 344 965 q 464 877 426 909 l 643 941 l 606 879 l 501 843 q 530 812 511 833 q 573 761 550 791 q 619 689 596 730 q 662 598 643 648 q 693 489 680 550 q 706 362 706 429 q 685 218 706 287 q 625 97 665 150 q 523 13 585 44 q 379 -18 462 -18 q 238 7 300 -18 q 134 78 176 33 q 68 183 91 123 q 46 311 46 243 q 71 447 46 386 q 143 553 97 509 q 250 622 189 598 q 385 647 312 647 q 447 642 417 647 q 505 619 478 637 q 490 654 500 633 q 466 701 480 676 q 432 752 451 726 q 389 801 412 779 l 134 711 l 173 773 l 350 837 q 293 879 335 850 q 177 944 252 909 l 300 989 m 566 316 q 564 360 566 336 q 559 409 563 384 q 551 459 556 434 q 538 504 546 483 q 527 529 535 512 q 502 563 518 545 q 458 593 485 580 q 389 607 431 607 q 320 595 348 607 q 272 566 291 583 q 241 531 253 550 q 223 502 229 513 q 194 406 200 458 q 189 319 189 355 q 239 101 189 181 q 380 22 289 22 q 418 26 401 22 q 447 35 435 30 q 496 73 471 47 q 539 145 521 99 q 561 233 556 187 q 566 316 566 280 "},"T":{"x_min":-43.59375,"x_max":839.96875,"ha":810,"o":"m 552 0 l 266 0 l 291 34 q 305 65 299 50 q 312 120 312 80 q 312 274 312 207 q 312 400 312 341 q 314 513 313 458 q 316 629 314 568 q 319 763 317 690 q 325 930 321 835 l 103 930 q 74 927 88 930 q 48 918 60 925 q 38 911 42 914 q 29 901 34 907 q 17 885 24 895 q 0 859 10 875 l -43 839 l 13 981 l 839 981 l 766 853 l 733 839 q 744 892 744 869 q 725 926 744 921 q 685 931 706 931 l 469 931 q 467 869 469 914 q 464 774 466 824 q 460 678 462 724 q 459 613 459 632 l 458 301 q 459 166 459 211 q 461 95 459 122 q 463 71 461 80 q 474 56 466 62 q 497 48 481 51 q 538 43 512 45 l 620 34 l 552 0 "},"š":{"x_min":-12.9375,"x_max":510,"ha":521,"o":"m 349 362 q 416 320 382 344 q 469 245 450 295 q 479 194 479 222 q 462 114 479 152 q 412 46 445 76 q 329 0 378 16 q 216 -18 280 -18 q 162 -15 194 -18 q 89 -1 130 -12 q 29 20 52 9 q -12 41 6 30 l 73 130 l 120 138 l 91 93 q 167 47 130 66 q 258 28 205 28 q 313 37 291 28 q 349 62 336 47 q 368 94 362 76 q 375 129 375 112 q 365 174 375 155 q 340 207 355 193 q 307 230 326 220 q 272 248 288 240 l 173 293 q 135 313 153 304 q 102 338 117 323 q 70 386 83 358 q 58 449 58 415 q 73 519 58 484 q 118 582 88 554 q 194 628 148 610 q 303 647 241 647 q 397 635 352 647 q 486 605 442 624 l 423 523 l 372 502 l 397 554 q 333 586 367 570 q 259 603 299 603 q 212 593 231 603 q 182 571 193 584 q 166 540 171 557 q 162 509 162 523 q 170 469 162 486 q 191 440 178 452 q 221 419 205 427 q 250 405 237 411 l 349 362 m 86 824 l 156 855 l 294 791 l 510 868 l 386 776 l 276 736 l 86 824 "},"Þ":{"x_min":11.09375,"x_max":717,"ha":724,"o":"m 116 981 l 355 981 l 319 950 q 305 935 308 942 q 301 918 302 929 q 297 856 298 886 q 297 802 297 826 l 416 802 q 515 795 458 802 q 629 750 572 788 q 696 676 676 718 q 717 585 717 633 q 691 482 717 526 q 630 407 666 439 q 552 355 593 376 q 480 322 511 334 l 333 295 q 402 320 369 307 q 466 358 436 334 q 534 432 505 386 q 564 546 564 479 q 560 585 564 554 q 539 650 557 615 q 482 716 520 685 q 373 756 443 747 q 330 758 350 758 q 296 757 311 758 l 294 700 q 292 562 293 643 q 290 400 291 481 q 290 244 290 318 q 290 127 290 170 q 291 85 290 101 q 299 60 292 69 q 318 47 305 51 q 356 43 331 44 l 459 37 l 387 0 l 93 0 l 128 44 q 141 67 138 58 q 145 100 145 76 q 145 141 145 111 q 144 205 145 171 q 144 270 144 239 q 144 314 144 301 q 144 406 144 356 q 146 509 145 456 q 147 614 147 561 q 150 710 148 666 q 150 753 150 721 q 152 820 151 784 q 154 887 152 855 q 155 932 155 919 l 11 926 l 116 981 "},"j":{"x_min":-5.234375,"x_max":253.328125,"ha":318,"o":"m 61 -365 q 65 -347 64 -356 q 67 -328 65 -338 q 78 -224 75 -272 q 84 -122 81 -177 l 90 177 q 91 269 90 231 q 92 346 92 306 q 92 439 92 387 q 92 580 92 492 l -5 580 l 83 629 l 253 629 q 242 613 246 619 q 235 601 238 608 q 232 583 233 594 q 229 556 231 573 l 220 72 q 212 -34 217 11 q 197 -121 207 -80 q 169 -203 186 -162 q 125 -296 152 -245 l 61 -365 m 243 822 q 223 800 231 809 q 204 782 215 791 q 181 762 194 773 q 145 733 168 751 q 120 760 130 750 q 102 779 109 770 q 86 797 94 788 q 66 822 77 807 l 93 845 q 112 863 105 858 q 130 879 119 869 l 161 908 l 190 877 q 200 866 195 870 q 211 854 205 861 l 243 822 "},"1":{"x_min":116.6875,"x_max":574.953125,"ha":724,"o":"m 120 780 q 240 854 194 826 q 322 906 286 883 q 395 955 359 930 q 486 1018 431 980 l 473 976 q 467 952 469 961 q 464 934 465 942 q 463 916 463 926 q 462 892 462 906 l 443 105 q 455 54 443 65 q 504 40 468 44 l 574 34 l 518 0 l 272 0 q 300 38 293 25 q 307 80 307 51 l 318 716 q 319 741 319 729 q 319 768 319 754 q 320 799 319 787 q 321 819 320 811 q 322 835 322 827 q 323 854 323 843 l 229 793 l 116 769 l 120 780 "},"›":{"x_min":28,"x_max":350,"ha":376,"o":"m 29 592 l 66 629 l 350 356 l 68 90 l 28 126 l 270 356 l 29 592 "},"ä":{"x_min":19,"x_max":631.71875,"ha":607,"o":"m 499 300 q 531 196 516 243 q 563 107 545 150 q 599 32 583 55 q 631 -11 615 9 q 610 -13 620 -12 q 591 -15 601 -15 q 546 -8 567 -15 q 505 9 526 -1 q 453 53 470 29 q 427 97 437 77 l 362 33 q 300 2 342 21 q 191 -17 258 -17 q 115 -5 148 -17 q 61 26 83 6 q 29 72 39 46 q 19 127 19 98 q 55 233 19 187 q 142 311 91 279 q 246 365 192 344 q 334 398 299 386 l 313 459 q 278 535 295 508 q 237 576 260 562 q 183 591 215 589 q 103 592 151 593 l 205 635 q 295 631 251 635 q 373 605 340 628 q 404 575 391 593 q 428 534 417 558 q 449 476 438 509 q 471 398 459 443 l 499 300 m 362 305 q 349 344 355 333 q 330 356 344 356 q 290 343 319 356 q 231 307 262 330 q 177 251 201 285 q 154 175 154 218 q 166 122 154 144 q 198 87 179 101 q 241 67 217 73 q 287 61 265 61 q 372 81 341 61 q 417 116 404 102 q 406 150 410 137 q 397 178 401 163 q 388 211 392 193 q 374 258 383 229 l 362 305 m 445 734 q 422 759 431 748 q 405 779 413 769 q 389 802 398 790 q 368 833 381 815 q 398 856 387 847 q 420 873 410 865 q 440 891 430 882 q 466 914 450 900 q 487 886 478 897 q 503 866 495 875 q 519 845 510 857 q 544 818 528 834 q 517 793 528 802 q 496 775 506 783 q 473 757 485 766 q 445 734 462 747 m 150 733 q 125 757 135 746 q 107 777 115 767 q 90 798 99 787 q 70 828 82 810 q 97 851 86 841 q 119 869 108 860 q 140 888 129 878 q 165 912 150 898 q 188 884 179 895 q 206 863 197 873 q 224 843 214 853 q 246 819 233 833 q 220 793 231 803 q 199 773 210 783 q 178 755 189 764 q 150 733 167 745 "},"¹":{"x_min":72.125,"x_max":380.078125,"ha":463,"o":"m 79 856 q 147 897 120 881 q 196 928 173 913 q 246 961 219 942 q 317 1011 273 980 l 305 970 q 300 947 302 956 q 298 920 298 938 l 287 437 q 292 411 287 416 q 318 404 298 406 l 380 398 l 328 368 l 165 368 q 187 397 183 390 q 193 422 191 405 l 199 812 q 200 846 199 833 q 201 866 201 859 q 201 877 201 873 q 201 886 201 881 l 152 855 l 72 837 l 79 856 "},"<":{"x_min":0,"x_max":694.828125,"ha":695,"o":"m 694 94 l 0 442 l 0 540 l 694 886 l 694 797 l 92 491 l 694 182 l 694 94 "},"£":{"x_min":2.21875,"x_max":1029.875,"ha":1013,"o":"m 386 463 q 371 339 380 392 q 342 242 361 286 q 291 161 323 198 q 207 83 259 123 q 307 63 256 70 q 408 50 359 55 q 502 44 457 45 q 581 43 546 43 q 696 49 635 43 q 803 80 757 56 q 859 128 845 102 q 880 177 873 154 q 915 180 898 179 q 951 184 933 181 q 999 190 979 188 q 1029 194 1019 193 q 1029 168 1030 180 q 995 101 1026 137 q 900 41 965 65 q 786 16 854 24 q 640 4 718 8 q 478 0 561 1 q 317 0 395 0 l 27 0 l 142 83 q 176 114 161 98 q 201 148 191 129 q 218 191 211 166 q 228 251 225 216 l 243 463 l 2 462 l 73 507 l 248 507 q 257 600 252 554 q 273 691 263 647 q 302 775 284 734 q 350 854 320 816 q 482 957 402 918 q 656 996 563 996 q 764 979 723 996 q 824 947 805 962 q 866 903 851 926 q 888 858 881 880 q 897 816 895 836 q 900 783 900 797 l 755 740 q 759 768 757 755 q 762 798 762 780 q 726 909 762 869 q 630 950 691 950 q 558 935 593 950 q 496 893 523 920 q 454 832 470 866 q 427 763 438 798 q 411 691 417 727 q 402 625 406 655 l 391 507 l 668 507 l 602 463 l 386 463 "},"t":{"x_min":37.984375,"x_max":452.234375,"ha":406,"o":"m 358 4 q 343 0 351 1 q 328 -4 334 -1 q 258 -13 291 -13 q 174 4 204 -13 q 131 46 144 21 q 115 95 117 70 q 113 135 113 120 l 121 582 l 37 582 l 121 629 l 121 726 q 158 740 143 734 q 187 751 174 745 q 215 763 200 756 q 255 779 231 769 l 255 629 l 452 629 l 380 582 l 255 582 l 249 326 q 249 282 249 310 q 249 224 249 254 q 251 167 250 194 q 253 125 251 140 q 259 91 254 107 q 275 63 265 75 q 304 44 286 51 q 351 38 322 38 q 384 40 368 38 q 416 45 400 42 l 358 4 "},"¬":{"x_min":-0.125,"x_max":926,"ha":927,"o":"m 843 364 l 0 364 l 0 446 l 926 446 l 926 0 l 843 0 l 843 364 "},"ù":{"x_min":-11.0625,"x_max":832.515625,"ha":781,"o":"m 782 0 q 745 -11 779 -1 q 670 -21 710 -21 q 605 -8 630 -21 q 567 19 581 3 q 547 51 552 35 q 539 76 541 67 q 525 67 534 74 q 505 53 516 60 q 484 39 494 46 q 470 29 474 32 q 396 -5 435 7 q 306 -19 357 -19 q 189 7 241 -19 q 115 94 137 33 q 109 114 112 103 q 103 148 105 126 q 100 208 101 171 q 99 307 99 246 q 101 421 99 347 q 107 582 103 495 l -11 582 l 80 629 l 268 629 q 248 602 255 613 q 237 579 241 591 q 232 552 234 568 q 231 509 231 536 l 230 387 q 230 295 230 329 q 230 240 230 261 q 232 209 231 220 q 234 189 232 199 q 239 157 235 177 q 257 116 243 136 q 299 82 271 96 q 375 69 326 69 q 469 85 429 69 q 539 121 508 102 q 540 362 539 249 q 545 582 542 476 l 439 582 l 522 629 l 707 629 q 688 604 695 615 q 679 583 682 594 q 674 559 675 573 q 673 524 673 545 l 670 324 q 669 278 670 303 q 668 230 668 253 q 669 187 668 207 q 670 154 670 167 q 674 103 671 126 q 689 64 678 80 q 721 37 700 47 q 778 28 742 28 q 806 28 792 28 q 832 31 821 29 l 782 0 m 504 729 l 202 795 l 108 867 l 406 798 l 504 729 "},"W":{"x_min":-104.171875,"x_max":1554.296875,"ha":1504,"o":"m 1522 952 q 1496 931 1505 938 q 1482 915 1487 923 q 1471 895 1476 906 q 1459 866 1466 884 l 1422 758 q 1390 668 1405 711 q 1360 586 1375 626 q 1329 503 1345 545 q 1295 413 1314 461 l 1216 205 q 1191 140 1201 166 q 1173 92 1182 113 q 1156 51 1165 70 q 1136 10 1147 33 q 1090 4 1108 6 q 1057 -2 1072 1 q 1025 -9 1041 -5 q 986 -21 1008 -14 q 952 77 969 27 q 920 176 936 127 q 890 279 908 216 q 853 408 872 342 q 818 531 834 473 q 794 622 802 590 q 780 674 788 641 q 763 740 772 706 q 746 801 754 773 q 736 840 738 829 q 703 750 720 800 q 668 647 686 699 q 632 545 650 595 q 601 455 615 494 q 559 341 580 397 q 516 227 537 286 q 489 149 500 180 q 470 96 479 119 q 452 54 461 73 q 431 10 444 34 q 383 4 402 6 q 347 -2 363 1 q 314 -10 330 -5 q 276 -21 298 -15 q 240 95 258 37 q 206 213 223 154 q 191 270 201 233 q 169 355 181 308 q 143 455 156 402 q 116 557 129 508 q 93 646 104 605 q 77 712 83 687 q 67 754 75 723 q 51 819 59 785 q 35 886 43 854 q 25 931 27 918 l -104 926 l -18 982 l 230 982 l 201 947 q 186 928 190 936 q 181 909 181 920 q 188 864 181 894 q 208 786 195 834 q 222 729 215 758 q 236 673 229 701 l 308 394 q 331 305 319 349 q 355 216 344 261 q 370 163 363 184 q 380 126 376 142 q 388 97 384 110 q 398 66 393 84 q 426 138 413 105 q 452 208 438 172 q 482 291 465 245 q 523 402 500 337 l 584 575 q 630 713 612 657 q 661 809 648 769 q 681 876 673 849 q 695 931 688 904 l 568 931 l 658 982 l 922 982 l 890 943 q 877 925 883 934 q 870 902 870 916 q 872 890 870 894 q 874 877 873 883 q 878 859 875 870 q 887 826 882 847 q 902 770 893 805 q 907 751 905 759 q 913 727 909 743 q 925 685 918 711 q 944 613 932 659 l 1011 374 q 1034 295 1022 334 q 1058 215 1047 255 q 1073 165 1066 185 q 1084 129 1079 145 q 1093 99 1088 113 q 1105 66 1098 84 q 1143 161 1127 123 q 1170 233 1158 199 q 1197 302 1183 266 q 1230 391 1211 338 l 1316 622 q 1343 702 1330 662 q 1369 782 1355 741 q 1385 833 1379 812 q 1396 868 1391 853 q 1405 898 1401 883 q 1414 931 1409 912 l 1251 931 l 1341 982 l 1554 982 l 1522 952 "},"ï":{"x_min":-53,"x_max":421,"ha":347,"o":"m 310 0 l 75 0 q 95 22 87 13 q 106 40 103 31 q 111 59 110 48 q 113 88 113 70 l 113 580 l 8 580 l 101 629 l 268 629 q 255 610 259 617 q 249 595 251 602 q 245 580 247 588 q 244 558 244 572 l 239 155 q 239 142 239 151 q 238 121 239 132 q 238 99 238 110 q 238 85 238 89 q 249 47 238 54 q 293 38 261 40 l 364 32 l 310 0 m 322 734 q 299 759 308 748 q 282 779 290 769 q 266 802 275 790 q 245 833 258 815 q 275 856 264 847 q 297 873 287 865 q 317 891 307 882 q 343 914 327 900 q 364 886 355 897 q 380 866 372 875 q 396 845 387 857 q 421 818 405 834 q 394 793 405 802 q 373 775 383 783 q 350 757 362 766 q 322 734 339 747 m 27 733 q 2 757 12 746 q -15 777 -7 767 q -32 798 -23 787 q -53 828 -40 810 q -25 851 -36 841 q -3 869 -14 860 q 17 888 6 878 q 42 912 27 898 q 65 884 56 895 q 83 863 74 873 q 101 843 91 853 q 123 819 110 833 q 97 793 108 803 q 76 773 87 783 q 55 755 66 764 q 27 733 44 745 "},">":{"x_min":0.171875,"x_max":695,"ha":696,"o":"m 0 94 l 0 182 l 603 491 l 0 797 l 0 886 l 695 540 l 695 442 l 0 94 "},"v":{"x_min":-65.28125,"x_max":608.375,"ha":607,"o":"m 608 629 q 593 605 598 615 q 582 585 587 595 q 572 561 577 574 q 558 526 566 548 q 518 416 534 462 q 487 333 501 370 q 460 264 473 295 q 432 196 447 232 q 400 117 418 160 q 356 17 381 75 l 234 -19 q 177 139 205 60 q 120 301 148 219 q 77 433 98 367 q 31 564 55 499 l 26 580 l -65 580 l 19 629 l 187 629 q 173 604 176 609 q 170 591 170 598 q 175 570 170 585 q 184 535 179 554 q 195 499 190 516 q 202 474 200 483 l 287 218 l 333 83 l 387 212 q 436 339 416 287 q 470 432 456 391 q 495 507 484 473 q 515 580 505 541 l 377 580 l 458 629 l 608 629 "},"û":{"x_min":-11.0625,"x_max":832.515625,"ha":781,"o":"m 782 0 q 745 -11 779 -1 q 670 -21 710 -21 q 605 -8 630 -21 q 567 19 581 3 q 547 51 552 35 q 539 76 541 67 q 525 67 534 74 q 505 53 516 60 q 484 39 494 46 q 470 29 474 32 q 396 -5 435 7 q 306 -19 357 -19 q 189 7 241 -19 q 115 94 137 33 q 109 114 112 103 q 103 148 105 126 q 100 208 101 171 q 99 307 99 246 q 101 421 99 347 q 107 582 103 495 l -11 582 l 80 629 l 268 629 q 248 602 255 613 q 237 579 241 591 q 232 552 234 568 q 231 509 231 536 l 230 387 q 230 295 230 329 q 230 240 230 261 q 232 209 231 220 q 234 189 232 199 q 239 157 235 177 q 257 116 243 136 q 299 82 271 96 q 375 69 326 69 q 469 85 429 69 q 539 121 508 102 q 540 362 539 249 q 545 582 542 476 l 439 582 l 522 629 l 707 629 q 688 604 695 615 q 679 583 682 594 q 674 559 675 573 q 673 524 673 545 l 670 324 q 669 278 670 303 q 668 230 668 253 q 669 187 668 207 q 670 154 670 167 q 674 103 671 126 q 689 64 678 80 q 721 37 700 47 q 778 28 742 28 q 806 28 792 28 q 832 31 821 29 l 782 0 m 607 778 l 536 747 l 397 811 l 182 735 l 305 826 l 416 867 l 607 778 "},"Ò":{"x_min":53,"x_max":1162,"ha":1215,"o":"m 1162 512 q 1122 311 1162 408 q 1009 141 1082 215 q 830 23 935 67 q 594 -21 724 -21 q 367 20 468 -21 q 197 131 266 62 q 90 291 127 201 q 53 480 53 381 q 89 666 53 573 q 197 833 125 759 q 377 954 269 907 q 626 1001 484 1001 q 845 962 747 1001 q 1014 857 944 924 q 1123 702 1084 791 q 1162 512 1162 613 m 1011 456 q 1006 537 1011 495 q 990 620 1001 578 q 938 736 973 677 q 851 844 904 795 q 732 923 799 892 q 581 954 665 954 q 436 926 505 954 q 314 844 366 898 q 231 714 262 791 q 200 538 200 637 q 231 350 200 442 q 321 188 263 259 q 459 73 379 117 q 637 30 540 30 q 758 51 692 30 q 880 122 824 73 q 973 253 936 171 q 1011 456 1011 335 m 719 1048 l 418 1113 l 323 1184 l 622 1118 l 719 1048 "},"\n":{"x_min":-85,"x_max":461,"ha":376,"o":"m 162 796 l -85 729 l 2 798 l 251 867 l 162 796 m 372 795 l 124 729 l 210 798 l 461 866 l 372 795 "},"&":{"x_min":43,"x_max":1108.515625,"ha":1071,"o":"m 916 464 q 919 436 918 448 q 921 409 921 423 q 918 372 921 395 q 906 317 915 348 q 880 248 897 286 q 832 169 862 211 q 857 143 841 158 q 900 107 873 129 q 968 56 927 84 q 1066 -9 1008 27 q 1036 -20 1051 -16 q 997 -25 1022 -25 q 859 4 925 -25 q 734 77 793 33 q 577 2 659 30 q 406 -25 494 -25 q 267 -3 333 -25 q 151 57 201 18 q 72 152 101 97 q 43 275 43 208 q 74 400 43 350 q 152 482 106 450 q 249 534 198 515 q 340 564 301 552 q 310 634 327 590 q 293 737 293 679 q 318 849 293 801 q 384 928 344 897 q 472 976 423 960 q 569 992 522 992 q 650 979 612 992 q 717 943 689 966 q 762 887 746 919 q 778 814 778 854 q 760 732 778 773 q 702 655 743 691 q 602 595 657 615 q 504 564 547 575 q 557 483 523 534 q 647 362 590 433 q 719 279 682 319 q 797 201 757 240 q 843 275 826 237 q 860 359 860 313 q 849 417 860 395 q 823 451 839 438 q 792 469 808 463 q 764 477 776 474 l 818 511 l 1108 511 l 983 464 l 916 464 m 483 604 q 502 611 493 607 q 521 619 511 615 q 617 698 582 647 q 652 808 652 749 q 617 908 652 871 q 529 945 582 945 q 446 908 476 945 q 417 808 417 871 q 423 747 417 776 q 441 690 430 717 q 463 642 451 664 q 483 604 475 619 m 688 115 q 576 229 624 176 q 489 331 528 282 q 420 427 451 380 q 358 523 388 475 q 294 498 326 513 q 238 459 263 483 q 198 402 213 436 q 183 320 183 368 q 203 229 183 275 q 261 145 223 183 q 356 85 299 108 q 486 63 412 63 q 607 80 560 63 q 688 115 654 98 "},"Ð":{"x_min":11.65625,"x_max":1018,"ha":1071,"o":"m 108 981 l 386 981 q 509 978 443 981 q 640 961 574 975 q 769 919 706 947 q 884 840 831 890 q 978 705 938 789 q 1018 504 1018 621 q 1003 379 1018 440 q 961 262 988 318 q 892 159 933 207 q 796 77 851 112 q 693 26 746 45 q 583 -2 639 7 q 468 -15 527 -12 q 350 -18 410 -18 q 199 -12 254 -18 q 108 -1 145 -6 l 131 39 q 142 64 139 54 q 145 97 145 75 l 145 475 l 11 475 l 70 531 l 145 531 q 146 621 146 575 q 148 712 146 667 q 150 808 149 772 q 151 866 150 844 q 152 903 152 889 q 152 935 152 918 l 32 929 l 108 981 m 289 331 q 289 206 289 255 q 297 128 290 157 q 317 83 304 99 q 355 56 330 67 q 424 35 387 40 q 494 31 462 31 q 552 33 513 31 q 637 52 591 36 q 730 102 683 68 q 814 200 777 136 q 859 323 850 263 q 869 423 869 382 q 857 544 869 480 q 823 669 846 609 q 731 812 785 759 q 616 892 677 865 q 494 926 555 919 q 383 933 433 933 q 336 932 356 933 q 298 931 316 932 l 290 656 l 288 531 l 632 530 l 553 475 l 289 475 l 289 331 "},"I":{"x_min":17.609375,"x_max":443.96875,"ha":435,"o":"m 384 0 l 91 0 q 119 35 109 22 q 134 59 128 48 q 141 79 139 69 q 144 105 142 90 q 144 345 144 227 q 146 568 145 462 q 150 766 148 675 q 157 932 153 858 l 17 932 l 109 981 l 360 981 l 325 951 q 315 942 320 946 q 308 930 311 937 q 306 921 306 928 q 304 892 306 915 q 301 829 303 864 q 299 757 300 794 q 297 685 297 721 q 295 622 296 650 l 289 416 q 287 325 288 370 q 287 234 287 280 l 287 145 q 288 94 287 113 q 294 64 289 74 q 310 49 299 53 q 341 44 321 45 l 443 33 l 384 0 "},"G":{"x_min":53,"x_max":1063,"ha":1100,"o":"m 1010 48 l 811 2 q 695 -14 750 -7 q 582 -21 640 -21 q 409 1 486 -21 q 274 60 333 23 q 173 147 215 97 q 105 253 132 197 q 65 367 78 309 q 53 481 53 426 q 91 676 53 583 q 200 842 129 770 q 376 957 272 914 q 614 1001 480 1001 q 724 993 671 1001 q 826 971 778 985 q 946 925 905 949 q 1010 885 986 901 l 894 776 l 846 764 l 881 820 q 837 860 862 837 q 776 903 811 883 q 692 938 740 924 q 583 952 644 952 q 430 922 501 952 q 308 838 360 892 q 228 708 257 783 q 199 542 199 633 q 233 352 199 443 q 330 190 267 261 q 485 77 394 119 q 690 35 576 35 q 796 46 757 35 q 867 69 835 57 l 867 293 l 657 282 l 768 342 l 1063 342 l 1026 307 q 1017 296 1019 300 q 1013 285 1015 293 q 1010 252 1011 275 q 1010 218 1010 229 l 1010 48 "},"`":{"x_min":-10,"x_max":386,"ha":376,"o":"m 386 729 l 84 795 l -10 867 l 288 798 l 386 729 "},"·":{"x_min":78,"x_max":267,"ha":347,"o":"m 267 363 q 244 338 254 349 q 222 317 233 328 q 197 295 211 307 q 164 268 183 283 q 143 288 151 281 q 126 305 134 296 q 107 327 118 314 q 78 363 96 340 l 115 396 l 180 458 l 211 421 l 233 396 l 267 363 "},"r":{"x_min":19.046875,"x_max":537.96875,"ha":521,"o":"m 329 0 l 88 0 q 107 29 101 18 q 117 53 113 41 q 121 79 120 65 q 122 113 122 93 q 122 166 122 127 q 122 255 122 205 q 124 361 123 305 q 125 465 124 418 q 126 546 126 512 q 126 585 126 579 l 19 585 l 113 629 l 282 630 q 269 613 274 620 q 262 600 265 607 q 258 585 260 593 q 256 567 257 578 l 256 523 q 295 559 272 538 q 347 596 318 579 q 412 626 376 614 q 487 639 447 639 q 518 635 507 639 q 537 628 529 632 l 481 486 l 442 463 l 453 530 q 434 539 443 536 q 404 543 425 543 q 328 522 365 543 q 256 450 292 501 l 253 101 q 265 53 253 61 q 307 42 278 44 l 380 39 l 329 0 "},"¿":{"x_min":0,"x_max":615.046875,"ha":636,"o":"m 229 901 q 250 925 241 915 q 270 944 259 935 q 295 965 280 953 q 331 997 309 977 q 350 977 341 985 q 368 959 359 969 q 389 935 377 949 q 418 901 401 922 l 347 837 l 313 805 l 284 841 l 229 901 m 159 417 q 197 456 183 438 q 220 497 212 474 q 233 552 229 520 q 243 632 238 583 l 298 643 l 338 652 l 393 667 q 377 564 388 606 q 345 489 365 521 q 299 432 326 457 q 243 381 273 407 q 203 340 222 360 q 170 297 184 320 q 148 245 156 274 q 140 181 140 217 q 151 115 140 139 q 162 96 153 110 q 187 67 170 82 q 228 42 203 53 q 290 31 253 31 q 405 75 359 31 q 453 145 442 110 q 469 207 465 181 l 615 232 q 603 171 612 203 q 562 100 595 139 q 455 22 526 57 q 276 -13 384 -13 q 167 0 217 -13 q 79 37 116 12 q 21 99 42 62 q 0 185 0 137 q 9 247 0 220 q 34 298 18 274 q 70 342 49 322 q 116 384 91 363 l 159 417 "},"ý":{"x_min":-63.890625,"x_max":627.828125,"ha":607,"o":"m 288 -367 l 122 -367 q 137 -351 130 -358 q 150 -333 144 -343 q 163 -310 156 -323 q 181 -275 170 -296 l 270 -87 q 285 -57 279 -69 q 295 -35 291 -44 q 304 -17 300 -26 q 312 2 308 -8 l 243 -19 q 200 96 223 30 q 156 222 177 161 q 120 329 136 283 q 100 388 104 376 q 73 470 83 440 q 56 520 63 501 q 45 553 50 540 q 34 583 40 566 l -63 583 l 22 629 l 191 629 q 178 600 180 606 q 176 587 176 594 q 184 549 176 574 q 197 509 191 524 q 217 447 208 477 q 236 385 226 416 l 312 158 q 327 115 320 133 q 341 76 333 98 l 398 212 q 436 308 418 260 q 475 405 455 356 q 508 496 494 456 q 531 583 522 537 l 402 583 l 484 629 l 627 629 q 613 611 619 617 q 604 599 608 605 q 596 584 600 592 q 587 562 593 576 q 544 448 562 495 q 511 362 526 401 q 481 287 495 323 q 449 206 468 251 q 406 103 430 162 q 347 -37 381 45 q 295 -161 320 -100 q 244 -285 270 -222 q 241 -295 243 -290 q 240 -306 240 -300 q 255 -325 240 -318 q 281 -331 263 -328 q 344 -338 298 -333 l 288 -367 m 501 795 l 206 729 l 300 798 l 599 867 l 501 795 "},"x":{"x_min":-8.328125,"x_max":665.328125,"ha":665,"o":"m 462 240 q 510 174 486 206 q 561 109 534 141 q 581 85 566 102 q 612 47 595 67 q 643 9 629 27 q 665 -17 658 -8 q 586 -12 622 -17 q 516 9 550 -7 q 450 56 483 26 q 381 138 418 87 l 343 195 l 309 246 l 241 172 q 214 141 227 156 q 187 111 201 126 q 161 79 168 88 q 155 59 155 69 q 164 43 155 47 q 180 39 173 40 q 225 35 204 36 q 269 33 247 34 l 211 0 l -2 0 q 44 40 26 24 q 81 72 62 55 q 124 115 100 90 q 193 186 148 141 l 283 285 l 175 446 q 125 519 147 487 q 77 583 102 551 l -8 583 l 77 629 l 250 629 q 236 607 238 613 q 233 594 233 601 q 236 580 233 587 q 244 567 240 573 l 368 380 l 447 470 q 466 494 456 483 q 487 519 476 506 q 515 564 515 553 q 500 583 515 580 q 477 585 484 585 q 465 585 476 585 q 441 584 454 584 q 416 583 427 584 q 401 583 404 583 l 484 629 l 654 629 l 622 606 q 598 583 609 594 q 575 558 587 572 q 549 528 563 545 q 513 485 534 510 l 394 340 l 462 240 "},"è":{"x_min":45,"x_max":625.59375,"ha":607,"o":"m 551 30 q 529 17 540 23 q 506 5 517 10 q 437 -15 471 -9 q 371 -21 403 -21 q 333 -19 354 -21 q 288 -13 313 -18 q 238 2 264 -8 q 186 33 213 13 q 122 93 149 59 q 79 166 96 127 q 53 246 61 205 q 45 326 45 287 q 74 467 45 406 q 150 567 104 527 q 252 626 196 606 q 363 647 308 647 q 437 637 400 647 q 506 608 474 627 q 549 571 532 591 q 576 533 565 552 q 593 499 588 515 q 603 470 599 483 l 276 338 l 170 330 q 210 212 182 263 q 276 124 238 160 q 360 69 314 88 q 456 51 406 51 q 549 66 508 51 q 625 99 589 81 l 551 30 m 420 444 q 450 458 440 451 q 461 481 461 466 q 449 523 461 502 q 420 562 438 545 q 376 589 401 578 q 323 601 351 601 q 274 591 302 601 q 222 560 247 582 q 181 501 198 538 q 164 408 164 463 q 165 372 164 390 q 168 334 166 353 l 420 444 m 460 729 l 158 795 l 64 867 l 362 798 l 460 729 "},"º":{"x_min":28,"x_max":464,"ha":492,"o":"m 464 784 q 449 707 464 745 q 406 639 434 669 q 336 590 377 609 q 241 572 294 572 q 149 590 189 572 q 82 638 109 609 q 41 704 55 667 q 28 779 28 741 q 44 860 28 822 q 91 928 61 898 q 163 974 121 957 q 255 992 205 992 q 341 974 302 992 q 407 928 380 957 q 449 862 434 900 q 464 784 464 825 m 260 610 q 306 620 284 610 q 342 650 329 630 q 363 693 358 669 q 368 743 368 718 q 361 804 368 768 q 338 873 354 840 q 296 930 322 906 q 231 954 270 954 q 211 951 229 954 q 174 937 194 949 q 137 899 153 924 q 122 826 122 873 q 129 759 122 797 q 153 689 137 722 q 197 632 170 655 q 260 610 223 610 "},"Ø":{"x_min":49,"x_max":1175.890625,"ha":1215,"o":"m 1032 831 q 1075 773 1053 805 q 1117 703 1098 742 q 1149 614 1137 663 q 1162 506 1162 566 q 1125 315 1162 409 q 1016 145 1088 220 q 839 24 944 70 q 599 -21 734 -21 q 505 -14 556 -21 q 400 9 454 -8 q 294 56 334 29 q 234 97 254 82 l 150 25 l 49 2 l 196 138 q 150 192 175 161 q 104 264 126 223 q 67 359 82 306 q 53 482 53 413 q 93 681 53 587 q 208 846 133 775 q 389 959 283 917 q 627 1001 495 1001 q 745 990 691 1001 q 844 962 799 980 q 928 921 889 945 q 998 873 966 898 l 1088 952 l 1175 974 l 1032 831 m 329 179 q 337 170 333 175 q 346 159 342 165 q 485 59 408 90 q 637 28 562 28 q 790 60 721 28 q 908 150 858 93 q 985 286 957 207 q 1013 458 1013 365 q 993 603 1013 533 q 932 735 974 673 l 329 179 m 904 782 q 877 816 891 799 q 834 856 862 832 q 714 928 780 902 q 576 955 648 955 q 449 932 515 955 q 328 860 383 910 q 238 731 273 810 q 203 539 203 652 q 225 374 203 449 q 300 228 247 299 l 904 782 "},"÷":{"x_min":0,"x_max":694.5,"ha":695,"o":"m 348 286 q 391 270 369 286 q 414 222 414 255 q 393 175 414 190 q 352 160 372 160 q 305 176 324 160 q 286 220 286 193 q 303 266 286 247 q 348 286 320 286 m 348 647 q 397 627 380 647 q 413 584 413 608 q 397 540 413 559 q 349 521 381 521 q 305 537 324 521 q 286 583 286 554 q 307 631 286 615 q 348 647 329 647 m 694 363 l 0 363 l 0 445 l 694 445 l 694 363 "},"\u001f":{"x_min":-8.328125,"x_max":587.546875,"ha":579,"o":"m 481 -18 l 429 -34 l 465 4 l -8 -7 q 31 46 16 26 q 59 82 47 66 q 82 113 70 98 q 111 152 94 129 l 256 364 q 313 446 290 411 q 355 506 337 480 q 386 552 373 532 q 412 592 400 572 l 181 586 l 100 526 l 34 505 l 165 636 l 211 645 q 218 632 211 633 q 240 629 222 629 l 584 638 q 564 608 573 622 q 546 581 555 594 q 527 551 537 567 q 502 515 516 536 l 465 461 q 427 403 443 426 q 395 352 412 379 q 354 291 377 326 q 291 198 330 255 q 256 145 270 168 q 229 105 241 123 q 204 70 216 87 q 179 36 193 54 l 383 41 q 461 45 430 42 q 512 53 491 48 q 550 64 533 58 q 587 81 566 70 l 568 50 l 481 -18 m 143 824 l 213 855 l 351 791 l 567 868 l 443 776 l 333 736 l 143 824 "},"h":{"x_min":10.828125,"x_max":793.015625,"ha":781,"o":"m 734 0 l 505 0 q 530 36 524 23 q 537 76 537 48 l 542 337 q 538 456 543 404 q 498 540 532 508 q 414 571 463 571 q 369 563 389 571 q 332 545 349 555 q 304 523 316 534 q 284 501 292 511 q 259 468 267 482 q 243 445 250 455 l 241 120 q 245 65 241 83 q 275 41 250 48 q 292 38 280 40 q 319 35 305 37 q 346 31 334 33 q 365 29 359 29 l 317 0 l 76 0 q 101 36 95 25 q 106 72 106 47 l 108 190 q 110 440 109 316 q 115 686 112 563 q 117 799 116 758 q 119 863 119 840 q 120 900 120 887 q 120 932 120 913 l 10 926 l 120 981 l 312 981 q 274 952 282 958 q 261 936 266 946 q 254 912 256 926 q 252 871 253 899 q 251 837 252 861 q 250 787 250 814 q 248 735 249 760 q 248 700 248 710 l 243 523 q 275 558 256 537 q 324 599 295 579 q 393 633 353 619 q 485 647 432 647 q 552 637 513 647 q 624 594 591 628 q 668 509 662 553 q 675 419 675 464 q 672 253 675 335 q 668 88 670 171 l 668 81 q 674 52 668 57 q 688 43 681 46 q 708 40 694 42 q 740 36 723 38 q 771 32 756 34 q 793 30 786 30 l 734 0 "},"\u0005":{"x_min":-37,"x_max":414,"ha":376,"o":"m 414 866 q 405 854 409 860 q 395 843 401 849 q 286 756 344 784 q 187 729 228 729 q 143 735 169 729 q 86 758 117 742 q 24 800 55 774 q -37 866 -7 827 q 46 828 10 842 q 109 807 82 814 q 157 799 136 800 q 193 798 178 798 q 253 803 223 798 q 307 817 282 809 q 351 834 332 825 q 383 848 370 842 q 398 857 390 852 q 414 866 407 861 "},"\b":{"x_min":83,"x_max":291,"ha":376,"o":"m 188 908 q 232 898 213 908 q 265 873 252 888 q 284 839 278 857 q 291 803 291 820 q 261 732 291 763 q 185 701 232 701 q 112 732 141 701 q 83 802 83 763 q 111 875 83 842 q 188 908 139 908 m 258 805 q 239 853 258 831 q 188 876 220 876 q 136 853 156 876 q 116 805 116 831 q 136 755 116 777 q 187 733 156 733 q 237 754 217 733 q 258 805 258 776 "},".":{"x_min":78,"x_max":267,"ha":347,"o":"m 267 78 q 242 52 253 63 q 221 30 232 41 q 196 9 210 20 q 164 -17 182 -1 q 141 4 150 -4 q 125 23 133 13 q 105 45 116 33 q 78 78 94 58 l 139 133 l 180 174 l 211 135 l 267 78 "},";":{"x_min":71,"x_max":329,"ha":406,"o":"m 329 543 q 297 510 310 523 q 272 486 283 497 q 249 467 260 476 q 223 448 237 458 q 202 468 210 459 q 185 487 194 477 q 165 510 176 497 q 138 543 153 523 l 172 575 l 212 609 l 242 639 l 297 573 l 329 543 m 293 111 q 307 93 300 102 q 314 69 314 84 q 309 47 314 58 q 301 26 305 36 q 260 -45 287 -5 q 207 -120 233 -84 q 161 -179 180 -155 q 141 -204 141 -204 l 71 -243 l 107 -188 q 132 -150 119 -169 q 157 -112 144 -131 q 186 -65 172 -90 q 201 -18 201 -40 q 196 2 201 -5 q 186 18 191 11 q 159 50 175 31 q 133 81 144 68 q 164 108 151 97 q 187 128 176 119 q 209 147 198 137 q 237 173 221 158 l 293 111 "},"f":{"x_min":40.21875,"x_max":541.296875,"ha":406,"o":"m 322 0 l 79 0 q 92 16 84 6 q 105 33 99 26 q 115 56 113 44 q 118 95 116 68 l 118 582 l 40 582 l 118 629 q 123 692 119 652 q 147 780 127 731 q 241 908 181 862 q 362 969 301 954 q 391 976 378 974 q 423 979 405 978 q 470 981 442 981 q 541 981 498 981 l 432 920 q 385 925 407 925 q 328 913 351 925 q 293 884 306 901 q 273 849 280 868 q 264 818 267 831 q 260 790 262 802 q 256 759 257 779 q 253 709 255 740 q 251 629 252 679 l 453 629 l 376 582 l 251 582 l 247 340 l 247 84 q 253 50 247 58 q 299 39 260 43 q 339 35 319 36 q 378 32 359 34 l 322 0 "},"“":{"x_min":71,"x_max":525.90625,"ha":550,"o":"m 287 997 q 246 940 266 969 q 210 886 226 912 q 184 837 194 860 q 175 795 175 813 q 176 781 175 787 q 184 765 177 774 q 202 742 190 756 q 233 706 213 728 q 178 657 198 676 q 134 617 158 638 q 99 657 112 642 q 80 682 86 671 q 72 701 73 692 q 71 720 71 709 q 91 783 71 745 q 136 858 111 820 q 186 926 162 895 q 217 966 209 956 l 287 997 m 500 958 q 474 922 489 943 q 445 879 459 901 q 421 833 431 856 q 412 793 412 810 q 416 771 412 779 q 427 756 421 763 q 447 731 435 744 q 467 706 459 717 q 423 668 443 686 q 368 618 403 650 q 334 658 348 643 q 315 684 321 674 q 307 702 309 694 q 305 721 305 710 q 318 767 305 740 q 354 826 331 793 q 399 890 377 860 q 438 940 421 919 q 455 961 455 961 l 525 995 l 500 958 "},"A":{"x_min":19.453125,"x_max":1093.140625,"ha":1042,"o":"m 370 971 l 565 985 q 586 937 570 972 q 620 864 602 903 q 654 792 638 826 q 675 748 670 758 q 699 692 686 723 q 727 627 712 661 q 754 563 741 594 q 779 507 768 532 l 833 383 q 908 229 876 290 q 968 126 940 168 q 1025 56 995 84 q 1093 0 1054 27 q 1045 -10 1066 -7 q 1001 -14 1025 -14 q 947 -6 973 -14 q 890 20 922 1 q 841 61 862 38 q 802 110 819 84 q 772 165 786 137 q 744 225 758 193 l 662 417 q 628 407 643 411 q 602 399 613 403 q 578 391 590 395 q 552 381 566 386 l 331 381 q 298 376 308 381 q 277 360 288 372 l 156 136 q 150 120 154 129 q 147 104 147 112 q 166 77 147 86 q 238 51 194 61 q 315 36 281 41 l 198 0 q 82 11 120 -2 q 19 41 44 26 q 70 109 45 76 q 119 182 94 141 q 173 276 144 222 q 240 408 202 331 l 291 517 q 326 586 313 560 q 350 636 338 613 q 372 688 361 660 q 405 763 384 716 q 421 799 415 784 q 432 825 427 813 q 441 848 437 837 q 450 874 445 859 q 422 910 440 897 q 381 929 404 923 q 332 936 358 936 q 281 936 306 937 l 370 971 m 569 430 q 619 433 602 433 q 655 436 636 434 q 618 525 643 469 q 568 639 594 581 q 519 745 543 697 q 486 815 495 794 q 441 711 459 754 q 404 626 423 669 q 367 551 386 588 q 330 475 348 513 q 320 453 325 464 q 311 431 315 442 l 569 430 "},"6":{"x_min":49,"x_max":685,"ha":724,"o":"m 437 618 q 453 616 444 618 q 469 612 461 615 q 551 582 512 602 q 620 531 590 562 q 667 456 650 499 q 685 358 685 413 q 660 227 685 294 q 591 106 636 160 q 480 17 546 52 q 332 -17 415 -17 q 203 12 257 -17 q 115 87 150 41 q 64 188 80 133 q 49 298 49 244 q 91 489 49 387 q 216 696 133 591 q 314 804 264 755 q 413 893 365 853 q 506 965 462 933 q 586 1020 551 996 l 551 946 q 481 894 519 924 q 404 828 444 865 q 324 741 363 790 q 250 633 284 693 q 195 504 212 566 q 178 372 178 443 q 196 237 178 297 q 247 136 215 177 q 320 73 279 95 q 405 51 361 51 q 467 62 436 51 q 523 97 498 73 q 563 158 548 121 q 579 244 579 194 q 563 342 579 290 q 515 438 547 394 q 434 510 483 482 q 319 539 386 539 q 291 537 304 539 q 265 533 279 536 l 304 569 l 437 618 "},"‘":{"x_min":110,"x_max":327,"ha":377,"o":"m 299 955 q 268 906 283 931 q 238 856 252 881 q 219 814 222 828 q 216 792 216 799 q 222 769 216 778 q 234 755 228 760 q 241 745 235 752 q 254 731 247 738 q 268 716 261 723 q 277 706 274 709 q 249 682 260 692 q 227 662 238 671 q 206 643 217 653 q 178 617 195 633 q 123 676 137 659 q 110 713 110 694 q 116 749 110 730 q 134 786 123 767 q 155 822 144 805 q 176 853 167 840 q 193 876 180 858 q 219 913 205 894 q 245 949 233 933 q 260 966 257 965 l 327 997 l 299 955 "},"O":{"x_min":53,"x_max":1162,"ha":1215,"o":"m 1162 512 q 1122 311 1162 408 q 1009 141 1082 215 q 830 23 935 67 q 594 -21 724 -21 q 367 20 468 -21 q 197 131 266 62 q 90 291 127 201 q 53 480 53 381 q 89 666 53 573 q 197 833 125 759 q 377 954 269 907 q 626 1001 484 1001 q 845 962 747 1001 q 1014 857 944 924 q 1123 702 1084 791 q 1162 512 1162 613 m 1011 456 q 1006 537 1011 495 q 990 620 1001 578 q 938 736 973 677 q 851 844 904 795 q 732 923 799 892 q 581 954 665 954 q 436 926 505 954 q 314 844 366 898 q 231 714 262 791 q 200 538 200 637 q 231 350 200 442 q 321 188 263 259 q 459 73 379 117 q 637 30 540 30 q 758 51 692 30 q 880 122 824 73 q 973 253 936 171 q 1011 456 1011 335 "},"n":{"x_min":10.9375,"x_max":793.078125,"ha":781,"o":"m 734 0 l 502 0 q 528 36 522 20 q 536 82 534 51 l 542 319 q 541 404 542 371 q 537 461 540 437 q 527 501 535 485 q 507 533 519 517 q 478 560 498 546 q 421 574 457 574 q 373 565 394 574 q 337 546 353 557 q 310 525 321 536 q 294 508 298 514 q 271 480 286 500 q 243 443 255 460 l 235 115 q 235 78 235 92 q 240 57 236 65 q 254 46 244 50 q 280 42 264 43 l 361 33 l 304 0 l 71 0 q 91 21 83 12 q 103 41 98 30 q 108 64 107 51 q 110 98 110 77 q 111 343 110 221 q 116 588 113 465 l 10 588 l 104 631 l 271 631 q 256 611 261 619 q 248 592 250 603 q 245 566 246 582 q 245 525 245 550 q 286 566 268 548 q 324 597 304 583 q 396 636 354 619 q 486 653 437 653 q 587 627 544 653 q 651 558 630 601 q 672 478 669 522 q 675 390 675 434 l 668 104 q 673 56 668 66 q 706 43 679 45 l 793 33 l 734 0 "},"3":{"x_min":22.34375,"x_max":584,"ha":724,"o":"m 22 786 q 94 856 61 826 q 157 910 127 886 q 214 953 187 934 q 269 989 241 972 q 311 994 293 991 q 361 997 330 997 q 446 988 408 997 q 505 960 480 978 q 543 920 529 942 q 563 876 557 899 q 570 835 570 854 q 555 766 570 798 q 517 705 540 733 q 454 648 486 670 q 407 616 422 626 q 458 593 431 606 q 514 554 486 580 q 565 479 546 522 q 584 390 584 437 q 568 302 584 347 q 525 216 553 257 q 479 164 508 193 q 408 104 450 135 q 311 44 367 74 q 185 -10 255 14 l 64 -19 q 94 -6 78 -13 q 128 7 111 0 q 157 19 144 14 q 179 29 171 25 q 271 83 218 49 q 368 166 323 117 q 422 251 403 207 q 442 348 442 296 q 423 432 442 396 q 375 492 405 468 q 303 529 344 516 q 215 543 262 541 l 250 591 q 325 609 289 593 q 387 652 361 626 q 430 711 414 677 q 446 777 446 744 q 432 834 446 811 q 397 873 418 858 q 350 896 376 889 q 301 903 325 903 q 280 901 297 903 q 238 892 262 900 q 186 867 214 884 q 133 818 158 850 l 22 786 "},"9":{"x_min":39,"x_max":677,"ha":724,"o":"m 287 363 q 269 365 287 363 q 222 378 250 368 q 162 405 194 387 q 102 451 130 422 q 57 521 75 479 q 39 622 39 564 q 59 738 39 676 q 115 852 79 801 q 232 956 161 916 q 393 997 304 997 q 522 967 468 997 q 610 893 575 938 q 661 792 645 848 q 677 681 677 735 q 634 490 677 592 q 508 284 592 388 q 410 175 461 224 q 311 87 360 127 q 218 16 262 48 q 139 -38 173 -14 l 172 34 q 278 114 229 74 q 382 217 328 155 q 478 351 445 288 q 527 464 511 413 q 545 553 542 516 q 548 609 548 590 q 529 743 548 684 q 478 843 510 802 q 404 906 446 884 q 318 929 363 929 q 256 917 288 929 q 200 883 225 906 q 160 823 175 859 q 145 737 145 787 q 161 635 145 688 q 210 539 178 583 q 292 469 243 496 q 403 441 340 441 q 431 442 418 441 q 460 446 443 444 l 421 411 l 287 363 "},"l":{"x_min":15,"x_max":368.390625,"ha":347,"o":"m 317 0 l 71 0 q 90 25 84 15 q 102 41 97 34 q 107 55 106 48 q 109 73 109 62 l 109 300 q 110 491 109 382 q 115 708 112 599 q 119 822 116 760 q 123 932 121 883 l 15 932 l 119 981 l 317 981 q 289 964 300 971 q 271 949 279 957 q 260 928 264 940 q 254 899 255 917 q 244 696 246 818 q 242 425 242 574 l 242 104 q 252 52 242 64 q 297 38 262 40 q 332 34 315 35 q 368 31 350 33 l 317 0 "},"¤":{"x_min":81.21875,"x_max":846.796875,"ha":926,"o":"m 744 689 q 766 657 753 676 q 791 611 780 637 q 810 550 802 584 q 819 469 819 515 q 810 390 819 424 q 789 329 802 355 q 763 283 777 302 q 742 252 750 265 l 844 148 l 780 85 l 679 190 q 638 162 658 176 q 592 137 617 148 q 535 121 567 127 q 462 115 503 115 q 391 121 422 115 q 334 137 359 127 q 288 161 310 148 q 246 190 267 174 l 143 88 l 81 151 l 184 252 q 155 296 168 274 q 130 343 142 317 q 113 400 119 369 q 107 472 107 431 q 115 550 107 515 q 135 611 123 584 q 160 657 147 637 q 184 689 174 676 l 82 790 l 145 853 l 246 751 q 283 777 263 764 q 330 801 304 790 q 390 820 357 812 q 465 828 423 828 q 540 820 506 828 q 601 800 574 812 q 646 775 627 789 q 681 752 666 762 l 782 854 l 846 790 l 744 689 m 465 197 q 569 217 520 197 q 654 274 618 237 q 712 361 691 310 q 734 472 734 411 q 711 585 734 534 q 652 671 689 636 q 566 726 614 707 q 466 746 517 746 q 362 726 412 746 q 274 671 312 707 q 214 584 236 636 q 192 470 192 533 q 212 363 192 413 q 269 276 233 313 q 356 218 305 240 q 465 197 406 197 "},"4":{"x_min":8.6875,"x_max":707.125,"ha":724,"o":"m 633 35 l 588 0 l 371 0 q 386 28 380 18 q 394 47 392 38 q 398 65 397 55 q 399 91 399 74 l 401 297 q 306 298 354 298 q 211 298 258 298 q 91 297 146 298 q 8 295 36 296 q 28 329 14 304 q 58 381 42 353 q 87 434 73 408 q 107 470 101 459 q 182 597 137 524 q 271 742 226 670 q 356 877 317 814 q 417 971 396 940 l 540 997 q 536 961 537 977 q 534 923 536 945 q 532 866 533 901 q 529 774 530 831 l 521 393 l 615 393 q 632 393 619 393 q 660 393 646 393 q 688 394 675 394 q 707 394 701 394 l 572 291 q 543 294 552 294 q 518 294 533 294 l 518 107 q 519 75 518 87 q 525 55 520 62 q 540 45 530 48 q 566 40 549 41 l 633 35 m 418 891 q 344 776 383 840 q 266 645 304 712 q 192 513 228 578 q 126 397 156 448 l 264 397 q 333 396 299 397 q 402 396 368 396 l 418 891 "},"p":{"x_min":-9.671875,"x_max":707,"ha":753,"o":"m 286 -364 l 36 -364 q 73 -337 65 -344 q 83 -322 80 -330 q 91 -266 90 -309 q 93 -172 92 -223 q 95 -90 94 -131 q 99 -8 96 -48 l 104 308 q 105 354 104 329 q 105 406 105 380 q 106 459 105 433 q 107 505 107 484 q 105 548 107 533 q 97 571 104 563 q 78 581 91 579 q 40 586 65 584 q 15 588 27 587 q -9 591 2 588 l 45 629 l 239 629 l 239 522 q 307 570 280 551 q 355 602 334 590 q 391 623 375 615 q 430 642 408 632 q 443 643 437 643 q 457 643 450 643 q 542 629 498 643 q 623 586 586 616 q 683 504 659 555 q 707 377 707 452 q 670 207 707 279 q 586 91 634 136 q 502 35 544 55 q 415 5 460 15 q 323 -5 370 -3 q 230 -8 277 -8 l 221 -258 q 221 -291 219 -279 q 227 -310 222 -304 q 242 -320 232 -316 q 269 -325 252 -323 q 302 -328 286 -327 q 334 -331 318 -329 l 286 -364 m 238 466 q 237 415 238 450 q 236 335 236 380 q 234 241 235 290 q 232 146 234 192 q 230 64 231 100 q 230 10 230 28 l 302 56 q 375 56 340 56 q 439 62 410 57 q 493 78 468 67 q 538 108 518 89 q 583 180 570 139 q 597 267 597 222 q 577 389 597 336 q 528 479 558 443 q 463 534 498 515 q 396 553 427 553 q 327 534 355 553 q 275 496 298 516 l 238 466 "},"‡":{"x_min":9.6875,"x_max":656.6875,"ha":665,"o":"m 361 40 l 306 -57 q 302 26 303 -7 q 300 93 301 59 q 300 171 300 127 q 300 286 300 215 l 9 286 l 72 333 l 300 333 l 300 646 l 9 646 l 79 695 l 300 695 q 300 732 300 704 q 303 791 301 760 q 305 851 304 822 q 306 892 306 879 l 371 1006 q 370 940 371 974 q 368 875 369 907 q 365 808 366 833 q 364 765 365 783 q 364 732 363 747 q 365 695 365 717 l 656 694 l 585 646 l 361 646 l 361 333 l 649 333 l 580 286 l 361 286 l 361 40 "},"à":{"x_min":5,"x_max":631.71875,"ha":607,"o":"m 499 300 q 531 196 516 243 q 563 107 545 150 q 599 32 583 55 q 631 -11 615 9 q 610 -13 620 -12 q 591 -15 601 -15 q 546 -8 567 -15 q 505 9 526 -1 q 453 53 470 29 q 427 97 437 77 l 362 33 q 300 2 342 21 q 191 -17 258 -17 q 115 -5 148 -17 q 61 26 83 6 q 29 72 39 46 q 19 127 19 98 q 55 233 19 187 q 142 311 91 279 q 246 365 192 344 q 334 398 299 386 l 313 459 q 278 535 295 508 q 237 576 260 562 q 183 591 215 589 q 103 592 151 593 l 205 635 q 295 631 251 635 q 373 605 340 628 q 404 575 391 593 q 428 534 417 558 q 449 476 438 509 q 471 398 459 443 l 499 300 m 362 305 q 349 344 355 333 q 330 356 344 356 q 290 343 319 356 q 231 307 262 330 q 177 251 201 285 q 154 175 154 218 q 166 122 154 144 q 198 87 179 101 q 241 67 217 73 q 287 61 265 61 q 372 81 341 61 q 417 116 404 102 q 406 150 410 137 q 397 178 401 163 q 388 211 392 193 q 374 258 383 229 l 362 305 m 401 729 l 99 795 l 5 867 l 303 798 l 401 729 "},"Ü":{"x_min":-18.625,"x_max":988.171875,"ha":1041,"o":"m 988 981 l 950 949 q 939 933 942 940 q 934 897 936 925 q 933 864 934 880 q 933 832 933 848 l 919 427 q 912 345 916 387 q 899 259 909 302 q 871 174 889 216 q 822 97 853 133 q 686 6 766 33 q 520 -21 605 -21 q 410 -11 455 -21 q 337 9 365 -1 q 211 91 255 41 q 147 195 167 141 q 123 298 126 248 q 120 380 120 348 q 121 502 120 436 q 126 664 123 569 l 128 748 q 129 800 128 779 q 130 841 130 822 q 130 880 130 859 q 130 928 130 900 l -18 928 l 85 981 l 336 981 l 300 950 q 283 924 284 937 q 278 879 280 915 q 274 801 276 843 q 270 721 272 759 q 268 668 268 682 l 264 529 q 262 429 262 473 q 265 348 262 384 q 273 281 268 312 q 289 222 279 249 q 394 80 322 128 q 568 33 466 33 q 640 40 605 33 q 708 66 676 48 q 820 184 781 106 q 856 308 848 238 q 868 469 863 377 l 872 650 q 872 714 872 684 q 872 775 873 744 q 870 843 872 807 q 868 928 869 879 l 709 928 l 816 981 l 988 981 m 691 1054 q 668 1078 677 1068 q 652 1099 659 1088 q 636 1121 644 1109 q 615 1152 627 1133 q 645 1175 633 1166 q 666 1193 657 1184 q 686 1210 676 1201 q 712 1232 697 1219 q 733 1204 725 1215 q 749 1185 741 1194 q 766 1165 757 1176 q 790 1137 775 1154 q 763 1112 775 1122 q 742 1093 752 1102 q 720 1075 732 1084 q 691 1054 708 1066 m 397 1052 q 372 1077 381 1066 q 354 1097 362 1087 q 337 1118 345 1107 q 316 1147 329 1130 q 344 1170 333 1161 q 366 1189 355 1180 q 386 1208 376 1198 q 412 1232 397 1218 q 435 1204 426 1215 q 452 1182 444 1193 q 470 1161 461 1172 q 493 1137 480 1151 q 467 1111 477 1122 q 446 1093 456 1101 q 425 1075 436 1084 q 397 1052 413 1065 "},"ó":{"x_min":44,"x_max":737,"ha":781,"o":"m 737 319 q 713 197 737 258 q 645 89 689 137 q 534 11 600 41 q 383 -18 468 -18 q 236 11 300 -18 q 130 87 173 40 q 66 193 88 134 q 44 309 44 251 q 70 438 44 377 q 144 546 96 499 q 258 619 192 592 q 404 647 325 647 q 542 619 480 647 q 647 545 604 591 q 714 440 691 499 q 737 319 737 381 m 415 24 q 494 42 455 24 q 557 94 533 61 q 590 168 582 128 q 599 248 599 208 q 587 355 599 294 q 548 472 575 416 q 476 565 521 527 q 368 604 432 604 q 300 591 333 604 q 242 556 268 579 q 190 476 202 520 q 179 387 179 431 q 192 273 179 336 q 233 154 205 209 q 307 61 262 98 q 415 24 352 24 m 611 795 l 316 729 l 410 798 l 709 867 l 611 795 "},"\u001a":{"x_min":40.21875,"x_max":768.390625,"ha":753,"o":"m 672 629 q 659 610 663 617 q 653 595 655 602 q 649 580 651 588 q 648 558 648 572 l 643 155 q 643 142 643 151 q 642 120 643 132 q 642 99 642 108 q 642 85 642 89 q 653 48 642 56 q 697 38 664 40 l 768 30 l 714 0 l 479 0 q 499 22 491 13 q 510 40 507 31 q 515 59 514 48 q 517 87 517 70 l 517 582 l 251 582 l 247 340 l 247 85 q 251 55 247 62 q 269 44 255 47 q 290 41 274 43 q 322 37 305 39 q 354 33 338 35 q 379 32 370 32 l 322 0 l 79 0 q 92 16 84 6 q 105 33 99 26 q 115 56 113 44 q 118 95 116 68 l 118 582 l 40 582 l 118 629 q 123 692 119 652 q 147 780 127 731 q 241 908 181 862 q 362 969 301 954 q 392 976 379 974 q 424 979 405 978 q 471 981 443 981 q 541 981 498 981 l 433 920 q 384 925 408 925 q 328 913 349 925 q 293 884 306 901 q 273 849 280 868 q 264 818 267 831 q 260 790 262 802 q 256 759 257 779 q 253 709 255 740 q 251 629 252 679 l 672 629 m 674 822 q 654 800 663 809 q 635 782 645 791 q 611 759 624 772 q 576 730 597 747 q 549 757 559 745 q 529 778 538 768 q 513 798 520 788 q 495 822 505 808 q 526 850 511 836 q 559 879 542 863 l 594 912 l 624 876 q 630 870 627 873 q 636 863 633 866 l 674 822 "},"\r":{"x_min":8.8125,"x_max":364.40625,"ha":347,"o":"m 310 0 l 75 0 q 95 22 87 13 q 106 40 103 31 q 111 59 110 48 q 113 88 113 70 l 113 580 l 8 580 l 101 629 l 268 629 q 255 610 259 617 q 249 595 251 602 q 245 580 247 588 q 244 558 244 572 l 239 155 q 239 142 239 151 q 238 121 239 132 q 238 99 238 110 q 238 85 238 89 q 249 47 238 54 q 293 38 261 40 l 364 32 l 310 0 "}}}
